<svg xmlns="http://www.w3.org/2000/svg" width="84" height="84" viewBox="0 0 84 84"><g transform="translate(-705 -420.455)"><rect width="84" height="84" fill="#ffe3ee" rx="5" transform="translate(705 420.455)"/><path fill="#cc839f" d="M773.848 459.503a.91.91 0 0 0-.622-.862l-8.177-2.726a.9.9 0 0 0-.574 0l-8.177 2.726a.91.91 0 0 0-.622.862v9.994a.91.91 0 0 0 .909.909h16.354a.91.91 0 0 0 .909-.909Zm-12.72 9.086v-5.451h7.269v5.451Zm10.9 0h-1.817v-6.36a.91.91 0 0 0-.909-.909h-9.086a.91.91 0 0 0-.909.909v6.36h-1.817v-8.43l7.269-2.423 7.269 2.423Zm1.82 11.811a.91.91 0 0 0-.622-.862l-8.177-2.726a.9.9 0 0 0-.574 0l-8.177 2.726a.91.91 0 0 0-.622.862v9.994a.91.91 0 0 0 .909.909h16.354a.91.91 0 0 0 .909-.909Zm-12.72 9.086v-5.451h7.269v5.451Zm10.9 0h-1.817v-6.36a.91.91 0 0 0-.909-.909h-9.086a.91.91 0 0 0-.909.909v6.36h-1.817v-8.43l7.269-2.423 7.269 2.423Zm1.82-49.063a.91.91 0 0 0-.622-.862l-8.176-2.725a.9.9 0 0 0-.574 0l-8.177 2.726a.91.91 0 0 0-.622.862v9.994a.91.91 0 0 0 .909.909h16.354a.91.91 0 0 0 .909-.909Zm-12.72 9.086v-5.451h7.269v5.451Zm10.9 0h-1.817v-6.36a.91.91 0 0 0-.909-.909h-9.086a.91.91 0 0 0-.909.909v6.36h-1.817v-8.43l7.269-2.423 7.269 2.423Zm-18.168-3.634v-1.817h-6.36a.91.91 0 0 0-.909.909v40.886a.91.91 0 0 0 .909.909h6.36v-1.817h-5.451v-19.987h5.451v-1.82h-5.451v-17.263Zm-33.618 19.08h2.726v2.726a.91.91 0 0 0 .909.909h1.075a2.7 2.7 0 0 0 4.376 1.109 2.7 2.7 0 0 0 4.376-1.109h3.969a2.709 2.709 0 0 0 5.117 0h1.076a.91.91 0 0 0 .909-.909v-4.544a.9.9 0 0 0-.266-.642l-1.551-1.551v-9.618a.908.908 0 0 0-1.315-.813l-2.32 1.16v-5.8a.91.91 0 0 0-.909-.907h-3.634a.91.91 0 0 0-.909.909v4.891l-1.817.909v-5.8a.91.91 0 0 0-.909-.909h-3.634a.91.91 0 0 0-.909.909v4.891l-1.817.909v-5.8a.91.91 0 0 0-.908-.909h-3.635a.91.91 0 0 0-.908.908v18.172a.91.91 0 0 0 .909.909Zm4.543 1.817v-7.269h10.9v7.269h-1.981a2.7 2.7 0 0 0-4.376-1.106 2.7 2.7 0 0 0-4.376 1.108Zm2.726 1.817a.909.909 0 1 1 .909-.909.91.91 0 0 1-.909.909m3.634 0a.909.909 0 1 1 .909-.909.91.91 0 0 1-.909.909m9.086 0a.909.909 0 1 1 .909-.909.91.91 0 0 1-.906.909Zm2.726-1.817h-.167a2.709 2.709 0 0 0-5.117 0h-.167v-5.452h3.258l2.193 2.193Zm-7.269-19.989h1.817v5.8l-1.817.909Zm-7.269 0h1.815v5.8l-1.817.909Zm-1.817 7.269v.909a.91.91 0 0 0 1.315.813l5.954-2.977v2.164a.91.91 0 0 0 1.315.813l5.954-2.977v6.707h-3.635v-.909a.91.91 0 0 0-.909-.909h-12.719a.91.91 0 0 0-.909.909v4.543h-1.817v-7.616l5.451-2.726Zm-3.634-7.269v5.8l-1.817.909v-6.709Zm0 0"/></g></svg>