<svg xmlns="http://www.w3.org/2000/svg" width="84.673" height="151.813" viewBox="0 0 84.673 151.813"><g fill="#481d1d" transform="translate(-184.664 -3585.988)"><path d="m186.353 3603.368-.74-.673 14.743-16.216.74.673Z"/><path d="m200.881 3602.911-16.217-14.743.672-.74 16.218 14.743Zm-14.486 23.288-.74-.673 14.743-16.216.74.673Z"/><path d="m200.924 3625.742-16.217-14.743.672-.74 16.218 14.743Zm6.205-22.865-.74-.673 14.743-16.216.74.673Z"/><path d="m221.657 3602.42-16.217-14.743.672-.74 16.218 14.743Zm-14.484 23.287-.74-.673 14.743-16.216.74.673Z"/><path d="m221.7 3625.25-16.217-14.743.672-.74 16.218 14.743Zm-35.347 22.93-.74-.673 14.743-16.216.74.673Z"/><path d="m200.881 3647.722-16.217-14.743.672-.74 16.218 14.743Zm-14.486 23.288-.74-.673 14.743-16.216.74.673Zm2.152 44.81-.74-.673 14.743-16.216.74.673Zm-2.195-22.83-.74-.673 14.743-16.216.74.673Zm2.152 44.811-.74-.673 14.743-16.216.74.673Z"/><path d="m200.924 3670.552-16.217-14.743.672-.74 16.218 14.743Zm2.152 44.811-16.217-14.743.672-.74 16.218 14.743Zm-2.195-22.83-16.217-14.743.672-.74 16.218 14.743Zm2.152 44.81-16.217-14.743.672-.74 16.218 14.743Zm4.096-89.655-.74-.673 14.743-16.216.74.673Z"/><path d="m221.657 3647.231-16.217-14.743.672-.74 16.218 14.743Zm-14.484 23.287-.74-.673 14.743-16.216.74.673Zm2.152 44.811-.74-.673 14.743-16.216.74.673Zm-2.195-22.83-.74-.673 14.743-16.216.74.673Zm2.152 44.81-.74-.673 14.743-16.216.74.673Z"/><path d="m221.7 3670.061-16.217-14.743.672-.74 16.218 14.743Zm2.152 44.811-16.217-14.743.672-.74 16.218 14.743Zm-2.195-22.83-16.217-14.743.672-.74 16.218 14.743Zm2.152 44.81-16.217-14.743.672-.74 16.218 14.743Zm7.355-133.484-.74-.673 14.743-16.216.74.673Z"/><path d="m245.693 3602.911-16.217-14.743.672-.74 16.218 14.743Zm-14.486 23.288-.74-.673 14.743-16.216.74.673Z"/><path d="m245.735 3625.742-16.217-14.743.672-.74 16.218 14.743Zm6.205-22.865-.74-.673 14.743-16.216.74.673Z"/><path d="m266.469 3602.42-16.217-14.743.672-.74 16.218 14.743Zm-14.486 23.287-.74-.673 14.743-16.216.74.673Z"/><path d="m266.512 3625.25-16.217-14.743.672-.74 16.218 14.743Zm-35.348 22.93-.74-.673 14.743-16.216.74.673Z"/><path d="m245.693 3647.722-16.217-14.743.672-.74 16.218 14.743Zm-14.486 23.288-.74-.673 14.743-16.216.74.673Zm2.152 44.81-.74-.673 14.743-16.216.74.673Zm-2.195-22.83-.74-.673 14.743-16.216.74.673Zm2.152 44.811-.74-.673 14.743-16.216.74.673Z"/><path d="m245.735 3670.552-16.217-14.743.672-.74 16.218 14.743Zm2.151 44.811-16.217-14.743.672-.74 16.218 14.743Zm-2.194-22.83-16.217-14.743.672-.74 16.218 14.743Zm2.152 44.81-16.217-14.743.672-.74 16.218 14.743Zm4.096-89.655-.74-.673 14.743-16.216.74.673Z"/><path d="m266.469 3647.231-16.217-14.743.672-.74 16.218 14.743Zm-14.486 23.287-.74-.673 14.743-16.216.74.673Zm2.152 44.811-.74-.673 14.743-16.216.74.673Zm-2.195-22.83-.74-.673 14.743-16.216.74.673Zm2.152 44.81-.74-.673 14.743-16.216.74.673Z"/><path d="m266.512 3670.061-16.217-14.743.672-.74 16.218 14.743Zm2.152 44.811-16.217-14.743.672-.74 16.218 14.743Zm-2.195-22.83-16.217-14.743.672-.74 16.218 14.743Zm2.152 44.81-16.217-14.743.672-.74 16.218 14.743Z"/></g></svg>