<svg xmlns="http://www.w3.org/2000/svg" width="59.684" height="59.683" viewBox="0 0 59.684 59.683"><path fill="#9bac1c" d="M59.342 10.948 48.734.341A1.17 1.17 0 0 0 47.91 0H13.289a3.5 3.5 0 0 0-3.5 3.5v2.219A15.42 15.42 0 0 0 0 20.06a1.166 1.166 0 0 0 1.166 1.166H15.4a1.166 1.166 0 0 0 1.166-1.166V5.828A1.166 1.166 0 0 0 15.4 4.663a15.4 15.4 0 0 0-3.275.352V3.5a1.167 1.167 0 0 1 1.166-1.166h33.453v7.108a3.5 3.5 0 0 0 3.5 3.5h7.111v43.244a1.167 1.167 0 0 1-1.166 1.166h-42.9a1.167 1.167 0 0 1-1.166-1.166V46.2a1.166 1.166 0 0 0-2.331 0v9.986a3.5 3.5 0 0 0 3.5 3.5h42.9a3.5 3.5 0 0 0 3.5-3.5V11.772a1.17 1.17 0 0 0-.35-.824m-45.11-3.9v11.847H2.383A13.09 13.09 0 0 1 14.232 7.046Zm36.01 3.562a1.167 1.167 0 0 1-1.166-1.166V3.98l6.624 6.628Z"/><path fill="#9bac1c" d="M11.782 41.141a1.165 1.165 0 1 0 .342.824 1.17 1.17 0 0 0-.342-.824m7.791-32.303a1.166 1.166 0 0 0-1.166 1.166V23.07H5.341a1.166 1.166 0 0 0-1.166 1.166 15.4 15.4 0 1 0 15.4-15.4Zm1.165 2.381a13 13 0 0 1 7.208 2.992l-7.208 7.208ZM19.572 37.3A13.084 13.084 0 0 1 6.556 25.401h13.017a1.16 1.16 0 0 0 .824-.341l9.2-9.2A13.06 13.06 0 0 1 19.574 37.3Zm31.494-.51a3.5 3.5 0 0 0-3.22 4.86l-6.716 6.716a3.5 3.5 0 0 0-3.02-.016l-4.46-4.46a3.5 3.5 0 1 0-6.432.192L22.94 48.36a3.5 3.5 0 1 0 1.65 1.647l4.254-4.254a3.49 3.49 0 0 0 3.275-.1l4.334 4.334a3.5 3.5 0 1 0 6.314.034l6.653-6.653a3.5 3.5 0 1 0 1.645-6.582Zm-29.63 15.895a1.166 1.166 0 1 1 .806-2.005l.014.015.017.016a1.164 1.164 0 0 1-.837 1.975Zm8.956-8.9a1.166 1.166 0 1 1 1.166-1.166 1.167 1.167 0 0 1-1.164 1.166Zm9.209 8.893a1.166 1.166 0 1 1 1.166-1.166 1.167 1.167 0 0 1-1.164 1.165Zm11.463-11.225a1.166 1.166 0 1 1 1.172-1.168 1.167 1.167 0 0 1-1.17 1.168Zm-5.825-14.059h-6.152a1.166 1.166 0 1 0 0 2.331h6.152a1.166 1.166 0 1 0 0-2.331m6.132.342a1.165 1.165 0 1 0 .342.824 1.17 1.17 0 0 0-.342-.824m1.955-11.533H39.087a1.166 1.166 0 1 0 0 2.331h14.239a1.166 1.166 0 0 0 0-2.331m0 5.595H39.087a1.166 1.166 0 1 0 0 2.331h14.239a1.166 1.166 0 0 0 0-2.331"/></svg>