<svg xmlns="http://www.w3.org/2000/svg" width="59.684" height="58.154" viewBox="0 0 59.684 58.154"><path fill="#9bac1c" d="M38.07 14.747a2.918 2.918 0 1 0-2.328-1.164l-4.788 6.691a2.9 2.9 0 0 0-2.891.637L24.871 19.1a2.914 2.914 0 1 0-5.7 0l-3.192 1.811a2.91 2.91 0 1 0 .865 1.52l3.192-1.811a2.907 2.907 0 0 0 3.967 0l3.192 1.811a2.914 2.914 0 1 0 5.177-1.138l4.788-6.691a2.9 2.9 0 0 0 .91.145m0-4.08a1.166 1.166 0 1 1-1.166 1.166 1.167 1.167 0 0 1 1.166-1.166M14.002 24.208a1.166 1.166 0 1 1 1.168-1.165 1.167 1.167 0 0 1-1.168 1.165m8.024-4.556a1.166 1.166 0 1 1 1.166-1.166 1.167 1.167 0 0 1-1.166 1.171Zm8.024 4.556a1.166 1.166 0 1 1 1.166-1.166 1.167 1.167 0 0 1-1.166 1.166"/><path fill="#9bac1c" d="M48.819 43.178H2.473a.725.725 0 0 1-.724-.724V6.385a.725.725 0 0 1 .724-.724h4.121a.875.875 0 1 0 0-1.749H2.473A2.476 2.476 0 0 0 0 6.385v36.069a2.476 2.476 0 0 0 2.473 2.473H8.5v1.924a1.99 1.99 0 0 0 1.988 1.988h8.752l-4.12 8.043a.875.875 0 1 0 1.556.8l4.528-8.84h9.666l4.528 8.84a.875.875 0 1 0 1.556-.8l-4.12-8.043h8.751a1.99 1.99 0 0 0 1.988-1.988v-1.924h5.244a.875.875 0 0 0 0-1.749Zm-6.993 3.673a.24.24 0 0 1-.239.239h-31.1a.24.24 0 0 1-.239-.239v-1.924h31.578ZM10.091 5.66h39.511a.725.725 0 0 1 .724.724v8.313a.875.875 0 0 0 1.749 0V6.385a2.476 2.476 0 0 0-2.473-2.473H30.89V2.193A2.2 2.2 0 0 0 28.697 0h-5.318a2.2 2.2 0 0 0-2.193 2.193v1.719H10.091a.875.875 0 1 0 0 1.749Zm12.843-3.467a.445.445 0 0 1 .445-.445h5.318a.445.445 0 0 1 .449.445v1.719h-6.212z"/><path fill="#9bac1c" d="M12.228 30.427a.874.874 0 0 0-.874.874v7.725a.874.874 0 0 0 .874.874h3.547a.874.874 0 0 0 .874-.874v-7.725a.874.874 0 0 0-.874-.874Zm2.673 7.725h-1.8v-5.977h1.8Zm5.351-12.193a.874.874 0 0 0-.874.874v12.193a.874.874 0 0 0 .874.874h3.547a.874.874 0 0 0 .874-.874V26.833a.874.874 0 0 0-.874-.874Zm2.673 12.193h-1.8V27.711h1.8Zm5.351-7.725a.874.874 0 0 0-.874.874v7.725a.874.874 0 0 0 .874.874h3.547a.874.874 0 0 0 .874-.874v-7.725a.874.874 0 0 0-.874-.874Zm2.673 7.725h-1.8v-5.977h1.8Zm5.352-2.566a.874.874 0 0 0-.874.874v2.566a.874.874 0 0 0 .874.874h3.547a.875.875 0 0 0 0-1.749h-2.673v-1.692a.874.874 0 0 0-.874-.873m22.937 8.417-5.021-8.69a11.433 11.433 0 1 0-11.3 3.226 11.5 11.5 0 0 0 2.976.394 11.3 11.3 0 0 0 2.574-.3l5.015 8.688a3.323 3.323 0 1 0 5.756-3.323Zm-15.868-7.15a9.679 9.679 0 1 1 7.344-.967 9.62 9.62 0 0 1-7.344.965Zm13.777 10.176a1.577 1.577 0 0 1-2.151-.576l-4.825-8.358a11.5 11.5 0 0 0 2.726-1.576l4.826 8.359a1.573 1.573 0 0 1-.576 2.151"/><path fill="#9bac1c" d="M53.801 29.964a8.27 8.27 0 0 0-.414-5.993.874.874 0 1 0-1.582.745 6.548 6.548 0 1 1-1.974-2.439.874.874 0 1 0 1.055-1.394 8.3 8.3 0 1 0 2.915 9.082Z"/></svg>