<svg xmlns="http://www.w3.org/2000/svg" width="61.99" height="61.99" viewBox="0 0 61.99 61.99"><path fill="#9bac1c" d="M48.559 35.128a13.431 13.431 0 1 0 13.432 13.431 13.447 13.447 0 0 0-13.432-13.431m0 24.8a11.365 11.365 0 1 1 11.369-11.369 11.38 11.38 0 0 1-11.369 11.369M21.661 49.283a9.2 9.2 0 0 0 2.1-6.94 9.3 9.3 0 1 0-16.56 6.735 8.4 8.4 0 0 1 1.6 3.188 1.9 1.9 0 0 0 .232.533 3.066 3.066 0 0 0 1.545 4.927l.369 1.474a3.679 3.679 0 0 0 7.138 0l.37-1.475a3.065 3.065 0 0 0 1.541-4.93 1.9 1.9 0 0 0 .231-.553 7 7 0 0 1 1.44-2.959Zm-7.147 10.641a1.61 1.61 0 0 1-1.566-1.222l-.211-.844h3.553l-.212.844a1.61 1.61 0 0 1-1.565 1.222Zm3.1-4.133h-6.2a1.033 1.033 0 1 1 0-2.066h6.2a1.033 1.033 0 1 1 0 2.066m.627-4.133h-7.465a10.5 10.5 0 0 0-1.954-3.863 7.1 7.1 0 0 1-1.542-4.437 7.231 7.231 0 1 1 12.794 4.6 9.05 9.05 0 0 0-1.834 3.701ZM0 13.431a3.1 3.1 0 0 0 3.1 3.1h1.033v1.55a3.616 3.616 0 0 0 7.232 0v-1.55h5.166v1.55a3.616 3.616 0 0 0 7.232 0v-1.55H24.8a3.1 3.1 0 1 0 0-6.2h-1.037V8.782a3.616 3.616 0 0 0-7.232 0v1.55h-5.166v-1.55a3.616 3.616 0 0 0-7.232 0v1.55H3.1A3.1 3.1 0 0 0 0 13.431m24.8-1.033a1.033 1.033 0 1 1 0 2.066h-1.037v-2.066Zm-6.2-3.616a1.55 1.55 0 0 1 3.1 0v9.3a1.55 1.55 0 0 1-3.1 0Zm-2.066 3.616v2.068h-5.169v-2.068ZM6.2 8.782a1.55 1.55 0 0 1 3.1 0v9.3a1.55 1.55 0 0 1-3.1 0Zm-2.067 5.684H3.1a1.033 1.033 0 1 1 0-2.066h1.033ZM39.26 26.863h2.066a2.07 2.07 0 0 0 2.068-2.067v-12.4a2.07 2.07 0 0 0-2.067-2.064H39.26a2.07 2.07 0 0 0-2.066 2.066v12.4a2.07 2.07 0 0 0 2.066 2.065m0-14.464h2.066v12.4H39.26Zm8.266 2.065a2.07 2.07 0 0 0-2.066 2.066v8.265a2.07 2.07 0 0 0 2.066 2.069h2.066a2.07 2.07 0 0 0 2.068-2.068V16.53a2.07 2.07 0 0 0-2.067-2.066Zm0 10.332V16.53h2.066v8.265Zm10.332-6.199h-2.067a2.07 2.07 0 0 0-2.066 2.066v4.134a2.07 2.07 0 0 0 2.066 2.066h2.066a2.07 2.07 0 0 0 2.068-2.066v-4.134a2.07 2.07 0 0 0-2.067-2.066m-2.066 6.2v-4.134h2.066v4.133Z"/><path fill="#9bac1c" d="M48.559 54.758a1.035 1.035 0 1 0 1.033 1.037v-.008a1.03 1.03 0 0 0-1.033-1.029m0-15.498a1.03 1.03 0 0 0-1.033 1.033V51.66a1.033 1.033 0 0 0 2.066 0V40.293a1.03 1.03 0 0 0-1.033-1.033"/><path fill="#9bac1c" d="M60.957 29.962H32.028V1.033a1.033 1.033 0 0 0-2.066 0v28.929H1.033a1.033 1.033 0 1 0 0 2.066h28.929v28.929a1.033 1.033 0 0 0 2.066 0V32.028h28.929a1.033 1.033 0 0 0 0-2.066M58.403 8.954a1.032 1.032 0 0 0-1.947.688l.607 1.72-18.369-9.188a1.033 1.033 0 1 0-.925 1.848l18.484 9.244-1.84.651a1.032 1.032 0 1 0 .688 1.946l4.133-1.461a1.03 1.03 0 0 0 .629-1.317z"/></svg>