<svg xmlns="http://www.w3.org/2000/svg" width="55.975" height="55.956" viewBox="0 0 55.975 55.956"><path fill="#9bac1c" d="M23.335 3.733a19.584 19.584 0 1 0 19.583 19.584A19.584 19.584 0 0 0 23.335 3.733m0 1.865a17.7 17.7 0 0 1 14.469 7.529l-2.335 2.328a3.7 3.7 0 0 0-1.88-.532 3.73 3.73 0 0 0-3.73 3.73 3.7 3.7 0 0 0 .529 1.883l-6.106 6.106a3.62 3.62 0 0 0-3.766 0l-4.241-4.241a3.7 3.7 0 0 0 .529-1.883 3.723 3.723 0 0 0-7.328-.933H6.019A17.744 17.744 0 0 1 23.335 5.598m12.123 13.056a1.865 1.865 0 1 1-1.865-1.865 1.865 1.865 0 0 1 1.865 1.865m-11.189 11.19a1.865 1.865 0 1 1-1.865-1.865 1.865 1.865 0 0 1 1.865 1.865m-9.326-9.326a1.865 1.865 0 1 1-1.865-1.865 1.865 1.865 0 0 1 1.864 1.866Zm17 18.29A17.715 17.715 0 0 1 5.716 21.451h3.763a3.73 3.73 0 0 0 3.6 2.8 3.7 3.7 0 0 0 1.883-.529l4.241 4.241a3.7 3.7 0 0 0-.529 1.883 3.73 3.73 0 0 0 7.46 0 3.7 3.7 0 0 0-.529-1.883l6.106-6.106a3.7 3.7 0 0 0 1.883.529 3.73 3.73 0 0 0 3.73-3.73 3.7 3.7 0 0 0-.529-1.883l2.033-2.032a17.7 17.7 0 0 1-6.884 24.068Z"/><path fill="#9bac1c" d="M46.649 9.329a3.73 3.73 0 0 0 3.6-2.8h5.728V4.666h-5.73a3.722 3.722 0 0 0-7.328.933 3.7 3.7 0 0 0 .529 1.883L41.809 9.12a23.314 23.314 0 1 0-5.821 33.764l2.812 2.814 1.321 1.322 7.508 7.5a4.889 4.889 0 0 0 6.914-6.914l-7.507-7.507-1.319-1.319-2.817-2.81a23.24 23.24 0 0 0 0-25.306l1.865-1.865a3.7 3.7 0 0 0 1.884.53m0-5.6a1.865 1.865 0 1 1-1.865 1.865 1.865 1.865 0 0 1 1.865-1.86Zm6.575 45.2A3.024 3.024 0 0 1 49 53.254l-.049-.049-7.511-7.507 4.277-4.278ZM44.4 40.103l-4.279 4.277-2.581-2.582c.131-.1.255-.212.384-.315s.28-.228.419-.344c.2-.172.406-.345.6-.523l.3-.28q.574-.537 1.111-1.111l.28-.3q.267-.3.523-.6.175-.207.344-.419c.1-.129.214-.252.314-.383Zm-3.616-4.332q-.441.616-.917 1.2c-.093.113-.193.222-.289.333q-.428.5-.884.966-.2.205-.4.4-.466.456-.966.884c-.111.093-.22.195-.333.289-.387.32-.789.623-1.2.917a21.482 21.482 0 1 1 4.992-4.992Z"/></svg>