<svg xmlns="http://www.w3.org/2000/svg" width="53.022" height="57.585" viewBox="0 0 53.022 57.585"><path fill="#9bac1c" d="M26.811 25.342a11.447 11.447 0 1 0 11.447-11.447 11.46 11.46 0 0 0-11.447 11.447m21.262 0a9.815 9.815 0 1 1-9.815-9.815 9.826 9.826 0 0 1 9.815 9.815m4.949 0a14.79 14.79 0 0 0-8.916-13.555V8.034a.82.82 0 0 0-.239-.577L36.648.239A.82.82 0 0 0 36.071 0H8.227a.816.816 0 0 0-.816.816v16.793h-2a5.426 5.426 0 0 0-5.42 5.42v28.979a5.583 5.583 0 0 0 5.577 5.577h38.524a5.583 5.583 0 0 0 5.577-5.577V34.7a14.7 14.7 0 0 0 3.358-9.358Zm-1.632 0A13.132 13.132 0 1 1 38.258 12.21 13.147 13.147 0 0 1 51.39 25.342M23.56 37.933l2.106 2.106a.98.98 0 0 1 0 1.376l-9.679 9.679a.974.974 0 0 1-1.376 0l-2.106-2.106a.98.98 0 0 1 0-1.376l9.679-9.679a.98.98 0 0 1 1.376 0m3.008.7-1.6-1.6 2.086-2.086a15 15 0 0 0 1.6 1.6ZM36.887 2.786l4.432 4.433h-4.432ZM9.047 1.632h26.208v6.4a.816.816 0 0 0 .816.816h6.4v2.342A14.767 14.767 0 0 0 23.727 22.7h-3.945l-4.562-4.834a.82.82 0 0 0-.593-.256H9.048Zm35.045 54.321H5.577a3.95 3.95 0 0 1-3.95-3.945V23.029a3.79 3.79 0 0 1 3.788-3.788h8.855l4.562 4.834a.82.82 0 0 0 .593.256h4.1q-.035.501-.035 1.011a14.7 14.7 0 0 0 2.558 8.3l-2.477 2.477a2.6 2.6 0 0 0-.7-.1 2.6 2.6 0 0 0-1.842.761l-9.679 9.679a2.61 2.61 0 0 0 0 3.684l2.106 2.106a2.61 2.61 0 0 0 3.684 0l9.679-9.679a2.6 2.6 0 0 0 .761-1.842 2.6 2.6 0 0 0-.1-.7l2.477-2.477a14.734 14.734 0 0 0 18.08-1.158v15.615a3.95 3.95 0 0 1-3.945 3.945M13.646 5.947a.816.816 0 0 1 .816-.816h17.092a.816.816 0 1 1 0 1.632H14.462a.816.816 0 0 1-.816-.816m0 4.393a.816.816 0 0 1 .816-.816h12.152a.816.816 0 1 1 0 1.632H14.462a.816.816 0 0 1-.816-.816m8.381 5.209h-7.565a.816.816 0 1 1 0-1.632h7.565a.816.816 0 1 1 0 1.632"/></svg>