<svg xmlns="http://www.w3.org/2000/svg" width="62.002" height="62" viewBox="0 0 62.002 62"><g fill="#5aa6ff" transform="translate(-1 -1)"><path d="M60 45a3 3 0 0 0 3-3V4a3 3 0 0 0-3-3H4a3 3 0 0 0-3 3v38a3 3 0 0 0 3 3h17.6a17.08 17.08 0 0 0 8.176 6.805L26.586 55H23v-3a3 3 0 0 0-3-3H8a3 3 0 0 0-3 3v8a3 3 0 0 0 3 3h12a3 3 0 0 0 3-3v-3h4a1 1 0 0 0 .707-.293l4.221-4.221A16.7 16.7 0 0 0 44.989 50.4l2.6 2.6-.293.293a1 1 0 0 0 0 1.414l6.757 6.757a5.242 5.242 0 0 0 7.414-7.414l-6.757-6.757a1 1 0 0 0-1.414 0l-.3.293L50.414 45ZM21 60a1 1 0 0 1-1 1H8a1 1 0 0 1-1-1v-8a1 1 0 0 1 1-1h12a1 1 0 0 1 1 1ZM4 43a1 1 0 0 1-1-1V4a1 1 0 0 1 1-1h56a1 1 0 0 1 1 1v38a1 1 0 0 1-1 1h-8.526a16.937 16.937 0 0 0-8.549-22.511L48 15.414V18h2v-5a1 1 0 0 0-1-1h-5v2h2.586l-5.719 5.719a17 17 0 0 0-4.295-.69l-4.724-7.559A1 1 0 0 0 31 11h-4V8a3 3 0 0 0-3-3H12a3 3 0 0 0-3 3v8a3 3 0 0 0 3 3h12a3 3 0 0 0 3-3v-3h3.446l3.806 6.09a16.97 16.97 0 0 0-11.107 5.818l-1.4-1.573A1 1 0 0 0 21 23a1 1 0 0 0-.737.324l-11 12 1.474 1.352 10.252-11.184.909 1.024A16.78 16.78 0 0 0 19.281 39H7V12H5v28a1 1 0 0 0 1 1h13.753a17 17 0 0 0 .773 2ZM25 8v8a1 1 0 0 1-1 1H12a1 1 0 0 1-1-1V8a1 1 0 0 1 1-1h12a1 1 0 0 1 1 1m-4 28a15 15 0 1 1 15 15 15 15 0 0 1-15-15m39.05 19.464a3.243 3.243 0 1 1-4.586 4.586L49.414 54 54 49.414ZM49 51.586l-2.353-2.353a17 17 0 0 0 2.586-2.586L51.586 49Z"/><path d="M36 23a13 13 0 1 0 13 13 13 13 0 0 0-13-13m-.436 2.022-6.521 6.521-1.86-2.092a10.98 10.98 0 0 1 8.381-4.429M36 47a11 11 0 0 1-9.786-6H38v-2H25.426a10.83 10.83 0 0 1 .672-7.759l2.154 2.424a1 1 0 0 0 .719.335H29a1 1 0 0 0 .707-.293l8.486-8.486A11 11 0 0 1 36 47M13 9h10v2H13Zm0 4h10v2H13ZM9 53h10v2H9Zm0 4h10v2H9Z"/></g></svg>