<svg xmlns="http://www.w3.org/2000/svg" width="104" height="104" viewBox="0 0 104 104"><g fill="#9bac1c" transform="translate(-591 -2380.285)"><path d="M643 2382.285a50.014 50.014 0 0 0-19.462 96.072 50.014 50.014 0 0 0 38.924-92.144 49.7 49.7 0 0 0-19.462-3.928m0-2a52 52 0 1 1-52 52 52 52 0 0 1 52-52"/><g transform="translate(606 2400.732)"><path d="M35.526 26.702a4 4 0 0 0-3.99-3.99h-4.217l-3.711-3.759a5.97 5.97 0 0 0-6.943-1.134L6.482 22.953c-1.287.749-3.739.484-5.177.524A1.314 1.314 0 0 0 0 24.798l.209 15.686a1.3 1.3 0 0 0 1.057 1.263c-.058-.061 1.918.454 3.629.756a1.308 1.308 0 0 0 .295-2.576c-.953-.223-1.782-.4-2.385-.529l-.178-13.313a9.93 9.93 0 0 0 5.033-.806l10.18-5.126a3.365 3.365 0 0 1 3.913.64l5.135 5.2a1.07 1.07 0 0 1-.006 1.515l-4.926 4.991a1.329 1.329 0 0 1-2.006-1.731l2.83-3.717a1.353 1.353 0 1 0-1.941-1.755 8.3 8.3 0 0 1-1.787-1.958 1.305 1.305 0 1 0-2.476.825c.18.544.662 1.4 2.672 3.218l-1.379 1.812a3.943 3.943 0 0 0 4.587 6.027 1.3 1.3 0 0 0 1.212.845h6.142a1.382 1.382 0 1 1 0 2.764s-7.347-.012-7.389-.007a3.834 3.834 0 0 0-3.8 3.785 3.9 3.9 0 0 0 .173 1.153 13 13 0 0 1-4.234-.851 29.5 29.5 0 0 0-4.06-1.548 1.306 1.306 0 0 0-.777 2.493 27 27 0 0 1 3.7 1.4c1.783.906 5.357 1.281 9.86 1.239 4.336-.388 8.774.811 9.252-3.98a3.65 3.65 0 0 0-.475-1.775 4.02 4.02 0 0 0 1.04-5.541 4.31 4.31 0 0 0 .813-5.313 3.97 3.97 0 0 0 1.609-3.182Zm-2.61 0c-.05 1.779-2.153 1.338-3.363 1.38a3.7 3.7 0 0 0-.032-2.76h2.015a1.38 1.38 0 0 1 1.38 1.38m-1.073 5.068c.073.813-.115 1.643-1.085 1.681h-6.08l2.722-2.759h2.747c.812-.071 1.654.1 1.694 1.078Zm-2.93 11.82a49 49 0 0 1-6.572.221 1.192 1.192 0 0 1 .08-2.379c1.5 0 4.921.011 6.452.006a1.078 1.078 0 0 1 .04 2.153Z"/><path d="M12.625 34.636a1.305 1.305 0 1 0-.325-2.59 6.18 6.18 0 0 1-3.884-.6 1.3 1.3 0 0 0-1.78.486c-1.084 2.628 4.245 2.985 5.989 2.704m60.08-10.772a1.3 1.3 0 0 0-.929-.389h-2.949a5.76 5.76 0 0 1-2.918-.876 1.305 1.305 0 1 0-1.187 2.325 9.77 9.77 0 0 0 5.731 1.161l-.177 13.308a59.7 59.7 0 0 0-11.753 3.514 13 13 0 0 1-4.238.854 4.1 4.1 0 0 0 .17-1.388 3.82 3.82 0 0 0-3.795-3.551c-.588.006-7.007-.005-7.389.006a1.382 1.382 0 1 1 0-2.764h6.142a1.3 1.3 0 0 0 1.212-.844 3.933 3.933 0 0 0 4.584-6.032l-1.377-1.805c2.012-1.821 2.494-2.676 2.674-3.22a1.306 1.306 0 0 0-2.476-.827 8.1 8.1 0 0 1-1.789 1.962 1.334 1.334 0 1 0-1.939 1.753l2.827 3.712a1.33 1.33 0 0 1-2 1.743l-4.939-5a1.07 1.07 0 0 1 .006-1.514l5.128-5.192a3.36 3.36 0 0 1 3.913-.642l4.267 2.154a1.305 1.305 0 1 0 1.176-2.33l-4.265-2.163a5.97 5.97 0 0 0-6.944 1.134l-3.709 3.756h-4.216a3.994 3.994 0 0 0-2.381 7.173 4.31 4.31 0 0 0 .812 5.313 4.023 4.023 0 0 0 1.045 5.543 3.694 3.694 0 0 0 2.924 5.451c3.5.424 13.555.543 15.718-.937 4.02-1.96 12.064-3.49 12.145-3.506a1.3 1.3 0 0 0 1.064-1.264l.212-15.684a1.3 1.3 0 0 0-.376-.934Zm-30.388 6.828h3.362l2.723 2.761h-6.079c-1.486.025-1.513-2.769-.006-2.759Zm-.771-5.371h2.016a3.7 3.7 0 0 0-.035 2.76h-1.981a1.38 1.38 0 1 1 0-2.761Zm10.3 17.285a1.2 1.2 0 0 1-1.1 1.2 49.5 49.5 0 0 1-6.595-.222 1.079 1.079 0 0 1 .055-2.151l6.452-.006a1.17 1.17 0 0 1 1.188 1.175Z"/><path d="M59.323 33.179c-.156 1.486 1.49 1.579 2.56 1.55 1.662-.056 5.512-.519 4.561-2.791a1.3 1.3 0 0 0-1.781-.489 6.2 6.2 0 0 1-3.884.6 1.307 1.307 0 0 0-1.456 1.13M24.463 14.48a1.304 1.304 0 1 0 2.3-1.231l-2.3-4.3a1.304 1.304 0 1 0-2.3 1.231Zm22.389.535a1.307 1.307 0 0 0 1.766-.535l2.3-4.3a1.304 1.304 0 0 0-2.3-1.231l-2.3 4.3a1.3 1.3 0 0 0 .534 1.766M28.686 8.868a1.305 1.305 0 1 0 2.436-.938l-1.344-3.489a1.305 1.305 0 1 0-2.436.938Zm14.023.749a1.31 1.31 0 0 0 1.687-.749l1.343-3.487a1.305 1.305 0 1 0-2.435-.938l-1.343 3.488a1.305 1.305 0 0 0 .749 1.687Zm-6.168-3.926a1.3 1.3 0 0 0 1.305-1.305V1.305a1.305 1.305 0 1 0-2.61 0v3.082a1.3 1.3 0 0 0 1.305 1.304M26.23 50.858a1.3 1.3 0 0 0-1.766.535l-2.3 4.3a1.304 1.304 0 1 0 2.3 1.231l2.3-4.3a1.3 1.3 0 0 0-.534-1.766m22.388.531a1.304 1.304 0 1 0-2.3 1.231l2.3 4.3a1.304 1.304 0 1 0 2.3-1.231ZM30.37 56.256a1.31 1.31 0 0 0-1.687.749l-1.343 3.488a1.305 1.305 0 1 0 2.435.938l1.343-3.488a1.305 1.305 0 0 0-.748-1.687m14.025.75a1.305 1.305 0 1 0-2.436.938l1.343 3.488a1.305 1.305 0 1 0 2.436-.938Zm-7.854 3.176a1.3 1.3 0 0 0-1.305 1.305v3.082a1.305 1.305 0 1 0 2.61 0v-3.082a1.3 1.3 0 0 0-1.305-1.305"/></g></g></svg>