<svg xmlns="http://www.w3.org/2000/svg" width="104" height="104" viewBox="0 0 104 104"><g fill="#9bac1c" transform="translate(-279 -2380)"><path d="M331 2382a50.014 50.014 0 0 0-19.462 96.072 50.014 50.014 0 0 0 38.924-92.144A49.7 49.7 0 0 0 331 2382m0-2a52 52 0 1 1-52 52 52 52 0 0 1 52-52"/><g transform="translate(299 2400.131)"><g transform="translate(1.06)"><path d="M1.072 46.83a1.071 1.071 0 0 1-.74-1.846l10.464-10.016a1.072 1.072 0 0 1 1.482 1.55L1.814 46.534a1.07 1.07 0 0 1-.742.3Zm36.465-33.958a6.433 6.433 0 1 1 6.433-6.433 6.44 6.44 0 0 1-6.433 6.433m0-10.721a4.288 4.288 0 1 0 4.288 4.288 4.293 4.293 0 0 0-4.288-4.288"/><path d="M12.931 47.253a1.073 1.073 0 0 1-.763-1.827l7.655-7.743-6.915-4.426a6.433 6.433 0 0 1-1.696-9.254l9-12.126-3.181-4.269-5.157 4.473a3.216 3.216 0 0 1-4.23-4.844L15.052.803a3.19 3.19 0 0 1 4.173-.049l6.435 5.361q.149.128.285.268l4.391 4.707a1.073 1.073 0 1 1-1.567 1.465l-4.385-4.7-6.532-5.452a1.06 1.06 0 0 0-1.387.013L9.053 8.852a1.071 1.071 0 1 0 1.411 1.612l6.035-5.232a1.1 1.1 0 0 1 .821-.255 1.07 1.07 0 0 1 .744.427l4.325 5.661a1.074 1.074 0 0 1 .084 1.379l-9.535 12.841a4.29 4.29 0 0 0 1.13 6.169l8.03 5.14a1.07 1.07 0 0 1 .184 1.657l-8.583 8.687a1.1 1.1 0 0 1-.763.315Z"/></g><g transform="translate(9.382 15.013)"><path d="M5.153 49.296a1.072 1.072 0 0 1-.738-1.85l16.057-15.21a1.072 1.072 0 0 1 1.475 1.557L5.891 49.002a1.07 1.07 0 0 1-.738.294m-4.083-2.28a1.071 1.071 0 0 1-.8-1.788l12.881-14.32a1.072 1.072 0 0 1 1.593 1.434L1.868 46.662a1.07 1.07 0 0 1-.8.354Zm43.154-34.147a6.433 6.433 0 1 1 6.433-6.433 6.44 6.44 0 0 1-6.433 6.433m0-10.721a4.288 4.288 0 1 0 4.288 4.288 4.293 4.293 0 0 0-4.288-4.288"/><path d="M23.765 49.235a1.072 1.072 0 0 1-.618-1.949l11.94-8.424a2.13 2.13 0 0 0 .755-1.743 2.15 2.15 0 0 0-.976-1.694l-6.87-5.065a1.07 1.07 0 0 1-.154-1.587l7.938-8.637a1 1 0 0 1 .365-.384 1.05 1.05 0 0 1 1.2.032l7.035 5.5a1.27 1.27 0 0 0 .913.455 1.1 1.1 0 0 0 .808-.367l6.827-7.777a1.07 1.07 0 0 0-.1-1.512 1.13 1.13 0 0 0-.776-.264 1.07 1.07 0 0 0-.738.365l-5.268 5.989a1.07 1.07 0 0 1-.789.365 1.23 1.23 0 0 1-.8-.341L31.069 7.85l-6.53-5.448a1.06 1.06 0 0 0-1.387.013l-7.777 6.627a1.072 1.072 0 0 0 1.421 1.606l6.4-5.425a1.05 1.05 0 0 1 .815-.247 1.07 1.07 0 0 1 .738.425l4.325 5.661a1.074 1.074 0 0 1 .084 1.379l-9.533 12.841a4.29 4.29 0 0 0 1.13 6.169l8.03 5.14a1.07 1.07 0 0 1 .184 1.657l-8.588 8.686a1.072 1.072 0 1 1-1.525-1.507l7.655-7.743-6.915-4.425a6.433 6.433 0 0 1-1.7-9.257l9-12.126-3.186-4.274-5.514 4.674a3.215 3.215 0 0 1-4.22-4.852L21.749.796a3.19 3.19 0 0 1 4.164-.043l6.435 5.361q.148.128.285.268L45.22 19.87l4.486-5.1a3.2 3.2 0 0 1 2.209-1.089 3.13 3.13 0 0 1 2.329.789 3.22 3.22 0 0 1 .3 4.537l-6.829 7.779a3.22 3.22 0 0 1-4.773.073l-6.077-4.73-6.634 7.22 5.856 4.321a4.288 4.288 0 0 1 .285 6.915l-11.987 8.457a1.1 1.1 0 0 1-.62.193"/></g><path d="M5.361 21.449H1.072a1.072 1.072 0 0 1 0-2.144h4.289a1.072 1.072 0 0 1 0 2.144M9.649 2.151H1.072a1.072 1.072 0 0 1 0-2.144h8.577a1.072 1.072 0 0 1 0 2.144m2.139 15.01H5.36a1.072 1.072 0 0 1 0-2.144h6.428a1.072 1.072 0 0 1 0 2.144"/></g></g></svg>