<svg xmlns="http://www.w3.org/2000/svg" width="54.019" height="44.101" viewBox="0 0 54.019 44.101"><path fill="#986f1c" d="M1.931 43.115h7.55a1.93 1.93 0 0 0 1.8-1.168 11.7 11.7 0 0 0 3.7 1.178l9.433.965a8 8 0 0 0 .84 0 8 8 0 0 0 2.134-.28l13.114-3.486a3.7 3.7 0 0 0 .888-6.758 3.66 3.66 0 0 0-2.81-.367l-5.677 1.516a3.07 3.07 0 0 0-3.843-3.36c-2.9.782-3.138.386-4.412-1.776l-.261-.444a7.02 7.02 0 0 0-9.655-2.172 4.83 4.83 0 0 1-3.2.9l-.261-.077A3.29 3.29 0 0 0 8.1 25.234H1.931A1.98 1.98 0 0 0 0 27.165v13.97a1.98 1.98 0 0 0 1.931 1.98m13.884-14.483a5.09 5.09 0 0 1 6.961 1.545l.251.415c1.477 2.51 2.443 3.765 6.575 2.655a1.139 1.139 0 0 1 .589 2.2s-2.9.821-3.862 1.081a.965.965 0 1 0 .5 1.863l12.31-3.3a1.753 1.753 0 1 1 .9 3.389l-13.159 3.5a6.3 6.3 0 0 1-2.279.183l-9.433-.965a10.3 10.3 0 0 1-3.707-1.3V29.704a7.23 7.23 0 0 0 4.354-1.12ZM1.883 27.175h6.2a1.4 1.4 0 0 1 1.4 1.4v12.609l-7.6-.048Zm21.744-2.656a8.97 8.97 0 0 0 8.689-7.048 7 7 0 0 0 1.323.512 6.8 6.8 0 0 0 1.805.241 7.1 7.1 0 0 0 3.727-1.062 4.83 4.83 0 0 1 3.263-.888l.261.068a3.29 3.29 0 0 0 3.176 2.559h6.218a1.98 1.98 0 0 0 1.931-1.979V2.97A1.98 1.98 0 0 0 52.089.991h-7.6a1.93 1.93 0 0 0-1.8 1.168 11.5 11.5 0 0 0-3.7-1.188L29.505.006c-4.161-.193-14.772 4.345-15.148 4.518a3.65 3.65 0 0 0-2.13 1.854 3.74 3.74 0 0 0-.193 2.829 3.67 3.67 0 0 0 1.863 2.134 3.55 3.55 0 0 0 1.786.328 8.8 8.8 0 0 0-.965 3.949 8.92 8.92 0 0 0 8.911 8.9Zm0-1.931a6.98 6.98 0 0 1-6.971-6.971 6.87 6.87 0 0 1 1.863-4.721l4.335-1.554-.628.56c-.666.647-1.931 1.844-1.468 3.418a2.9 2.9 0 0 0 .57 1.12 2.394 2.394 0 0 0 2.3 1.834.483.483 0 1 1 0 .965.44.44 0 0 1-.338-.145.97.97 0 0 0-1.373 1.372 2.5 2.5 0 0 0 .743.492.966.966 0 0 0 1.931 0 2.394 2.394 0 0 0 .7-3.93l.261-.116c2.665-1.245 3.147-1.342 3.987.058a7 7 0 0 0 1.014 1.217 7.02 7.02 0 0 1-6.926 6.401M44.49 2.922l7.6.048v14.009h-6.249a1.41 1.41 0 0 1-1.4-1.41Zm-29.737 6.69a1.786 1.786 0 0 1-.8-2.375 1.86 1.86 0 0 1 1.091-.965c2.954-1.255 11.325-4.5 14.328-4.383l9.421.967a10.2 10.2 0 0 1 3.717 1.3v10.235a7.2 7.2 0 0 0-4.354 1.13 5.1 5.1 0 0 1-6.971-1.554c-1.776-2.974-4.045-1.931-6.449-.8l-.908.425a.965.965 0 0 1-1.207-.772c-.135-.483.521-1.11.965-1.535l4.432-3.862a7.3 7.3 0 0 1 3.292-1.448.966.966 0 0 0 0-1.931 8.6 8.6 0 0 0-4.325 1.786L16.127 9.69a1.73 1.73 0 0 1-1.374-.078"/><path fill="#986f1c" d="M5.986 27.86a2.732 2.732 0 1 0 2.723 2.732 2.73 2.73 0 0 0-2.723-2.732m0 3.524a.8.8 0 1 1 .792-.792.81.81 0 0 1-.792.821ZM47.82 16.612a2.723 2.723 0 1 0-1.931-.794 2.72 2.72 0 0 0 1.931.794m0-3.514a.792.792 0 1 1-.8.792.81.81 0 0 1 .8-.792"/></svg>