<svg xmlns="http://www.w3.org/2000/svg" width="84" height="84" viewBox="0 0 84 84"><g transform="translate(-231.348 -931.521)"><rect width="84" height="84" fill="#ffe3ac" rx="5" transform="translate(231.348 931.521)"/><path fill="#feba30" d="M303.514 990.49v6.01a7.2 7.2 0 0 1-7.193 7.188h-6a2.357 2.357 0 0 1 0-4.714h6a2.48 2.48 0 0 0 2.48-2.475v-6.01a2.357 2.357 0 0 1 4.714 0Zm-2.08-44.946a7.07 7.07 0 0 0-5.113-2.19h-6a2.357 2.357 0 0 0 0 4.714h6a2.57 2.57 0 0 1 2.48 2.592v6.01a2.357 2.357 0 0 0 4.714 0v-6.01a7.32 7.32 0 0 0-2.081-5.116m-44.937 53.43h-6.123a2.48 2.48 0 0 1-2.48-2.475v-6.01a2.357 2.357 0 0 0-4.714 0v6.01a7.2 7.2 0 0 0 7.193 7.188h6.122a2.357 2.357 0 0 0 0-4.714Zm0-55.62h-6.123a7.07 7.07 0 0 0-5.112 2.19 7.32 7.32 0 0 0-2.081 5.116v6.01a2.357 2.357 0 0 0 4.714 0v-6.01a2.57 2.57 0 0 1 2.48-2.592h6.122a2.357 2.357 0 0 0 0-4.714m21.564 27.81h-2.356v-2.357a2.357 2.357 0 1 0-4.714 0v2.357h-2.357a2.357 2.357 0 0 0-2.353 2.357 2.357 2.357 0 0 0 2.357 2.357h2.353v2.356a2.357 2.357 0 0 0 4.714 0v-2.356h2.356a2.357 2.357 0 0 0 2.357-2.357 2.357 2.357 0 0 0-2.357-2.357"/></g></svg>