<svg xmlns="http://www.w3.org/2000/svg" width="66.424" height="74.37" viewBox="0 0 66.424 74.37"><path fill="#5aa6ff" d="M51.174 24.741a1.453 1.453 0 0 1-1.453-1.453v-9.931a1.453 1.453 0 0 1 2.905 0v9.932a1.453 1.453 0 0 1-1.452 1.452"/><circle cx="1.453" cy="1.453" r="1.453" fill="#5aa6ff" transform="translate(49.715 7.23)"/><path fill="#5aa6ff" d="M66.424 15.26A15.249 15.249 0 0 0 41.901 3.144H5.286A5.29 5.29 0 0 0 0 8.43v52.84a5.29 5.29 0 0 0 5.286 5.286h4.609v2.527a5.29 5.29 0 0 0 5.286 5.286H53.16a5.29 5.29 0 0 0 5.288-5.285V48.937a1.453 1.453 0 0 0-2.905 0v20.147a2.384 2.384 0 0 1-2.381 2.381h-37.98a2.384 2.384 0 0 1-2.381-2.381v-2.527h30.464a5.29 5.29 0 0 0 5.283-5.287V30.3a15.3 15.3 0 0 0 6.99-.414V35.8a1.453 1.453 0 0 0 2.905 0v-7.131a15.27 15.27 0 0 0 7.981-13.409M45.648 61.27a2.384 2.384 0 0 1-2.381 2.381H5.286a2.384 2.384 0 0 1-2.381-2.381V8.43a2.384 2.384 0 0 1 2.381-2.381H39.01a15.2 15.2 0 0 0-3.086 8.566H11.188a1.453 1.453 0 0 0-1.453 1.453V22.2a1.453 1.453 0 0 0 1.453 1.453h26.175a1.45 1.45 0 0 0 .879-.3 15.35 15.35 0 0 0 7.406 6.133Zm-9.736-43.75v3.23H12.641v-3.23Zm15.255 10.095A12.355 12.355 0 1 1 63.519 15.26a12.367 12.367 0 0 1-12.352 12.355"/><path fill="#5aa6ff" d="M56.993 43.797a1.453 1.453 0 1 1 1.415-1.123 1.466 1.466 0 0 1-1.415 1.123M37.359 31.612h-26.17a1.453 1.453 0 0 1 0-2.905h26.17a1.453 1.453 0 1 1 0 2.905m0 6.889h-26.17a1.453 1.453 0 0 1 0-2.905h26.17a1.453 1.453 0 1 1 0 2.905m0 6.892h-26.17a1.453 1.453 0 0 1 0-2.905h26.17a1.453 1.453 0 0 1 0 2.905m0 6.887h-26.17a1.453 1.453 0 0 1 0-2.905h26.17a1.453 1.453 0 1 1 0 2.905"/></svg>