<svg xmlns="http://www.w3.org/2000/svg" width="104" height="104" viewBox="0 0 104 104"><g fill="#5aa6ff" transform="translate(-406.348 -2303.08)"><path d="M458.348 2305.08a50.014 50.014 0 0 0-19.462 96.072 50.014 50.014 0 0 0 38.924-92.144 49.7 49.7 0 0 0-19.462-3.928m0-2a52 52 0 1 1-52 52 52 52 0 0 1 52-52"/><path d="M458.67 2350.697a12.017 12.017 0 1 0 12.016-12.014 12.03 12.03 0 0 0-12.016 12.014m22.32 0a10.3 10.3 0 1 1-10.3-10.3 10.315 10.315 0 0 1 10.3 10.3m5.2 0a15.52 15.52 0 0 0-9.36-14.23v-3.936a.86.86 0 0 0-.251-.606l-7.582-7.577a.86.86 0 0 0-.606-.251h-29.225a.857.857 0 0 0-.857.857v17.629h-2.1a5.7 5.7 0 0 0-5.689 5.689v30.425a5.86 5.86 0 0 0 5.854 5.854h40.437a5.86 5.86 0 0 0 5.854-5.854v-18.174a15.43 15.43 0 0 0 3.52-9.826Zm-1.713 0a13.785 13.785 0 1 1-13.791-13.783 13.8 13.8 0 0 1 13.786 13.783Zm-29.219 13.22 2.211 2.211a1.027 1.027 0 0 1 0 1.444l-10.161 10.161a1.023 1.023 0 0 1-1.444 0l-2.212-2.211a1.027 1.027 0 0 1 0-1.444l10.161-10.161a1.027 1.027 0 0 1 1.444 0Zm3.158.735-1.682-1.682 2.19-2.19a15.6 15.6 0 0 0 1.682 1.682Zm10.836-37.631 4.653 4.653h-4.653Zm-29.229-1.211h27.511v6.721a.857.857 0 0 0 .857.857h6.721v2.458a15.5 15.5 0 0 0-19.675 12.079h-4.146l-4.789-5.074a.86.86 0 0 0-.623-.269h-5.856Zm36.788 57.024h-40.432a4.146 4.146 0 0 1-4.141-4.137v-30.425a3.98 3.98 0 0 1 3.976-3.975h9.3l4.789 5.074a.86.86 0 0 0 .623.269h4.3c-.024.351-.037.7-.037 1.061a15.4 15.4 0 0 0 2.685 8.709l-2.6 2.6a2.8 2.8 0 0 0-.737-.1 2.72 2.72 0 0 0-1.934.8l-10.162 10.156a2.74 2.74 0 0 0 0 3.867l2.211 2.212a2.74 2.74 0 0 0 3.867 0l10.16-10.161a2.72 2.72 0 0 0 .8-1.934 2.8 2.8 0 0 0-.1-.737l2.6-2.6a15.47 15.47 0 0 0 18.973-1.216v16.4a4.146 4.146 0 0 1-4.141 4.141Zm-31.959-52.494a.857.857 0 0 1 .857-.857h17.943a.857.857 0 1 1 0 1.713h-17.946a.857.857 0 0 1-.854-.856m0 4.612a.857.857 0 0 1 .854-.855h12.757a.857.857 0 1 1 0 1.713h-12.757a.857.857 0 0 1-.854-.859Zm8.8 5.468h-7.946a.857.857 0 1 1 0-1.713h7.939a.857.857 0 0 1 0 1.713Z"/></g></svg>