<svg xmlns="http://www.w3.org/2000/svg" width="104" height="104" viewBox="0 0 104 104"><g fill="#5aa6ff" transform="translate(-5000.639 9446.26)"><path d="M5052.639-9444.26a50.014 50.014 0 0 0-19.462 96.072 50.014 50.014 0 0 0 38.924-92.144 49.7 49.7 0 0 0-19.462-3.928m0-2a52 52 0 1 1-52 52 52 52 0 0 1 52-52"/><path d="M5061.619-9402.794a.92.92 0 0 1 .921-.921h17.83a.922.922 0 1 1 0 1.843h-17.826a.92.92 0 0 1-.925-.922m-39.3-7.588a12.97 12.97 0 1 1 12.97 12.97 12.985 12.985 0 0 1-12.97-12.97m24.059.926h-9.477l4.8 8.167a11.13 11.13 0 0 0 4.676-8.163Zm-10.167-12.015v10.168h10.168a11.145 11.145 0 0 0-10.168-10.168m-12.049 11.089a11.126 11.126 0 0 0 15.952 10.03l-5.619-9.559a.9.9 0 0 1-.127-.467v-11.093a11.14 11.14 0 0 0-10.206 11.089m38.382-10.524h17.826a.922.922 0 1 0 0-1.843h-17.826a.922.922 0 0 0 0 1.843m0 3.858h8.913a.922.922 0 1 0 0-1.843h-8.913a.922.922 0 1 0 0 1.843m-10.1-.318v-5.065a.92.92 0 0 1 .918-.921h5.064a.92.92 0 0 1 .921.921v5.064a.92.92 0 0 1-.921.921h-5.064a.92.92 0 0 1-.921-.921Zm1.843-.921h3.221v-3.222h-3.224Zm8.26 6.9h17.823a.922.922 0 1 0 0-1.843h-17.826a.922.922 0 1 0 0 1.843Zm0 3.858h8.913a.922.922 0 1 0 0-1.843h-8.916a.922.922 0 1 0 0 1.843Zm-10.1-.318v-5.067a.92.92 0 0 1 .921-.921h5.064a.92.92 0 0 1 .921.921v5.062a.92.92 0 0 1-.921.921h-5.07a.92.92 0 0 1-.921-.921Zm1.843-.921h3.221v-3.224h-3.227Zm-23.998 22.429v21.037a.92.92 0 0 1-.921.921h-6.131a.92.92 0 0 1-.921-.921v-21.037a.92.92 0 0 1 .921-.921h6.13a.92.92 0 0 1 .922.921m-1.843.921h-4.287v19.195h4.287Zm52.279 15.7-2.352 2.424a2 2 0 0 1-2.828.042l-6.515-6.322a2 2 0 0 1-.451-2.208l-2.507-2.433a12.8 12.8 0 0 1-2.887 1.625v11.288a.92.92 0 0 1-.921.921h-6.13a.92.92 0 0 1-.921-.921v-10.775a12.7 12.7 0 0 1-3.152-1.292v12.067a.92.92 0 0 1-.921.921h-6.13a.92.92 0 0 1-.921-.921v-17.927a.92.92 0 0 1 .921-.921h1.376a12.78 12.78 0 0 1 6.052-15.6v-3.647a.92.92 0 0 1 .921-.921h5.064a.92.92 0 0 1 .921.921v2.192a12.7 12.7 0 0 1 4.857 1.348h7.252a.922.922 0 0 1 0 1.843h-4.55a12.764 12.764 0 0 1 2.427 16.229l2.616 2.533a2 2 0 0 1 2.221.384l6.515 6.322a2 2 0 0 1 .043 2.828m-12.481-10.554q-.369.442-.776.85l2.294 2.226.8-.825Zm-13.963-20.28a12.7 12.7 0 0 1 3.221-.657v-1.267h-3.221Zm-6.8 12.1a10.943 10.943 0 1 0 10.945-10.944 10.955 10.955 0 0 0-10.942 10.944Zm2.735 9.791a12.9 12.9 0 0 1-3-3.647h-1.287v16.085h4.287Zm11.125 2.657a12.8 12.8 0 0 1-4.287.262v9.519h4.287Zm18.058 4.784-6.515-6.322a.15.15 0 0 0-.109-.043.15.15 0 0 0-.11.046l-2.352 2.424a.16.16 0 0 0 0 .222l6.515 6.322a.16.16 0 0 0 .222 0l2.352-2.424a.16.16 0 0 0-.003-.224Zm-38.464-20.5v26.418a.92.92 0 0 1-.921.921h-6.13a.92.92 0 0 1-.921-.921v-26.416a.92.92 0 0 1 .921-.921h6.132a.92.92 0 0 1 .918.921Zm-1.843.921h-4.288v24.576h4.287Zm9.774 2.347a9.56 9.56 0 1 1 9.56 9.56 9.57 9.57 0 0 1-9.56-9.56m9.56 7.717a7.68 7.68 0 0 0 5.012-1.856 5.112 5.112 0 0 0-10.024 0 7.68 7.68 0 0 0 5.012 1.855Zm0-7.805a2.129 2.129 0 1 0-2.129-2.129 2.13 2.13 0 0 0 2.129 2.128Zm-7.717.088a7.67 7.67 0 0 0 1.274 4.24 6.94 6.94 0 0 1 3.576-3.713 3.971 3.971 0 1 1 5.735 0 6.94 6.94 0 0 1 3.576 3.713 7.715 7.715 0 1 0-14.161-4.24"/></g></svg>