<svg xmlns="http://www.w3.org/2000/svg" width="85" height="85" viewBox="0 0 85 85"><g transform="translate(-297.345 -776.142)"><path fill="#fff8ea" d="M339.678 776.479a42.332 42.332 0 1 1-42.328 42.332 42.33 42.33 0 0 1 42.333-42.332"/><g fill="#481d1d" transform="translate(364.002 776.479)"><path d="m.848 8.46-.74-.673 7.17-7.884.74.673Z"/><path d="M7.548 8.255-.336 1.087l.672-.74 7.885 7.17ZM.869 19.56l-.74-.673 7.17-7.884.74.673Z"/><path d="m7.569 19.355-7.884-7.168.672-.74 7.885 7.17Zm3.38-11.134-.74-.673 7.17-7.884.74.673Z"/><path d="M17.649 8.016 9.765.848l.672-.74 7.885 7.17ZM10.97 19.321l-.74-.673 7.17-7.884.74.673Z"/><path d="m17.67 19.116-7.884-7.168.672-.74 7.885 7.17Z"/></g><path fill="#feba30" d="M318.224 814.093a1 1 0 0 0 .225.027.9.9 0 0 0 .873-.675 20.65 20.65 0 0 1 14.857-14.859.902.902 0 0 0-.45-1.746 22.49 22.49 0 0 0-16.15 16.155.9.9 0 0 0 .648 1.1Zm42.264 9.054a.9.9 0 0 0-1.1.648 20.65 20.65 0 0 1-14.857 14.859.9.9 0 0 0 .225 1.773.6.6 0 0 0 .225-.027 22.49 22.49 0 0 0 16.155-16.155.9.9 0 0 0-.648-1.098m-26.309 15.507a20.65 20.65 0 0 1-14.857-14.859.902.902 0 0 0-1.746.45 22.48 22.48 0 0 0 16.155 16.155 1 1 0 0 0 .225.027.9.9 0 0 0 .225-1.773Zm10.352-40.068a20.65 20.65 0 0 1 14.859 14.857.9.9 0 0 0 .873.675.6.6 0 0 0 .225-.027.9.9 0 0 0 .648-1.1 22.49 22.49 0 0 0-16.155-16.148.902.902 0 1 0-.45 1.746Zm-5.175 3.834a2.71 2.71 0 0 0 2.7-2.7v-5.4a2.7 2.7 0 0 0-5.4 0v5.4a2.71 2.71 0 0 0 2.7 2.7m-.9-8.1a.9.9 0 1 1 1.8 0v5.4a.9.9 0 1 1-1.8 0Zm.9 40.5a2.71 2.71 0 0 0-2.7 2.7v5.4a2.7 2.7 0 0 0 5.4 0v-5.4a2.71 2.71 0 0 0-2.7-2.7m.9 8.1a.9.9 0 1 1-1.8 0v-5.4a.9.9 0 0 1 1.8 0Zm23.4-27h-5.4a2.7 2.7 0 0 0 0 5.4h5.4a2.7 2.7 0 0 0 0-5.4m0 3.6h-5.4a.9.9 0 0 1 0-1.8h5.4a.9.9 0 1 1 0 1.8m-40.5-.9a2.71 2.71 0 0 0-2.7-2.7h-5.4a2.7 2.7 0 0 0 0 5.4h5.4a2.71 2.71 0 0 0 2.7-2.7m-9 0a.9.9 0 0 1 .9-.9h5.4a.9.9 0 1 1 0 1.8h-5.4a.9.9 0 0 1-.9-.9m25.2-1.8a6.3 6.3 0 1 0-6.3-6.3 6.307 6.307 0 0 0 6.3 6.3m0-10.8a4.5 4.5 0 1 1-4.5 4.5 4.5 4.5 0 0 1 4.5-4.5m2.961 11.961-2.961 2.961-2.961-2.961a.9.9 0 0 0-.639-.261 7.21 7.21 0 0 0-7.2 7.2v3.816a.89.89 0 0 0 .351.711 17.065 17.065 0 0 0 20.9 0 .91.91 0 0 0 .351-.711v-3.816a7.21 7.21 0 0 0-7.202-7.2.93.93 0 0 0-.639.261m6.039 6.939v3.366a15.27 15.27 0 0 1-18 0v-3.366a5.416 5.416 0 0 1 5.04-5.391l3.321 3.321a.9.9 0 0 0 1.269 0l3.321-3.321a5.41 5.41 0 0 1 5.04 5.391Z"/></g></svg>