<svg xmlns="http://www.w3.org/2000/svg" width="60.906" height="61.863" viewBox="0 0 60.906 61.863"><path fill="#feba30" d="M60.163 26.499a4.43 4.43 0 0 0-2.744-1.889 4.456 4.456 0 0 0-2.972-6.424 4.47 4.47 0 0 0-.231-4.539 4.43 4.43 0 0 0-2.744-1.889 4.461 4.461 0 0 0-6.413-5.792l-4.441 2.942a27.8 27.8 0 0 0-7.5-2.538 20.6 20.6 0 0 0-2.862-3.462L28.42 1.127a4.02 4.02 0 0 0-6.15 5.106l.142.22a27.983 27.983 0 1 0 31.9 36.931.963.963 0 1 0-1.813-.652 26.094 26.094 0 0 1-32.745 15.881l7.826-5.183 6.5-4.307a2.624 2.624 0 0 0 .739-3.636l-.086-.13 1.263-.837a4.3 4.3 0 0 1 3.053-.66 6.2 6.2 0 0 0 4.42-.956l10.48-6.94a26 26 0 0 1-.354 2.7.96.96 0 0 0 .77 1.121 1 1 0 0 0 .177.017.96.96 0 0 0 .944-.787 28 28 0 0 0 .46-4.375l2.953-1.956a4.46 4.46 0 0 0 1.264-6.185M38.75 10.144l-2.939 1.946-.579-1.559a21 21 0 0 0-.825-1.912 26 26 0 0 1 4.343 1.524ZM8.29 16.813a26.06 26.06 0 0 1 15.042-8.577 11.9 11.9 0 0 1 .6 7.2l-2.346 10.129a2.62 2.62 0 0 0-3.357-.391l-6.643 4.4-9.587 6.345a27 27 0 0 1-.08-2.038A26.05 26.05 0 0 1 8.29 16.813m25.034 30.26a.7.7 0 0 1-.3.445l-5.712 3.781-10.603-15.812a.963.963 0 0 0-1.6 1.071l10.6 15.8-8.155 5.4a26.14 26.14 0 0 1-15.3-19.74l9.593-6.332 1.1 1.647a.963.963 0 0 0 1.6-1.071l-1.1-1.635 5.838-3.854a.7.7 0 0 1 .969.2l12.968 19.574a.7.7 0 0 1 .1.525Zm25.606-17.6a2.52 2.52 0 0 1-1.086 1.611l-3.376 2.236-12.054 7.979a4.28 4.28 0 0 1-3.053.66 6.2 6.2 0 0 0-4.42.956l-1.263.837-10.616-16.031 2.744-11.854a13.82 13.82 0 0 0-1.007-9.068 1 1 0 0 0-.041-.085 14 14 0 0 0-.88-1.539 2.1 2.1 0 0 1 3.208-2.663l1.832 1.777a18.8 18.8 0 0 1 4.51 6.912l1 2.7.006.014.008.019.021.044a1 1 0 0 0 .066.119.96.96 0 0 0 1.333.271L46.121 7.57a2.538 2.538 0 1 1 2.8 4.232l-.891.59-1.987 1.316-.008.005-.031.023a.961.961 0 0 0 1.1 1.575l1.995-1.312a2.538 2.538 0 0 1 2.8 4.233l-2.88 1.903a.962.962 0 1 0 1.062 1.6l.446-.295 1.541-1.021a2.538 2.538 0 0 1 2.8 4.232l-1.438.952-.023.015-1.418.939a.962.962 0 1 0 1.062 1.6l.448-.287 1.541-1.02a2.537 2.537 0 0 1 3.888 2.621Zm0 0"/></svg>