<svg xmlns="http://www.w3.org/2000/svg" width="54.953" height="54.955" viewBox="0 0 54.953 54.955"><g fill="#5aa6ff"><path d="M7.422 45.77h.033a.95.95 0 0 0 .671-.278l8.062-8.062a.95.95 0 0 0 .081-1.25 14.237 14.237 0 0 1 9.617-22.873.95.95 0 0 0 .842-.943V.949a.95.95 0 0 0-1.01-.947A27.476 27.476 0 0 0 6.739 45.448a.95.95 0 0 0 .683.326ZM24.83 1.981v9.563A16.135 16.135 0 0 0 14.271 36.67l-6.753 6.751A25.578 25.578 0 0 1 24.83 1.981m30.102 27.431a.95.95 0 0 0-.946-1.015H42.567a.95.95 0 0 0-.941.832 14.212 14.212 0 0 1-22.955 9.354.95.95 0 0 0-1.263.07l-8.081 8.08a.95.95 0 0 0 .044 1.384 27.487 27.487 0 0 0 45.561-18.7ZM27.506 53.057a25.55 25.55 0 0 1-16.112-5.716l6.771-6.764a16.112 16.112 0 0 0 25.214-10.28h9.57a25.676 25.676 0 0 1-25.443 22.76M49.49 10.925a.948.948 0 1 0-1.517 1.137 25.55 25.55 0 0 1 5 12.71h-9.561A16.06 16.06 0 0 0 30.354 11.57V2.002a25.3 25.3 0 0 1 12.533 4.976.949.949 0 0 0 1.143-1.515A27.2 27.2 0 0 0 29.467.02a.97.97 0 0 0-.713.258.95.95 0 0 0-.3.693v11.414a.95.95 0 0 0 .83.941 14.17 14.17 0 0 1 12.359 12.5.95.95 0 0 0 .943.843h11.419a.95.95 0 0 0 .949-1.009 27.4 27.4 0 0 0-5.461-14.735Z"/><path d="M20.866 33.139a.95.95 0 0 0 .948.948h11.382a.95.95 0 0 0 .948-.948 6.63 6.63 0 0 0-3.84-6 3.794 3.794 0 1 0-5.6 0 6.63 6.63 0 0 0-3.84 6Zm4.742-8.541a1.9 1.9 0 1 1 1.9 1.9 1.9 1.9 0 0 1-1.9-1.9m1.9 3.794a4.75 4.75 0 0 1 4.647 3.794h-9.297a4.75 4.75 0 0 1 4.647-3.788Z"/><circle cx=".948" cy=".948" r=".948" transform="translate(45.336 7.72)"/></g></svg>