<svg xmlns="http://www.w3.org/2000/svg" width="84" height="84" viewBox="0 0 84 84"><g transform="translate(-705 -2795.455)"><rect width="84" height="84" fill="#ffe3ac" rx="5" transform="translate(705 2795.455)"/><path fill="#986f1c" d="m771.656 2822.66.106-.1a7.476 7.476 0 1 0-10.573-10.573q-.11.111-.216.227a30.006 30.006 0 0 0-40.633 41.55l-.106.1a7.49 7.49 0 0 0 0 10.572 7.474 7.474 0 0 0 10.573 0q.11-.111.216-.227a30 30 0 0 0 40.633-41.549m-5.181-11.433A6.046 6.046 0 1 1 762.2 2813a6.03 6.03 0 0 1 4.277-1.769Zm-5.286 11.332a7.49 7.49 0 0 0 9.339 1 28.5 28.5 0 0 1 4.035 13.941h-17.237a11.364 11.364 0 0 0-10.614-10.61v-17.239a28.5 28.5 0 0 1 13.393 3.711 7.49 7.49 0 0 0 1.084 9.2Zm-25.11 15.653a9.921 9.921 0 1 1 9.921 9.92 9.93 9.93 0 0 1-9.92-9.92Zm-18.651 0a28.6 28.6 0 0 1 27.857-28.561v17.237a11.34 11.34 0 0 0-7.795 18.823l-7.469 7.469a7.475 7.475 0 0 0-8.553-.312 28.5 28.5 0 0 1-4.04-14.656m8.095 26.988a6.05 6.05 0 1 1 4.277-1.771 6 6 0 0 1-4.277 1.771m20.477 1.583a28.5 28.5 0 0 1-14.107-3.72 7.49 7.49 0 0 0-.817-8.917l7.424-7.426a11.342 11.342 0 0 0 18.826-7.794h17.238A28.606 28.606 0 0 1 746 2866.783m-3.361-26.583a.714.714 0 1 1 1.427 0 1.973 1.973 0 0 0 3.864 0c0-1.034-.549-1.252-2-1.573-1.244-.275-2.947-.651-2.947-2.706a2.786 2.786 0 0 1 2.3-2.628v-.784a.714.714 0 1 1 1.427 0v.791a2.79 2.79 0 0 1 2.3 2.628.714.714 0 0 1-1.427 0 1.628 1.628 0 0 0-3.179 0c0 .8.389.994 1.827 1.312 1.243.275 3.12.689 3.12 2.967a3.11 3.11 0 0 1-2.646 2.933v.773a.714.714 0 0 1-1.427 0v-.773a3.11 3.11 0 0 1-2.639-2.94m19.961-22.132a.714.714 0 1 1 1.01-1.008l1.547 1.55 4.186-4.185a.714.714 0 0 1 1.009 1.009l-4.691 4.691a.7.7 0 0 1-.5.209.7.7 0 0 1-.5-.21zm-34.229 39.243-1.841 1.841 1.841 1.841a.714.714 0 1 1-1.009 1.007l-1.841-1.841-1.84 1.841a.714.714 0 1 1-1.009-1.009l1.841-1.841-1.841-1.841a.714.714 0 0 1 1.009-1.009l1.841 1.841 1.84-1.841a.714.714 0 1 1 1.009 1.009Z"/></g></svg>