<svg xmlns="http://www.w3.org/2000/svg" width="61.863" height="61.862" viewBox="0 0 61.863 61.862"><path fill="#feba30" d="M35.361 7.418a1.21 1.21 0 0 0-1.646-.461l-.059.033a1.208 1.208 0 1 0 1.185 2.106l.059-.033a1.21 1.21 0 0 0 .461-1.645"/><path fill="#feba30" d="M61.51 10.987 50.877.354a1.208 1.208 0 0 0-2.063.854V4.35h-5.075a20.6 20.6 0 0 0-5.5.744 1.208 1.208 0 1 0 .645 2.329 18.2 18.2 0 0 1 4.851-.656h6.283a1.21 1.21 0 0 0 1.208-1.208V4.125l7.716 7.716-7.716 7.716v-1.433a1.21 1.21 0 0 0-1.208-1.208h-6.279a7.983 7.983 0 0 0-7.975 7.974v15.716a20.67 20.67 0 0 0-10.149-9.272V24.89a17.97 17.97 0 0 1 5.623-13.122 1.208 1.208 0 1 0-1.667-1.749A20.36 20.36 0 0 0 23.2 24.89v5.6a20.5 20.5 0 0 0-5.558-.765h-4.593v-3.143a1.208 1.208 0 0 0-2.063-.854L.354 36.36a1.21 1.21 0 0 0 0 1.709L10.987 48.7a1.208 1.208 0 0 0 2.063-.854v-3.141h4.591a5.564 5.564 0 0 1 5.559 5.558v10.391a1.21 1.21 0 0 0 1.208 1.208h12.565a1.21 1.21 0 0 0 1.208-1.208V24.89a5.564 5.564 0 0 1 5.558-5.558h5.075v3.141a1.208 1.208 0 0 0 2.063.854L61.51 12.7a1.21 1.21 0 0 0 0-1.713M35.765 59.446h-3.383V51.36a1.209 1.209 0 0 0-2.417 0v8.086h-4.35v-9.182a7.983 7.983 0 0 0-7.975-7.974h-5.8a1.21 1.21 0 0 0-1.207 1.21v1.43l-7.716-7.716 7.716-7.714v1.433a1.21 1.21 0 0 0 1.208 1.208h5.8a18.144 18.144 0 0 1 18.124 18.123Z"/><path fill="#feba30" d="M32.028 45.841a1.208 1.208 0 1 0 .354.854 1.2 1.2 0 0 0-.354-.854"/></svg>