<svg xmlns="http://www.w3.org/2000/svg" width="85.115" height="85" viewBox="0 0 85.115 85"><g fill="#5aa6ff"><path d="M52.391 60.694 36.12 51.285a1.662 1.662 0 0 0-2.494 1.44v18.81a1.662 1.662 0 0 0 2.494 1.44l16.272-9.406a1.662 1.662 0 0 0 0-2.878Zm-15.44 7.963V55.609l11.286 6.525Z"/><path d="M80.127 26.234H22.375l56.876-10.037a4.987 4.987 0 0 0 4.044-5.78l-1.1-6.287A5.01 5.01 0 0 0 76.412.086L4.12 12.846a4.987 4.987 0 0 0-4.044 5.772l1.662 9.418v51.977a4.987 4.987 0 0 0 4.987 4.984h73.4a4.987 4.987 0 0 0 4.987-4.987V31.221a4.987 4.987 0 0 0-4.987-4.987Zm1.662 4.987v8.044H68.908l3.529-9.707h7.69a1.66 1.66 0 0 1 1.662 1.662Zm-76.73 8.044v-9.706h16.8l-3.529 9.707Zm20.336-9.706h12.14l-3.524 9.707H21.875Zm15.678 0h12.14l-3.518 9.706h-12.14Zm15.68 0h12.142l-3.523 9.707H53.234Zm-5.09-11.873-11.3 1.995-3.658-9.209 11.313-1.995Zm-.302-9.809 11.6-2.048 3.657 9.213-11.6 2.046Zm-14.348 12.4-11.3 1.995-3.657-9.213 11.3-1.995ZM76.989 3.359a2 2 0 0 1 .293-.025 1.66 1.66 0 0 1 1.633 1.373l1.108 6.29a1.66 1.66 0 0 1-1.348 1.927l-8.724 1.543-3.656-9.218ZM4.695 16.125l14.012-2.477 3.657 9.213-17.619 3.108-1.4-7.923a1.66 1.66 0 0 1 1.35-1.921m75.43 65.551H6.722a1.66 1.66 0 0 1-1.662-1.662V42.59h76.73v37.423a1.66 1.66 0 0 1-1.663 1.662Z"/><path d="M12.412 33.237a1.677 1.677 0 1 0 .471 1.338 1.66 1.66 0 0 0-.471-1.338M8.453 20.75a2 2 0 0 0 .151.288 1.668 1.668 0 1 0-.151-.288"/></g></svg>