<svg xmlns="http://www.w3.org/2000/svg" width="58.941" height="48.926" viewBox="0 0 58.941 48.926"><g fill="#5aa6ff"><path d="M53.415 0H48.7a.806.806 0 0 0-.806.806v9.21h-19.01q.015-.253.017-.507a9.507 9.507 0 1 0-19.015 0q.002.255.017.507H.806a.806.806 0 0 0-.806.809v37.3a.806.806 0 0 0 .806.806h52.609a5.53 5.53 0 0 0 5.526-5.526V5.525a5.53 5.53 0 0 0-5.526-5.526ZM6.216 20.173l.472.472.841 2.361a.82.82 0 0 0 .8.536l2.17-.1 3.045 1.9-.331 1.922a.8.8 0 0 0 .1.553l1.5 2.494a.8.8 0 0 0 .617.388l-.379 2.892a.8.8 0 0 0 0 .216l.768 5.526a.806.806 0 0 0 .8.695h1.718a.805.805 0 0 0 .795-.675l.706-4.282 1.929-2.452 4.581-.536a.8.8 0 0 0 .712-.793l.038-4.338a.8.8 0 0 0-.171-.5l-2.34-2.993a.81.81 0 0 0-.756-.3l-1.867.283a39 39 0 0 0 1.784-4.117c.2-.553.387-1.114.549-1.675a9.6 9.6 0 0 0 1.809-1.418h16.113l1.671 1.671v1.573l-2.963 1.114h-2.993l-1.126-1.125a.8.8 0 0 0-.865-.18l-2.247.885a.8.8 0 0 0-.276.18l-2.927 2.927a.8.8 0 0 0-.236.57v2.792a.8.8 0 0 0 .236.57l1.974 1.974a.8.8 0 0 0 .57.236h2.189l2.489 2.489v3.444a.8.8 0 0 0 .236.57l2.2 2.2a.8.8 0 0 0 1.139 0l2.81-2.812a.8.8 0 0 0 .236-.57v-1.3l1.059-1.059a.8.8 0 0 0 .236-.57v-2.245l1.81-1.811a.8.8 0 0 0 0-1.139l-2.052-2.05 1.335-.406.06.06a3.8 3.8 0 0 0 1.11.765v13.7a.806.806 0 0 0 .806.806h4.029v3.223H6.216Zm9.668 1.252-1.616-1.054 1.113-.145q.246.608.503 1.199m-3.2-5.192a9.6 9.6 0 0 0 1.809 1.416c.092.325.2.65.306.973l.016.049-1.943.252a.806.806 0 0 0-.645 1.105l.423 1.036a.8.8 0 0 0 .306.368l2.644 1.727a.8.8 0 0 0 .612.112l.483-.106c.841 1.707 1.607 3 1.894 3.474a.95.95 0 0 0 .8.575.83.83 0 0 0 .709-.419c.092-.145.443-.722.926-1.6l2.575-.391 1.877 2.4-.029 3.345-4.206.493a.8.8 0 0 0-.54.3l-2.262 2.883a.8.8 0 0 0-.162.368l-.629 3.815h-.332l-.656-4.722.484-3.691a.806.806 0 0 0-.8-.911h-.388l-1.108-1.847.372-2.161a.805.805 0 0 0-.368-.82l-3.717-2.324a.8.8 0 0 0-.466-.122l-1.825.088-.7-1.969a.8.8 0 0 0-.189-.3l-1.74-1.741v-1.656Zm35.209 6.821-.373-.374a.8.8 0 0 0-.8-.2l-3.082.938a.806.806 0 0 0-.335 1.34l2.43 2.43-1.477 1.477a.8.8 0 0 0-.236.57v2.245l-1.059 1.059a.8.8 0 0 0-.236.57v1.3l-2 2-1.39-1.389v-3.447a.8.8 0 0 0-.236-.57l-2.961-2.962a.8.8 0 0 0-.57-.236h-2.194l-1.5-1.5V24.18l2.571-2.572 1.6-.63.988.988a.8.8 0 0 0 .57.236h3.474a.8.8 0 0 0 .284-.052l3.622-1.362a.81.81 0 0 0 .522-.754v-2.465a.8.8 0 0 0-.236-.57l-.767-.768h3.39ZM28.659 11.625h19.23v3H27.4a9.6 9.6 0 0 0 1.259-3M19.393 1.612a7.9 7.9 0 0 1 7.9 7.9 7.99 7.99 0 0 1-4.071 6.907.8.8 0 0 0-.386.493 35.4 35.4 0 0 1-2.843 6.824 35 35 0 0 1-.6 1.088 43 43 0 0 1-2.754-5.817 28 28 0 0 1-.362-1.027l-.023-.071a21 21 0 0 1-.3-1 .8.8 0 0 0-.386-.493A7.99 7.99 0 0 1 11.5 9.507a7.9 7.9 0 0 1 7.9-7.9Zm34.022 45.7H1.612V11.625h8.516l.019.067a9.5 9.5 0 0 0 .587 1.721l.013.03a10 10 0 0 0 .637 1.175H5.411a.806.806 0 0 0-.811.807v28.09a.806.806 0 0 0 .806.806H53.53a.806.806 0 0 0 .806-.806v-3.914a3.912 3.912 0 0 1-.921 7.714Zm3.726-7.982a5.55 5.55 0 0 0-3.726-1.457H49.5V1.612h3.914a3.92 3.92 0 0 1 3.915 3.913v33.978c-.059-.06-.129-.115-.188-.171Z"/><path d="M19.392 13.995a4.487 4.487 0 1 0-4.486-4.487 4.487 4.487 0 0 0 4.486 4.487m0-7.362a2.875 2.875 0 1 1-2.875 2.875 2.875 2.875 0 0 1 2.875-2.875"/></g></svg>