<svg xmlns="http://www.w3.org/2000/svg" width="64.945" height="64.945" viewBox="0 0 64.945 64.945"><g fill="#5aa6ff" transform="translate(.5 .5)"><g transform="translate(11.132 10.477)"><path d="M19.354 32.164h-6.525a.683.683 0 0 1-.683-.683v-3.2a13 13 0 0 1-1.9-.786l-2.263 2.262a.683.683 0 0 1-.966 0l-4.615-4.612a.683.683 0 0 1 0-.967l2.266-2.257a13 13 0 0 1-.786-1.894h-3.2a.683.683 0 0 1-.683-.683v-6.523a.683.683 0 0 1 .683-.683h3.2a13 13 0 0 1 .786-1.894L2.405 7.983a.683.683 0 0 1 0-.967L7.02 2.404a.683.683 0 0 1 .966 0l2.263 2.262a13 13 0 0 1 1.9-.786V.68a.683.683 0 0 1 .683-.683h6.526a.683.683 0 0 1 .683.683v3.2a13 13 0 0 1 1.9.786l2.263-2.262a.683.683 0 0 1 .966 0l4.615 4.612a.683.683 0 0 1 0 .967l-2.262 2.261a13 13 0 0 1 .786 1.894h3.2a.683.683 0 0 1 .683.683v6.522a.683.683 0 0 1-.683.683h-3.2a13 13 0 0 1-.786 1.894l2.262 2.261a.683.683 0 0 1 0 .967L25.17 29.76a.683.683 0 0 1-.966 0l-2.263-2.262a13 13 0 0 1-1.9.786v3.2a.683.683 0 0 1-.683.683Zm-5.843-1.366h5.16v-3.022a.68.68 0 0 1 .5-.658 11.4 11.4 0 0 0 2.549-1.057.68.68 0 0 1 .819.112l2.139 2.138 3.648-3.646-2.138-2.137a.68.68 0 0 1-.112-.82 11.4 11.4 0 0 0 1.057-2.548.68.68 0 0 1 .658-.5h3.024v-5.156h-3.024a.68.68 0 0 1-.658-.5 11.4 11.4 0 0 0-1.057-2.548.684.684 0 0 1 .112-.82l2.138-2.137-3.648-3.646-2.139 2.138a.684.684 0 0 1-.819.112 11.4 11.4 0 0 0-2.549-1.057.68.68 0 0 1-.5-.658V1.367h-5.16v3.022a.68.68 0 0 1-.5.658 11.4 11.4 0 0 0-2.549 1.057.68.68 0 0 1-.819-.112L7.504 3.854 3.856 7.5l2.138 2.137a.68.68 0 0 1 .112.82 11.4 11.4 0 0 0-1.057 2.548.68.68 0 0 1-.658.5H1.366v5.156H4.39a.68.68 0 0 1 .658.5 11.4 11.4 0 0 0 1.057 2.548.68.68 0 0 1-.112.82l-2.138 2.137 3.648 3.646 2.139-2.138a.684.684 0 0 1 .819-.112 11.4 11.4 0 0 0 2.549 1.057.68.68 0 0 1 .5.658Z"/><path d="M19.354 32.664h-6.525a1.185 1.185 0 0 1-1.183-1.183v-2.838a13 13 0 0 1-1.3-.537l-2.009 2.008a1.183 1.183 0 0 1-1.673 0l-4.646-4.647a1.174 1.174 0 0 1 0-1.6l.032-.035 2.011-2.011a13 13 0 0 1-.532-1.295H.683A1.185 1.185 0 0 1-.5 19.343v-6.522a1.185 1.185 0 0 1 1.183-1.183h2.846a13 13 0 0 1 .537-1.294l-2.04-2.042a1.174 1.174 0 0 1 0-1.6l.032-.035 4.615-4.612a1.183 1.183 0 0 1 1.673 0l2.009 2.008a13 13 0 0 1 1.3-.537V.683A1.185 1.185 0 0 1 12.829-.5h6.526A1.185 1.185 0 0 1 20.538.683v2.838a13 13 0 0 1 1.3.537l2.009-2.008a1.183 1.183 0 0 1 1.673 0l4.646 4.647a1.174 1.174 0 0 1 0 1.6l-.032.035-2.008 2.007a13 13 0 0 1 .537 1.294h2.841a1.185 1.185 0 0 1 1.183 1.183v6.522a1.185 1.185 0 0 1-1.183 1.183h-2.841a13 13 0 0 1-.537 1.294l2.04 2.042a1.174 1.174 0 0 1 0 1.6l-.032.035-4.615 4.612a1.183 1.183 0 0 1-1.673 0l-2.009-2.008a13 13 0 0 1-1.3.537v2.838a1.183 1.183 0 0 1-1.183 1.183Zm-9.2-5.777.324.166a12 12 0 0 0 1.821.755l.346.112v3.561a.183.183 0 0 0 .183.183h6.526a.183.183 0 0 0 .183-.183v-3.56l.346-.112a12 12 0 0 0 1.821-.755l.324-.166 2.52 2.519a.183.183 0 0 0 .259 0l4.6-4.594c.1-.119.1-.176 0-.3l-2.5-2.5.166-.324a12 12 0 0 0 .755-1.819l.112-.346h3.563a.183.183 0 0 0 .183-.183v-6.52a.183.183 0 0 0-.183-.183H27.94l-.112-.346a12 12 0 0 0-.755-1.819l-.166-.324 2.5-2.5c.1-.119.1-.176 0-.3l-4.6-4.594a.183.183 0 0 0-.259 0l-2.52 2.519-.324-.166a12 12 0 0 0-1.821-.755l-.346-.112V.683A.183.183 0 0 0 19.354.5h-6.525a.183.183 0 0 0-.183.183v3.561l-.346.112a12 12 0 0 0-1.821.755l-.324.166-2.526-2.519a.183.183 0 0 0-.259 0l-4.6 4.594c-.1.119-.1.176 0 .3l2.5 2.5-.166.324a12 12 0 0 0-.755 1.819l-.112.346H.683a.183.183 0 0 0-.183.183v6.522a.183.183 0 0 0 .183.183h3.563l.112.346a12 12 0 0 0 .755 1.819l.166.324-2.5 2.5c-.1.119-.1.176 0 .3l4.6 4.594a.183.183 0 0 0 .259 0Zm9.017 4.41h-6.16v-3.522a.184.184 0 0 0-.134-.177 12 12 0 0 1-2.661-1.1.19.19 0 0 0-.22.03l-2.493 2.493-4.355-4.353 2.492-2.491a.184.184 0 0 0 .03-.22 12 12 0 0 1-1.1-2.66.184.184 0 0 0-.176-.134H.866v-6.159H4.39a.184.184 0 0 0 .177-.134 12 12 0 0 1 1.1-2.66.184.184 0 0 0-.03-.22L3.145 7.499 7.5 3.146l2.493 2.491a.185.185 0 0 0 .22.03 12 12 0 0 1 2.661-1.1.184.184 0 0 0 .134-.177V.867h6.16v3.522a.184.184 0 0 0 .134.177 12 12 0 0 1 2.661 1.1.19.19 0 0 0 .219-.03l2.493-2.491 4.355 4.353-2.492 2.491a.184.184 0 0 0-.03.22 12 12 0 0 1 1.1 2.659.184.184 0 0 0 .176.134h3.524v6.156h-3.524a.184.184 0 0 0-.176.134 12 12 0 0 1-1.1 2.66.184.184 0 0 0 .03.22l2.492 2.491-4.355 4.353-2.493-2.491a.185.185 0 0 0-.219-.03 12 12 0 0 1-2.661 1.1.184.184 0 0 0-.134.177Zm-5.16-1h4.16v-2.522a1.19 1.19 0 0 1 .866-1.14 11 11 0 0 0 2.438-1.01 1.18 1.18 0 0 1 1.418.194l1.786 1.785 2.941-2.939-1.785-1.784a1.19 1.19 0 0 1-.194-1.419 11 11 0 0 0 1.011-2.436 1.19 1.19 0 0 1 1.14-.866h2.524v-4.156h-2.524a1.19 1.19 0 0 1-1.14-.866 11 11 0 0 0-1.011-2.436 1.19 1.19 0 0 1 .193-1.419l1.785-1.784-2.941-2.939-1.786 1.785a1.184 1.184 0 0 1-1.417.194 11 11 0 0 0-2.438-1.011 1.19 1.19 0 0 1-.866-1.14V1.867h-4.16v2.522a1.19 1.19 0 0 1-.866 1.14 11 11 0 0 0-2.438 1.01 1.2 1.2 0 0 1-.582.153 1.18 1.18 0 0 1-.837-.347L7.502 4.56 4.561 7.499l1.785 1.784a1.19 1.19 0 0 1 .194 1.419 11 11 0 0 0-1.011 2.436 1.19 1.19 0 0 1-1.14.866H1.866v4.156H4.39a1.19 1.19 0 0 1 1.139.861 11 11 0 0 0 1.011 2.436 1.19 1.19 0 0 1-.194 1.419L4.561 24.66l2.941 2.939 1.787-1.778a1.184 1.184 0 0 1 1.418-.194 11 11 0 0 0 2.438 1.011 1.19 1.19 0 0 1 .866 1.14Z"/><g transform="translate(12.014 8.491)"><path d="M4.077 11.155a.683.683 0 0 1-.683-.683V7.856a.683.683 0 0 1 .683-.683 2.91 2.91 0 1 0-2.711-2.9.683.683 0 1 1-1.366 0 4.081 4.081 0 1 1 8.154 0 4.224 4.224 0 0 1-3.394 4.21v1.991a.683.683 0 0 1-.683.683Z"/><path d="M4.077 11.655a1.185 1.185 0 0 1-1.183-1.183V7.856a1.185 1.185 0 0 1 1.183-1.183 2.411 2.411 0 1 0-2.211-2.4 1.183 1.183 0 1 1-2.366 0 4.581 4.581 0 1 1 9.154 0 4.9 4.9 0 0 1-1.088 3.084A4.57 4.57 0 0 1 5.26 8.881v1.593a1.185 1.185 0 0 1-1.183 1.183Zm0-10.789a3.409 3.409 0 0 1 0 6.806.183.183 0 0 0-.183.183v2.619a.183.183 0 1 0 .366 0V8.063l.413-.073a3.757 3.757 0 1 0-4.17-3.716.183.183 0 1 0 .366 0A3.315 3.315 0 0 1 4.077.866"/><ellipse cx="1.279" cy="1.281" rx="1.279" ry="1.281" transform="translate(2.798 12.831)"/><path d="M4.077 12.331a1.781 1.781 0 1 1-1.779 1.781 1.78 1.78 0 0 1 1.779-1.781m0 2.562a.781.781 0 1 0-.779-.781.78.78 0 0 0 .779.781"/></g></g><path d="M54.2 40a28.5 28.5 0 0 1-4.173-12.119c-.5-6.045-2.553-12.071-6.885-16.454-4.259-4.31-10.332-6.244-16.302-6.244a20.7 20.7 0 0 0-12.772 4.262.68.68 0 0 0-.58-.322H8.175V.673a.687.687 0 0 0-1.292-.31L.073 13.749a.69.69 0 0 0 .609.993h5.3L5.9 23.9a.7.7 0 0 0 .042.24 24.7 24.7 0 0 0 3.282 16 18.8 18.8 0 0 1 2.811 9.89l-.055 13.229a.683.683 0 0 0 .68.686.683.683 0 0 0 .683-.68l.057-13.229a20.15 20.15 0 0 0-3.006-10.6 23.32 23.32 0 0 1-3.031-15.571L13.121 12.1A19.14 19.14 0 0 1 26.84 6.549c5.692 0 11.5 1.849 15.51 6.02s5.84 9.739 6.315 15.4c.014 4.606 2.125 8.812 4.354 12.717.423.741.061 2.039-.951 2.039h-2.7a.683.683 0 0 0-.683.683v8.262a6.19 6.19 0 0 1-6.2 6.167 27.9 27.9 0 0 1-12.044-2.565.683.683 0 0 0-.573 1.241 28.4 28.4 0 0 0 9.424 2.643v4.106a.683.683 0 1 0 1.366 0V59.2h1.827a7.56 7.56 0 0 0 7.57-7.533v-7.576h2.02A2.72 2.72 0 0 0 54.2 40M7.294 20.9l.065-6.831a.683.683 0 0 0-.683-.69H1.8l5.009-9.856V9.8a.683.683 0 0 0 .683.683h4.9Z"/><path d="M39.968 64.445a1.185 1.185 0 0 1-1.183-1.183V59.61a29.2 29.2 0 0 1-9.134-2.643 1.183 1.183 0 1 1 .992-2.148 27.2 27.2 0 0 0 11.835 2.519 5.69 5.69 0 0 0 5.7-5.667v-8.263a1.185 1.185 0 0 1 1.183-1.183h2.7a.54.54 0 0 0 .489-.3 1.07 1.07 0 0 0 .029-.991c-2.128-3.728-4.4-8.109-4.419-12.943-.524-6.208-2.66-11.42-6.176-15.075-3.64-3.783-9.02-5.866-15.15-5.866a18.67 18.67 0 0 0-13.301 5.35L7.845 24.016a22.83 22.83 0 0 0 2.978 15.162 20.54 20.54 0 0 1 3.077 10.86l-.055 13.228a1.183 1.183 0 0 1-2.366-.01l.055-13.228A18.2 18.2 0 0 0 8.8 40.4v-.005a25.25 25.25 0 0 1-3.363-16.22 1.2 1.2 0 0 1-.032-.284l.082-8.651H.682a1.17 1.17 0 0 1-1-.568 1.17 1.17 0 0 1-.051-1.152L6.437.137A1.15 1.15 0 0 1 7.476-.5 1.175 1.175 0 0 1 8.675.673v7.945h4.811a1.2 1.2 0 0 1 .617.172A21.15 21.15 0 0 1 26.84 4.683a26 26 0 0 1 8.96 1.536 20.7 20.7 0 0 1 7.7 4.858c5.084 5.144 6.628 11.956 7.028 16.764.332 3.927 1.522 7.377 4.106 11.908a3.34 3.34 0 0 1-.018 3.3 2.93 2.93 0 0 1-2.547 1.539h-1.52v7.082a8.06 8.06 0 0 1-8.07 8.033h-1.328v3.558a1.185 1.185 0 0 1-1.183 1.184m-9.821-8.736a.183.183 0 0 0-.077.35 27.9 27.9 0 0 0 9.257 2.6l.457.039v4.565a.183.183 0 1 0 .366 0V58.7h2.327a7.06 7.06 0 0 0 7.07-7.033v-8.076h2.52a1.91 1.91 0 0 0 1.678-1.032 2.32 2.32 0 0 0 .027-2.3l-.005-.009a38 38 0 0 1-2.817-5.912 24.7 24.7 0 0 1-1.419-6.412c-.386-4.644-1.87-11.214-6.743-16.145-3.885-3.932-9.55-6.1-15.949-6.1A20.13 20.13 0 0 0 14.374 9.84l-.452.35-.285-.49a.18.18 0 0 0-.152-.081h-5.81V.673c0-.171-.2-.173-.2-.173a.15.15 0 0 0-.148.09L.519 13.976a.19.19 0 0 0 .163.266h5.809L6.4 23.9a.2.2 0 0 0 .012.064l.042.116-.017.122A24.25 24.25 0 0 0 9.65 39.881a19.2 19.2 0 0 1 2.884 10.152l-.054 13.228a.183.183 0 1 0 .366 0l.054-13.227A19.54 19.54 0 0 0 9.97 39.7v-.005a23.83 23.83 0 0 1-3.1-15.908l.012-.075 5.828-11.906.058-.059a19.66 19.66 0 0 1 14.073-5.7A25 25 0 0 1 35.4 7.526a19.3 19.3 0 0 1 7.312 4.7 21.9 21.9 0 0 1 4.586 7.3 30.2 30.2 0 0 1 1.868 8.4v.04c.014 4.6 2.22 8.848 4.288 12.47a2.06 2.06 0 0 1-.032 1.989 1.54 1.54 0 0 1-1.353.8h-2.7a.183.183 0 0 0-.183.183v8.262a6.693 6.693 0 0 1-6.7 6.667 28.6 28.6 0 0 1-12.254-2.611.2.2 0 0 0-.084-.017ZM7.743 21.116l-.949-.225.065-6.805c-.016-.153-.056-.194-.209-.211H.981L6.363 3.3l.946.227V9.8a.183.183 0 0 0 .183.183h5.7Zm-5.132-8.24h4.112a1.174 1.174 0 0 1 1.134 1.145v.024L7.815 18.7l3.774-7.71h-4.1a1.185 1.185 0 0 1-1.18-1.19V5.608Z"/><g transform="translate(53.014 45.046)"><path d="M.683 6.489A.683.683 0 0 1 0 5.806V3.027a.683.683 0 1 1 1.366 0v2.779a.683.683 0 0 1-.683.683"/><path d="M.683 6.989A1.185 1.185 0 0 1-.5 5.806V3.027a1.183 1.183 0 1 1 2.366 0v2.779A1.185 1.185 0 0 1 .683 6.989m0-4.146a.183.183 0 0 0-.183.183v2.779a.183.183 0 1 0 .366 0V3.026a.183.183 0 0 0-.183-.183m4.782 5.988a.683.683 0 0 1-.683-.683V.683a.683.683 0 1 1 1.366 0v7.465a.683.683 0 0 1-.683.683"/><path d="M5.465 9.331a1.185 1.185 0 0 1-1.183-1.183V.683a1.183 1.183 0 1 1 2.366 0v7.465a1.185 1.185 0 0 1-1.183 1.183m0-8.831a.184.184 0 0 0-.183.183v7.465a.183.183 0 1 0 .366 0V.683A.183.183 0 0 0 5.465.5m4.783 5.989a.683.683 0 0 1-.683-.683V3.027a.683.683 0 1 1 1.366 0v2.779a.683.683 0 0 1-.683.683"/><path d="M10.248 6.989a1.185 1.185 0 0 1-1.183-1.183V3.027a1.183 1.183 0 1 1 2.366 0v2.779a1.185 1.185 0 0 1-1.183 1.183m0-4.146a.183.183 0 0 0-.183.183v2.779a.183.183 0 1 0 .366 0V3.026a.183.183 0 0 0-.183-.183"/></g></g></svg>