<svg xmlns="http://www.w3.org/2000/svg" width="82.521" height="107.003" viewBox="0 0 82.521 107.003"><g fill="#481d1d" transform="translate(-184.664 -3585.988)"><path d="m186.353 3603.368-.74-.673 14.743-16.216.74.673Z"/><path d="m200.881 3602.911-16.217-14.743.672-.74 16.218 14.743Zm-14.486 23.288-.74-.673 14.743-16.216.74.673Z"/><path d="m200.924 3625.742-16.217-14.743.672-.74 16.218 14.743Zm6.205-22.865-.74-.673 14.743-16.216.74.673Z"/><path d="m221.657 3602.42-16.217-14.743.672-.74 16.218 14.743Zm-14.484 23.287-.74-.673 14.743-16.216.74.673Z"/><path d="m221.7 3625.25-16.217-14.743.672-.74 16.218 14.743Zm-35.347 22.93-.74-.673 14.743-16.216.74.673Z"/><path d="m200.881 3647.722-16.217-14.743.672-.74 16.218 14.743Zm-14.486 23.288-.74-.673 14.743-16.216.74.673Zm-.043 21.98-.74-.673 14.743-16.216.74.673Z"/><path d="m200.924 3670.552-16.217-14.743.672-.74 16.218 14.743Zm-.043 21.981-16.217-14.743.672-.74 16.218 14.743Zm6.248-44.845-.74-.673 14.743-16.216.74.673Z"/><path d="m221.657 3647.231-16.217-14.743.672-.74 16.218 14.743Zm-14.484 23.287-.74-.673 14.743-16.216.74.673Zm-.043 21.981-.74-.673 14.743-16.216.74.673Z"/><path d="m221.7 3670.061-16.217-14.743.672-.74 16.218 14.743Zm-.043 21.981-16.217-14.743.672-.74 16.218 14.743Zm9.507-88.674-.74-.673 14.743-16.216.74.673Z"/><path d="m245.693 3602.911-16.217-14.743.672-.74 16.218 14.743Zm-14.486 23.288-.74-.673 14.743-16.216.74.673Z"/><path d="m245.735 3625.742-16.217-14.743.672-.74 16.218 14.743Zm6.205-22.865-.74-.673 14.743-16.216.74.673Z"/><path d="m266.469 3602.42-16.217-14.743.672-.74 16.218 14.743Zm-14.486 23.287-.74-.673 14.743-16.216.74.673Z"/><path d="m266.512 3625.25-16.217-14.743.672-.74 16.218 14.743Zm-35.348 22.93-.74-.673 14.743-16.216.74.673Z"/><path d="m245.693 3647.722-16.217-14.743.672-.74 16.218 14.743Zm-14.486 23.288-.74-.673 14.743-16.216.74.673Zm-.043 21.98-.74-.673 14.743-16.216.74.673Z"/><path d="m245.735 3670.552-16.217-14.743.672-.74 16.218 14.743Zm-.043 21.981-16.217-14.743.672-.74 16.218 14.743Zm6.248-44.845-.74-.673 14.743-16.216.74.673Z"/><path d="m266.469 3647.231-16.217-14.743.672-.74 16.218 14.743Zm-14.486 23.287-.74-.673 14.743-16.216.74.673Zm-.043 21.981-.74-.673 14.743-16.216.74.673Z"/><path d="m266.512 3670.061-16.217-14.743.672-.74 16.218 14.743Zm-.043 21.981-16.217-14.743.672-.74 16.218 14.743Z"/></g></svg>