<svg xmlns="http://www.w3.org/2000/svg" width="104" height="104" viewBox="0 0 104 104"><g fill="#9bac1c" transform="translate(-903.348 -2385.729)"><path d="M955.348 2387.729a50.014 50.014 0 0 0-19.462 96.072 50.014 50.014 0 0 0 38.924-92.144 49.7 49.7 0 0 0-19.462-3.928m0-2a52 52 0 1 1-52 52 52 52 0 0 1 52-52"/><g transform="translate(932.629 2410.479)"><path d="M38.761 10.592a.94.94 0 0 0 1.286-.327l5.259-8.847A.938.938 0 0 0 44.5 0H31.06a.94.94 0 0 0-.807.459l-7.534 12.673L15.185.459A.94.94 0 0 0 14.378 0H.94a.938.938 0 0 0-.807 1.418l12.343 20.763H10.74a.939.939 0 0 0 0 1.877h.885v.718a4.37 4.37 0 0 0 3.305 4.234 18.4 18.4 0 0 0-7.02 5.775.938.938 0 1 0 1.515 1.108A16.46 16.46 0 1 1 6.261 45.6a16.3 16.3 0 0 1 1.389-6.63.938.938 0 1 0-1.717-.757 18.339 18.339 0 1 0 24.586-9.206 4.37 4.37 0 0 0 3.3-4.232v-.718h.885a.939.939 0 0 0 0-1.877h-1.737l5.169-8.695a.938.938 0 1 0-1.613-.959l-5.739 9.654h-2.681l-4.288-7.212 7.783-13.092H42.85l-4.416 7.429a.94.94 0 0 0 .327 1.286ZM31.94 24.776a2.49 2.49 0 0 1-2.488 2.488H15.989a2.49 2.49 0 0 1-2.488-2.488v-.718H31.94Zm-17.281-2.595L2.588 1.877H13.84l12.071 20.3Z"/><path d="M33.828 52.564a.94.94 0 0 0 1.269-.387 14.03 14.03 0 1 0-2.383 3.246.938.938 0 1 0-1.338-1.316 12.1 12.1 0 1 1 2.064-2.812.94.94 0 0 0 .388 1.269"/><path d="M30.491 44.983a2.317 2.317 0 0 0-1.284-3.953l-2.817-.409a.44.44 0 0 1-.332-.241l-1.26-2.553a2.317 2.317 0 0 0-4.156 0l-1.26 2.553a.44.44 0 0 1-.332.241l-2.817.409a2.318 2.318 0 0 0-1.284 3.953l2.039 1.987a.44.44 0 0 1 .127.39l-.481 2.806a2.314 2.314 0 0 0 3.363 2.443l2.52-1.325a.44.44 0 0 1 .41 0l2.52 1.325a2.317 2.317 0 0 0 3.363-2.443l-.481-2.806a.44.44 0 0 1 .127-.39Zm-3.349.643a2.32 2.32 0 0 0-.666 2.051l.481 2.806a.441.441 0 0 1-.64.465l-2.52-1.325a2.32 2.32 0 0 0-2.157 0l-2.52 1.325a.441.441 0 0 1-.639-.465l.481-2.806a2.32 2.32 0 0 0-.666-2.051l-2.039-1.987a.441.441 0 0 1 .244-.752l2.817-.409a2.32 2.32 0 0 0 1.745-1.268l1.26-2.553a.441.441 0 0 1 .79 0l1.26 2.553a2.32 2.32 0 0 0 1.745 1.268l2.817.409a.441.441 0 0 1 .244.752Z"/></g></g></svg>