<svg xmlns="http://www.w3.org/2000/svg" width="72.567" height="72" viewBox="0 0 72.567 72"><g fill="#9bac1c" transform="translate(-1.594 -2)"><path d="M57.342 32.033v-5.509l.849-.849a1.2 1.2 0 0 0 .352-.849V20.02a3.6 3.6 0 0 0-1.683-3.038 3.56 3.56 0 0 0 .482-1.767 3.604 3.604 0 1 0-7.208 0 3.56 3.56 0 0 0 .482 1.767 3.6 3.6 0 0 0-1.683 3.038v4.805a1.2 1.2 0 0 0 .352.849l.849.849v5.509a1.2 1.2 0 0 0 1.2 1.2h4.805a1.2 1.2 0 0 0 1.203-1.199m-3.6-18.02a1.2 1.2 0 1 1-1.2 1.2 1.2 1.2 0 0 1 1.196-1.202Zm1.2 12.013v4.805h-2.409v-4.804a1.2 1.2 0 0 0-.352-.849l-.849-.849V20.02a1.2 1.2 0 0 1 1.2-1.2h2.4a1.2 1.2 0 0 1 1.2 1.2v4.308l-.849.849a1.2 1.2 0 0 0-.343.85Z"/><path d="M69.355 22.422a15.617 15.617 0 1 0-15.617 15.617 15.635 15.635 0 0 0 15.617-15.617m-28.832 0a13.215 13.215 0 1 1 13.215 13.215 13.23 13.23 0 0 1-13.217-13.215Z"/><path d="M74.161 22.422a20.423 20.423 0 0 0-40.845 0c0 12.712 7.594 22.987 14.94 32.922l.195.264c-3.4 1.02-5.524 2.977-5.524 5.256 0 3.425 4.648 6.007 10.812 6.007s10.812-2.582 10.812-6.007c0-2.32-2.16-4.3-5.635-5.3l.488-.682c6.918-9.626 14.758-20.537 14.758-32.463Zm-38.442 0a18.02 18.02 0 0 1 36.04 0c0 11.153-7.6 21.73-14.307 31.06a337 337 0 0 0-3.736 5.27c-1.156-1.621-2.359-3.248-3.531-4.834-7.115-9.624-14.47-19.573-14.47-31.5Zm26.429 38.443c0 1.7-3.6 3.6-8.409 3.6s-8.409-1.9-8.409-3.6c0-1.1 1.607-2.477 4.652-3.174a192 192 0 0 1 2.771 3.86 1.2 1.2 0 0 0 .986.515h.012a1.2 1.2 0 0 0 .987-.535 159 159 0 0 1 2.671-3.855c3.072.679 4.739 2.1 4.739 3.188ZM22.426 38.04A15.614 15.614 0 0 0 7.99 59.601l-3.008 3.006a1.2 1.2 0 0 0 0 1.7l.849.849-3.4 3.4a1.2 1.2 0 0 0 0 1.7l3.4 3.4a1.2 1.2 0 0 0 .849.352 1.2 1.2 0 0 0 .851-.354l3.388-3.4.858.858a1.2 1.2 0 0 0 1.7 0l3-3a15.621 15.621 0 1 0 5.949-30.072M6.682 71.099l-1.7-1.7 2.548-2.548 1.69 1.69Zm5.949-2.547-5.1-5.1 1.614-1.612a15.15 15.15 0 0 0 5.095 5.1Zm19.143-5.551a13.214 13.214 0 1 1 3.871-9.344 13.13 13.13 0 0 1-3.875 9.344Z"/><path d="M14.78 46.012a10.812 10.812 0 1 0 15.289 0 10.826 10.826 0 0 0-15.289 0m13.593 13.592a8.406 8.406 0 1 1 0-11.893 8.42 8.42 0 0 1 0 11.893"/><path d="M17.699 52.455h2.4a2.4 2.4 0 0 1 2.4-2.4V47.65a4.81 4.81 0 0 0-4.8 4.805m-4.922-39.477 6.658 4.438a1.2 1.2 0 0 0 1.388-.037l9.069-6.791 1.808 1.815a1.2 1.2 0 0 0 .849.352 1.2 1.2 0 0 0 .38-.062 1.2 1.2 0 0 0 .81-.969l.849-5.947a1.2 1.2 0 0 0-.34-1.02 1.2 1.2 0 0 0-1.02-.339l-5.947.849a1.2 1.2 0 0 0-.68 2.039l1.568 1.568-8.111 6.074-6.5-4.333a1.2 1.2 0 0 0-1.154-.1l-10.81 4.803.975 2.2Zm19.209-5.957L31.7 9.003l-1.7-1.7Z"/><path d="M4.482 20.016v6.007h-2.4v2.4h28.832v-2.4h-2.4v-9.607h-2.4v9.611h-4.811v-6.011h-2.4v6.007h-4.808v-9.607h-2.4v9.611H6.887v-6.011Z"/></g></svg>