<svg xmlns="http://www.w3.org/2000/svg" width="104" height="104" viewBox="0 0 104 104"><g fill="#5aa6ff" transform="translate(-4703 9439.01)"><path d="M4755-9437.01a50.014 50.014 0 0 0-19.462 96.072 50.014 50.014 0 0 0 38.924-92.144 49.7 49.7 0 0 0-19.462-3.928m0-2a52 52 0 1 1-52 52 52 52 0 0 1 52-52"/><g transform="translate(4722 -9414.021)"><path fill-rule="evenodd" d="M36.945 54.49a11.8 11.8 0 0 1-4.435-.865l-16.891-6.864a10.6 10.6 0 0 0-6.355-.519l-3.518.8a.756.756 0 0 1-.335-1.474l3.52-.8a12.1 12.1 0 0 1 7.257.593l16.892 6.864a10.28 10.28 0 0 0 8.333-.269l21.636-10.458a2.546 2.546 0 0 0-1.792-4.745l-18.162 5.06a.756.756 0 1 1-.406-1.456l18.161-5.059a4.058 4.058 0 0 1 2.856 7.562L42.072 53.317a11.8 11.8 0 0 1-5.127 1.173"/><path d="M36.945 54.99a12.2 12.2 0 0 1-4.623-.9l-16.891-6.866a10.1 10.1 0 0 0-3.806-.748 10.2 10.2 0 0 0-2.249.253l-3.518.8a1.256 1.256 0 1 1-.556-2.449l3.52-.8a12.7 12.7 0 0 1 2.803-.315 12.6 12.6 0 0 1 4.751.933l16.892 6.864a9.78 9.78 0 0 0 7.927-.256l21.636-10.461a2.046 2.046 0 0 0-1.44-3.813l-18.166 5.059a1.256 1.256 0 1 1-.674-2.419l18.161-5.06a4.558 4.558 0 0 1 3.213 8.494L42.29 53.767a12.34 12.34 0 0 1-5.294 1.223h-.05Zm-.021-1h.021a11.3 11.3 0 0 0 4.909-1.123l21.634-10.462a3.558 3.558 0 0 0-2.5-6.63l-18.163 5.061a.256.256 0 1 0 .137.493l18.163-5.061a3.046 3.046 0 0 1 2.144 5.677L41.631 52.406a10.78 10.78 0 0 1-8.739.282L16 45.824a11.6 11.6 0 0 0-4.375-.859 11.7 11.7 0 0 0-2.584.29l-3.52.8a.254.254 0 0 0-.193.305.257.257 0 0 0 .3.193l3.519-.8a11.2 11.2 0 0 1 2.47-.277 11.1 11.1 0 0 1 4.184.821l16.892 6.864a11.2 11.2 0 0 0 4.232.829Z"/><path fill-rule="evenodd" d="M39.991 45.093a3.7 3.7 0 0 1-1.092-.165l-13.443-4.126a.756.756 0 1 1 .443-1.445l13.445 4.127a2.173 2.173 0 0 0 2.809-2.077 2 2 0 0 0-.014-.242 2.16 2.16 0 0 0-1.039-1.617l-16.51-6.719a24.7 24.7 0 0 0-11.629-1.7l-7.324.711a.756.756 0 0 1-.147-1.5l7.322-.712a26.2 26.2 0 0 1 12.345 1.8l16.558 6.738a1 1 0 0 1 .088.043 3.68 3.68 0 0 1 1.835 2.787 4 4 0 0 1 .024.409 3.69 3.69 0 0 1-3.673 3.687Z"/><path d="M39.991 45.593a4.2 4.2 0 0 1-1.239-.187l-13.44-4.122a1.256 1.256 0 1 1 .737-2.4l13.444 4.125a1.663 1.663 0 0 0 2.065-1.038 1.7 1.7 0 0 0 .1-.561 2 2 0 0 0-.012-.19 1.67 1.67 0 0 0-.768-1.221l-16.476-6.707a24.4 24.4 0 0 0-9.09-1.773c-.768 0-1.543.037-2.3.111l-7.324.711c-.04 0-.082.006-.123.006a1.256 1.256 0 0 1-.123-2.506l7.325-.711a26 26 0 0 1 2.546-.123 26.9 26.9 0 0 1 10.035 1.959l16.558 6.738a1 1 0 0 1 .149.073 4.18 4.18 0 0 1 2.083 3.165 4 4 0 0 1 .027.465 4.19 4.19 0 0 1-4.173 4.187Zm-14.314-5.769a.256.256 0 0 0-.074.5l13.443 4.125a3.2 3.2 0 0 0 .945.143 3.19 3.19 0 0 0 3.173-3.187 3 3 0 0 0-.021-.355 3.18 3.18 0 0 0-1.585-2.407h-.007l-.02-.01-16.56-6.741a25.9 25.9 0 0 0-9.659-1.885c-.817 0-1.641.04-2.45.118l-7.325.711a.256.256 0 0 0 .05.509l7.325-.71c.792-.077 1.6-.116 2.4-.116a25.4 25.4 0 0 1 9.465 1.847l16.544 6.733.032.019a2.67 2.67 0 0 1 1.28 1.992 3 3 0 0 1 .018.3 2.676 2.676 0 0 1-2.664 2.674 2.7 2.7 0 0 1-.79-.12l-13.444-4.128a.3.3 0 0 0-.076-.012"/><path fill-rule="evenodd" d="M1.511 48.15h2.721a.59.59 0 0 0 .588-.589V30.306a.59.59 0 0 0-.588-.588H1.511v18.43Zm2.721 1.511H.755A.756.756 0 0 1 0 48.906V28.965a.756.756 0 0 1 .755-.759h3.477a2.1 2.1 0 0 1 2.1 2.1v17.255a2.1 2.1 0 0 1-2.1 2.1"/><path d="M4.232 50.162H.755A1.257 1.257 0 0 1-.5 48.906V28.965a1.257 1.257 0 0 1 1.255-1.259h3.477a2.6 2.6 0 0 1 2.6 2.6v17.255a2.6 2.6 0 0 1-2.6 2.6Zm0-21.456H.755a.256.256 0 0 0-.256.256v19.944a.256.256 0 0 0 .256.256h3.477a1.6 1.6 0 0 0 1.6-1.6V30.306a1.6 1.6 0 0 0-1.6-1.6m0 19.942H1.011V29.22h3.221a1.09 1.09 0 0 1 1.088 1.086v17.255a1.09 1.09 0 0 1-1.088 1.089Zm-2.221-1h2.221a.09.09 0 0 0 .088-.089V30.306a.09.09 0 0 0-.088-.088H2.011Z"/><path fill-rule="evenodd" d="M46.312 30.107a.75.75 0 0 1-.629-.34 7.373 7.373 0 0 0-12.3-.038.755.755 0 1 1-1.255-.84 8.883 8.883 0 0 1 14.815.047.756.756 0 0 1-.631 1.171"/><path d="M46.313 30.607a1.25 1.25 0 0 1-1.05-.571 6.873 6.873 0 0 0-11.46-.029 1.257 1.257 0 1 1-2.087-1.4 9.383 9.383 0 0 1 15.645.05 1.256 1.256 0 0 1-1.048 1.95m-6.79-4.661a7.85 7.85 0 0 1 6.576 3.546.25.25 0 0 0 .214.115.25.25 0 0 0 .138-.041.255.255 0 0 0 .075-.354 8.383 8.383 0 0 0-13.979-.045.255.255 0 1 0 .424.284 7.87 7.87 0 0 1 6.552-3.505"/><path fill-rule="evenodd" d="M39.523 18.774a3.082 3.082 0 1 0 3.081 3.08 3.086 3.086 0 0 0-3.081-3.08m0 7.675a4.593 4.593 0 1 1 4.593-4.595 4.6 4.6 0 0 1-4.593 4.593Z"/><path d="M39.523 16.76a5.093 5.093 0 1 1-5.093 5.094 5.06 5.06 0 0 1 5.093-5.094m0 9.187a4.093 4.093 0 0 0 0-8.187 4.093 4.093 0 0 0 0 8.187m0-7.675a3.582 3.582 0 0 1 0 7.164 3.582 3.582 0 0 1 0-7.164m0 6.164a2.582 2.582 0 1 0-2.586-2.582 2.585 2.585 0 0 0 2.586 2.582"/><path fill-rule="evenodd" d="m35.279 4.924 1.571 1.735a1.2 1.2 0 0 1 .3.925L36.9 9.91l2.137-.959a1.2 1.2 0 0 1 .968 0l2.138.959-.251-2.328a1.2 1.2 0 0 1 .3-.926l1.571-1.732-2.291-.48a1.2 1.2 0 0 1-.783-.569l-1.168-2.036-1.166 2.034a1.18 1.18 0 0 1-.782.57l-2.294.48Zm7.25 6.702a1.2 1.2 0 0 1-.483-.1l-2.525-1.135-2.524 1.132a1.185 1.185 0 0 1-1.662-1.207l.3-2.749-1.859-2.051a1.184 1.184 0 0 1 .637-1.954l2.7-.567 1.38-2.399a1.2 1.2 0 0 1 1.03-.6 1.17 1.17 0 0 1 1.023.6l1.376 2.4 2.705.567a1.185 1.185 0 0 1 .639 1.953l-1.853 2.049.3 2.75a1.184 1.184 0 0 1-1.178 1.312Z"/><path d="M39.524-.5h.006a1.67 1.67 0 0 1 1.453.847l1.264 2.2 2.485.521a1.685 1.685 0 0 1 .9 2.778l-1.701 1.888.272 2.527a1.685 1.685 0 0 1-2.363 1.718l-2.319-1.04-2.319 1.04a1.69 1.69 0 0 1-1.68-.175 1.69 1.69 0 0 1-.684-1.544l.275-2.526-1.7-1.883a1.684 1.684 0 0 1 .9-2.779l2.49-.522 1.265-2.2a1.7 1.7 0 0 1 1.445-.85Zm3.45 7.8 1.921-2.122a.685.685 0 0 0-.367-1.129l-2.925-.613-1.49-2.592a.67.67 0 0 0-.377-.311v.683l1.386 2.41a.7.7 0 0 0 .453.328l3.142.658-.393.434.277.407-.277-.407-1.76 1.946a.7.7 0 0 0-.175.536l.344 3.2-.476-.213-.553-.032v-.042l.008-.046.246.044.148.009-2.307-1.041a.7.7 0 0 0-.56 0l-2.926 1.316.344-3.192a.7.7 0 0 0-.174-.538l-2.16-2.377 3.148-.659a.68.68 0 0 0 .449-.327l1.268-2.214-.068-.01-.331.161-.076-.151-.05-.112-1.224 2.134h-.008l-.018.026-.02-.016-.047.01-.14-.158.14.158-2.833.593a.684.684 0 0 0-.363 1.13l2 2.214-.008.079-.312 2.893a.685.685 0 0 0 .682.758.7.7 0 0 0 .278-.059l2.729-1.224 2.729 1.224a.684.684 0 0 0 .959-.7l-.32-2.963v-.01l.007-.048h.029l.013-.02ZM38.74 1.169l.487-.6a.7.7 0 0 0-.3.279Zm4.067 4.065-1.437-.3a1.7 1.7 0 0 1-1.114-.809l-.734-1.28-.733 1.277a1.68 1.68 0 0 1-1.112.811l-1.443.3.99 1.093a1.7 1.7 0 0 1 .422 1.312l-.157 1.46 1.342-.6a1.7 1.7 0 0 1 1.377 0l1.344.6-.157-1.462a1.68 1.68 0 0 1 .43-1.317Z"/><path fill-rule="evenodd" d="M54.138 8.861v.005zm-2.06 4.336a1.1 1.1 0 0 1 .45.1l1.37.614-.163-1.5a1.1 1.1 0 0 1 .273-.843l1.013-1.119-1.472-.308a1.08 1.08 0 0 1-.722-.528l-.748-1.3-.749 1.305a1.1 1.1 0 0 1-.72.523l-1.47.308 1.008 1.116a1.1 1.1 0 0 1 .276.849l-.162 1.494 1.374-.611a1.1 1.1 0 0 1 .442-.1m.181 1.472h-.005Zm-2.497 1.016a1.09 1.09 0 0 1-1.083-1.2l.226-2.046-1.383-1.524a1.086 1.086 0 0 1 .583-1.792l2.009-.426 1.022-1.778a1.1 1.1 0 0 1 .946-.546h.008a1.09 1.09 0 0 1 .934.547l1.022 1.777 2.01.421a1.085 1.085 0 0 1 .58 1.795l-1.378 1.526.222 2.044a1.088 1.088 0 0 1-1.526 1.108l-1.875-.842-1.874.841a1.1 1.1 0 0 1-.443.1Z"/><path d="M52.084 5.872h.008a1.59 1.59 0 0 1 1.365.8l.91 1.586 1.79.375a1.585 1.585 0 0 1 .848 2.622l-1.226 1.353.2 1.82a1.6 1.6 0 0 1-.648 1.455 1.59 1.59 0 0 1-1.58.163l-1.672-.749-1.669.749a1.59 1.59 0 0 1-1.58-.163 1.59 1.59 0 0 1-.648-1.454l.2-1.822-1.231-1.356A1.586 1.586 0 0 1 48 8.634l1.792-.376.913-1.588a1.61 1.61 0 0 1 1.37-.8Zm1.6 3.205-1.1-1.909a.6.6 0 0 0-.379-.282v.648l1.05 1.829a.58.58 0 0 0 .391.287l1.9.4-.22-.283-.217-.16.059-.081.087-.053.437.558.088.065.19.04-.065.081-.046.063-.024.014-.089.1v.703-.7l-1.368 1.507a.6.6 0 0 0-.146.453l.257 2.364-2.166-.97a.6.6 0 0 0-.245-.054.6.6 0 0 0-.234.051l-2.009.9-.5.352a.59.59 0 0 0 .668.134l2-.9.017-.05.065.013.048-.015.017.048 2.009.9a.588.588 0 0 0 .824-.6l-.246-2.265.018-.02 1.51-1.668a.585.585 0 0 0-.311-.97l-2.155-.452-.042.027-.052-.059Zm-1.898-1.26-.513-.132-.837 1.46-2.231.467a.586.586 0 0 0-.313.967l1.513 1.67h.019v.048l-.169 1.517.08-.037.47-.333.117-1.084a.6.6 0 0 0-.147-.463l-1.591-1.758 2.321-.487a.6.6 0 0 0 .39-.283Zm2.279 2.943-.619-.13a1.58 1.58 0 0 1-1.055-.772l-.311-.542-.316.551a1.6 1.6 0 0 1-1.052.764l-.618.13.425.47a1.6 1.6 0 0 1 .4 1.239l-.066.627.578-.259a1.57 1.57 0 0 1 1.3 0l.574.259-.068-.63a1.6 1.6 0 0 1 .4-1.231Z"/><path fill-rule="evenodd" d="M30.183 12.247s0 .001 0 0m-3.159.95a1.1 1.1 0 0 1 .45.1l1.37.614-.167-1.499a1.1 1.1 0 0 1 .273-.843l1.013-1.119-1.468-.309a1.08 1.08 0 0 1-.718-.527l-.748-1.3-.752 1.304a1.1 1.1 0 0 1-.72.523l-1.472.308 1.01 1.116a1.1 1.1 0 0 1 .275.849l-.162 1.494 1.369-.611a1.1 1.1 0 0 1 .444-.1Zm-.173 1.472h.005Zm-2.143 1.016a1.086 1.086 0 0 1-1.082-1.2l.221-2.045-1.379-1.525a1.086 1.086 0 0 1 .581-1.792l2.011-.426 1.017-1.778a1.1 1.1 0 0 1 .945-.546 1.09 1.09 0 0 1 .939.546l1.031 1.778 2.01.421a1.085 1.085 0 0 1 .575 1.799l-1.373 1.522.222 2.044a1.088 1.088 0 0 1-1.526 1.108l-1.875-.842-1.874.841a1.1 1.1 0 0 1-.443.095"/><path d="M27.027 5.872h.009a1.6 1.6 0 0 1 1.227.593l.028.005.126.226.9 1.56 1.791.375a1.585 1.585 0 0 1 .846 2.622l-1.229 1.355.2 1.82a1.6 1.6 0 0 1-.647 1.455 1.59 1.59 0 0 1-1.58.163l-1.673-.749-1.669.749a1.59 1.59 0 0 1-1.579-.161 1.59 1.59 0 0 1-.648-1.455l.2-1.822-1.232-1.357a1.586 1.586 0 0 1 .849-2.617l1.792-.376.91-1.588a1.6 1.6 0 0 1 .878-.716v-.081Zm0 1a.6.6 0 0 0-.512.3l-.121.211.406.29h.017l.209-.365 1.18 2.058a.58.58 0 0 0 .391.286l1.9.4-.2-.272-.23-.183.072-.093.073-.036-1.456-.305-.041.034.041-.038-.061-.013-.014.01-.022-.031-.019-.028-1.115-1.945a.59.59 0 0 0-.497-.279Zm-.289.933-.52-.12-.841 1.46-2.231.467a.586.586 0 0 0-.313.967l1.511 1.67h.023v.02l-.166 1.542.091-.04.461-.3.124-1.111a.6.6 0 0 0-.155-.463l-1.594-1.758 2.325-.487a.6.6 0 0 0 .389-.283Zm2.273 2.955-.619-.13a1.58 1.58 0 0 1-1.055-.771l-.312-.543-.316.551a1.6 1.6 0 0 1-1.052.764l-.619.13.425.47a1.6 1.6 0 0 1 .4 1.24l-.064.626.578-.261a1.58 1.58 0 0 1 1.306 0l.571.256-.068-.63a1.58 1.58 0 0 1 .4-1.231Zm1.366.737.83-.917a.585.585 0 0 0-.312-.97l-.635-.133.381.562.072.055.205.043-.091.1-.036.047-.014.013-.634.7Zm-.679.949-.053-.069.049-.235.183-.845-.551.609a.58.58 0 0 0-.147.451l.257 2.366-2.167-.972a.58.58 0 0 0-.482 0l-1.754.788-.261.114-.506.334a.6.6 0 0 0 .442.2.6.6 0 0 0 .238-.051l1.986-.892.019-.061.076.016.052.029 2.025.908a.588.588 0 0 0 .824-.6Z"/><path fill-rule="evenodd" d="M39.554 14.982a8.316 8.316 0 1 0 8.316 8.316 8.326 8.326 0 0 0-8.316-8.316m0 18.143a9.827 9.827 0 1 1 9.828-9.827 9.84 9.84 0 0 1-9.828 9.827"/><path d="M39.554 12.97a10.327 10.327 0 1 1-10.328 10.328A10.34 10.34 0 0 1 39.554 12.97m0 19.654a9.327 9.327 0 1 0-9.328-9.327 9.264 9.264 0 0 0 9.328 9.327m0-18.143a8.816 8.816 0 1 1-8.816 8.816 8.757 8.757 0 0 1 8.816-8.815Zm0 16.632a7.816 7.816 0 1 0-7.816-7.816 7.825 7.825 0 0 0 7.816 7.817Z"/></g></g></svg>