<svg xmlns="http://www.w3.org/2000/svg" width="82.521" height="40.211" viewBox="0 0 82.521 40.211"><g fill="#5aa6ff" transform="translate(-1142.815 -3012.333)"><path d="m1144.505 3029.714-.74-.673 14.743-16.216.74.673Z"/><path d="m1159.033 3029.258-16.217-14.743.672-.74 16.218 14.743Zm-14.486 23.286-.74-.673 14.743-16.216.74.673Z"/><path d="m1159.076 3052.088-16.217-14.743.672-.74 16.218 14.743Zm6.205-22.865-.74-.673 14.743-16.216.74.673Z"/><path d="m1179.809 3028.765-16.217-14.743.672-.74 16.218 14.743Zm-14.484 23.288-.74-.673 14.743-16.216.74.673Z"/><path d="m1179.852 3051.595-16.217-14.743.672-.74 16.218 14.743Zm9.464-21.881-.74-.673 14.743-16.216.74.673Z"/><path d="m1203.844 3029.258-16.217-14.743.672-.74 16.218 14.743Zm-14.485 23.286-.74-.673 14.743-16.216.74.673Z"/><path d="m1203.886 3052.088-16.217-14.743.672-.74 16.218 14.743Zm6.206-22.865-.74-.673 14.743-16.216.74.673Z"/><path d="m1224.621 3028.765-16.217-14.743.672-.74 16.218 14.743Zm-14.486 23.288-.74-.673 14.743-16.216.74.673Z"/><path d="m1224.664 3051.595-16.217-14.743.672-.74 16.218 14.743Z"/></g></svg>