<svg xmlns="http://www.w3.org/2000/svg" width="60" height="60" viewBox="0 0 60 60"><path fill="#5aa6ff" d="M30 10a5 5 0 1 0-5-5 5 5 0 0 0 5 5m0-8a3 3 0 1 1-3 3 3 3 0 0 1 3-3m30 42h-4.1c-.995-4.881-9.229-8.742-20.263-9.738L35.943 29H37a3 3 0 0 0 3-3v-8a6.006 6.006 0 0 0-6-6h-8a6.006 6.006 0 0 0-6 6v8a3 3 0 0 0 3 3h1.057l.31 5.263C13.333 35.259 5.1 39.12 4.1 44H0v2h4.107C5.238 51.544 15.693 55.786 29 55.99V60h2v-4.01c13.307-.2 23.762-4.446 24.893-9.99H60ZM22 26v-8a4 4 0 0 1 4-4h8a4 4 0 0 1 4 4v8a1 1 0 0 1-1 1h-1v-9h-2v9.975L33.057 44H31V27h-2v17h-2.057L26 27.975V18h-2v9h-1a1 1 0 0 1-1-1m9 27.98V49h-2v4.98C16.286 53.784 7.487 49.927 6.186 46H20v-2H6.187c1.141-3.443 8.042-6.833 18.3-7.75L25 45.059A1 1 0 0 0 26 46h8a1 1 0 0 0 1-.941l.518-8.8c10.248.918 17.154 4.3 18.3 7.738H40v2h13.814c-1.301 3.93-10.1 7.787-22.814 7.983"/></svg>