<svg xmlns="http://www.w3.org/2000/svg" width="47" height="47" viewBox="0 0 47 47"><path fill="#986f1c" fill-rule="evenodd" d="M34.791 38.9h7.347A4.864 4.864 0 0 0 47 34.035c0-.008 0-3.985-.011-6.546a3.23 3.23 0 0 0-3.564-3.206l-.476.028a4.052 4.052 0 1 1 0-8.1 2.3 2.3 0 0 1 .381.026l.094.011A3.24 3.24 0 0 0 47 13.022v-8.16A4.864 4.864 0 0 0 42.138 0c-.01 0-4.569 0-7.356.011a3.23 3.23 0 0 0-3.206 3.564l.028.477a4.052 4.052 0 1 1-8.1 0 2.3 2.3 0 0 1 .026-.381c0-.032.008-.063.011-.094A3.24 3.24 0 0 0 20.315 0h-7.35a4.864 4.864 0 0 0-4.862 4.862v8.149a7 7 0 0 0-.81-.045 7.293 7.293 0 0 0 0 14.586 7 7 0 0 0 .81-.045v6.528a4.864 4.864 0 0 0 4.862 4.862s4.551 0 7.337.011a7 7 0 0 0-.044.8 7.293 7.293 0 1 0 14.586 0 6 6 0 0 0-.053-.808M20.312 3.245a6 6 0 0 0-.053.81 7.293 7.293 0 0 0 14.586 0 7 7 0 0 0-.044-.8c2.786-.011 7.337-.011 7.337-.011a1.62 1.62 0 0 1 1.621 1.621v8.157a6 6 0 0 0-.81-.053 7.293 7.293 0 1 0 0 14.586 7 7 0 0 0 .8-.044c.011 2.557.011 6.527.011 6.527a1.62 1.62 0 0 1-1.621 1.621h-7.35a3.24 3.24 0 0 0-3.222 3.577q.002.046.011.094a2.3 2.3 0 0 1 .026.381 4.052 4.052 0 1 1-8.1 0l.028-.476a3.23 3.23 0 0 0-3.212-3.564c-2.784-.011-7.35-.011-7.35-.011a1.62 1.62 0 0 1-1.621-1.621v-8.65a1.62 1.62 0 0 0-2.316-1.464 4.052 4.052 0 1 1 0-7.326 1.62 1.62 0 0 0 2.316-1.463V4.866a1.62 1.62 0 0 1 1.621-1.621Z"/></svg>