<svg xmlns="http://www.w3.org/2000/svg" width="85" height="85" viewBox="0 0 85 85"><g transform="translate(-297.345 -776.142)"><path fill="#eef6ff" d="M339.678 776.479a42.332 42.332 0 1 1-42.328 42.332 42.33 42.33 0 0 1 42.333-42.332"/><g fill="#481d1d" transform="translate(364.002 776.479)"><path d="m.848 8.46-.74-.673 7.17-7.884.74.673Z"/><path d="M7.548 8.255-.336 1.087l.672-.74 7.885 7.17ZM.869 19.56l-.74-.673 7.17-7.884.74.673Z"/><path d="m7.569 19.355-7.884-7.168.672-.74 7.885 7.17Zm3.38-11.134-.74-.673 7.17-7.884.74.673Z"/><path d="M17.649 8.016 9.765.848l.672-.74 7.885 7.17ZM10.97 19.321l-.74-.673 7.17-7.884.74.673Z"/><path d="m17.67 19.116-7.884-7.168.672-.74 7.885 7.17Z"/></g><g fill="#5aa6ff" transform="translate(314.689 792.521)"><path d="M43.403 37.224a5.786 5.786 0 1 0-6.5 0 9.8 9.8 0 0 0-2.9 1.616 13.7 13.7 0 0 0-5.145-2.822 7.948 7.948 0 1 0-7.722 0 13.7 13.7 0 0 0-5.145 2.823 9.8 9.8 0 0 0-2.9-1.616 5.789 5.789 0 1 0-6.5 0 9.84 9.84 0 0 0-6.588 9.262.781.781 0 0 0 1.562 0 8.264 8.264 0 0 1 13.293-6.555 13.66 13.66 0 0 0-3.6 9.256.781.781 0 0 0 1.562 0 12.169 12.169 0 1 1 24.337 0 .781.781 0 0 0 1.562 0 13.66 13.66 0 0 0-3.58-9.256 8.264 8.264 0 0 1 13.273 6.555.781.781 0 0 0 1.562 0 9.84 9.84 0 0 0-6.571-9.263m-37.8-4.787a4.228 4.228 0 1 1 4.228 4.228 4.23 4.23 0 0 1-4.228-4.228m13-3.365a6.387 6.387 0 1 1 6.387 6.387 6.387 6.387 0 0 1-6.387-6.387m17.318 3.365a4.228 4.228 0 1 1 4.224 4.228 4.23 4.23 0 0 1-4.226-4.228Z"/><path d="M5.468 19.519a3.4 3.4 0 0 0 .488-.023l1.234 5.2a.78.78 0 0 0 .757.6 1 1 0 0 0 .183 0 .78.78 0 0 0 .578-.941l-1.233-5.226a5.465 5.465 0 0 0 3.209-6.715l10.481-5.028a4.7 4.7 0 0 0 .917.968l-9.065 16.5a.781.781 0 0 0 1.37.75L23.449 9.1a4.5 4.5 0 0 0 .757.2v9.44a.781.781 0 1 0 1.562 0V9.3a4.5 4.5 0 0 0 .757-.2l9.061 16.5a.781.781 0 0 0 1.37-.75l-9.065-16.5a4.7 4.7 0 0 0 .917-.968l10.482 5.032a5.465 5.465 0 0 0 3.209 6.711l-1.23 5.18a.78.78 0 0 0 .582.941.7.7 0 0 0 .18.023.78.78 0 0 0 .757-.6l1.23-5.18c.16 0 .324.023.488.023a5.465 5.465 0 1 0-4.536-8.51L29.485 5.977a4.6 4.6 0 0 0 .187-1.292 4.685 4.685 0 1 0-9.369 0 4.6 4.6 0 0 0 .187 1.291l-10.483 5.033a5.465 5.465 0 1 0-4.536 8.51Zm39.039-9.369a3.9 3.9 0 1 1-3.9 3.9 3.9 3.9 0 0 1 3.9-3.9m-19.52-8.588a3.123 3.123 0 1 1-3.123 3.123 3.123 3.123 0 0 1 3.123-3.123M5.468 10.15a3.9 3.9 0 1 1-3.9 3.9 3.9 3.9 0 0 1 3.9-3.9"/></g></g></svg>