<svg xmlns="http://www.w3.org/2000/svg" width="61.6" height="61.609" viewBox="0 0 61.6 61.609"><g fill="#feba30"><path d="M55.46 6.133a20.986 20.986 0 0 0-30.338 28.988l-2.545 2.545a4.58 4.58 0 0 0-5.714.607L.913 54.225a3.123 3.123 0 0 0 0 4.412l2.059 2.06a3.126 3.126 0 0 0 4.413 0l15.951-15.951a4.58 4.58 0 0 0 .6-5.72l2.535-2.535a20.5 20.5 0 0 0 6.521 4.054 8.766 8.766 0 1 0 15.243-.005 20.6 20.6 0 0 0 7.222-4.711 21.02 21.02 0 0 0 0-29.7ZM21.974 43.384 6.024 59.336a1.2 1.2 0 0 1-1.69 0l-2.059-2.06a1.2 1.2 0 0 1 0-1.689l15.95-15.952a2.65 2.65 0 0 1 3.743-.006h.007a2.655 2.655 0 0 1-.001 3.755m18.649 8.313a6.84 6.84 0 1 1 6.835-6.836 6.85 6.85 0 0 1-6.835 6.836m6.425-12.778a8.72 8.72 0 0 0-12.863.006 18.64 18.64 0 0 1-7.048-4.455 1 1 0 0 0-.083-.072 19.073 19.073 0 1 1 27.044.072 18.7 18.7 0 0 1-7.051 4.45Z"/><path d="M43.81 20.887a4.89 4.89 0 0 0 1.728-3.713v-2.16a4.921 4.921 0 0 0-9.841 0v2.16a4.89 4.89 0 0 0 1.729 3.713 7.55 7.55 0 0 0-4.355 6.829 4.163 4.163 0 0 0 4.159 4.159h6.776a4.163 4.163 0 0 0 4.159-4.159 7.55 7.55 0 0 0-4.355-6.829m-6.187-3.713v-2.16a3 3 0 0 1 5.99 0v2.16a3 3 0 0 1-5.99 0m6.383 12.775H37.23a2.235 2.235 0 0 1-2.233-2.233 5.621 5.621 0 1 1 11.242 0 2.235 2.235 0 0 1-2.233 2.234Zm-1.55 12.403-2.964 2.965-.713-.713a.963.963 0 0 0-1.362 1.361l1.393 1.393a.963.963 0 0 0 1.361 0l3.645-3.646a.963.963 0 0 0-1.361-1.361Z"/></g></svg>