<svg xmlns="http://www.w3.org/2000/svg" width="104" height="104" viewBox="0 0 104 104"><g fill="#5aa6ff" transform="translate(-775.986 -2303.08)"><path d="M827.986 2305.08a50.014 50.014 0 0 0-19.462 96.072 50.014 50.014 0 0 0 38.924-92.144 49.7 49.7 0 0 0-19.462-3.928m0-2a52 52 0 1 1-52 52 52 52 0 0 1 52-52"/><g transform="translate(800 2323.852)"><path d="M59.611 58.527h-3.446c-.824-3.989-1.311-8.671-6.72-11.088 2.861-2.179 2.58-4.942 2.58-7.338a6.503 6.503 0 0 0-13.006 0c0 2.58-.26 5.17 2.569 7.338-2.048.9-.347.975-2.97-1.16a13.3 13.3 0 0 0-3.88-2.168c3.447-2.46 3.252-5.755 3.252-8.346a7.587 7.587 0 0 0-15.174 0c0 2.406-.369 5.809 3.252 8.356a13.1 13.1 0 0 0-5.679 3.945 9 9 0 0 0-1.181-.629c2.764-2.189 2.471-4.953 2.471-7.338a6.503 6.503 0 0 0-13.006 0c0 2.58-.26 5.181 2.58 7.348-5.43 2.406-5.929 7.24-6.72 11.077H1.084a1.084 1.084 0 1 0 0 2.168h58.527a1.084 1.084 0 1 0 0-2.168ZM41.186 42.27v-2.168a4.336 4.336 0 0 1 8.671 0v2.168a4.336 4.336 0 1 1-8.671 0m-16.258-4.335v-2.168a5.419 5.419 0 0 1 10.838 0v2.168a5.419 5.419 0 0 1-10.838 0m-14.09 4.335v-2.168a4.336 4.336 0 0 1 8.671 0v2.168a4.336 4.336 0 1 1-8.671 0M7.392 55.395a7.89 7.89 0 0 1 11.63-5.538c-1.485 2.493-1.734 4.845-2.558 8.671h-5.322l.78-2.991a1.115 1.115 0 1 0-2.168-.52l-.845 3.512H6.741Zm31.518 3.132-1.084-4.574a1.084 1.084 0 0 0-2.1.531l.954 4.043H24.083l.845-4.119a1.106 1.106 0 0 0-2.168-.434l-.889 4.552h-3.186a56 56 0 0 1 1.246-5.517 11 11 0 0 1 19.379-2.861c1.68 2.341 1.843 4.335 2.7 8.378Zm12.876 0-.845-3.512a1.084 1.084 0 0 0-2.1.52l.715 2.991h-5.325c-.921-4.335-1.181-6.395-2.558-8.671A7.87 7.87 0 0 1 53.3 55.428l.639 3.1Z"/><path d="M53.108 0H7.587A7.587 7.587 0 0 0 0 7.587v6.5a7.587 7.587 0 0 0 7.587 7.587h3.663l2.959 5.907a1.084 1.084 0 0 0 1.929 0l2.962-5.904h8.411l1.875 3.739a1.084 1.084 0 0 0 1.929 0l1.875-3.739h8.41l2.959 5.907a1.084 1.084 0 0 0 1.929 0l2.959-5.907h3.663a7.587 7.587 0 0 0 7.587-7.587v-6.5A7.587 7.587 0 0 0 53.108 0m5.419 14.09a5.42 5.42 0 0 1-5.419 5.419h-4.335c-.889 0-.845.347-3.252 5.159-2.46-4.91-2.374-5.159-3.252-5.159-10.838 0-10.318-.206-10.719.6l-1.2 2.4-1.2-2.4c-.4-.813-.065-.6-10.719-.6-.889 0-.845.347-3.252 5.159-2.46-4.91-2.374-5.159-3.252-5.159h-4.34a5.42 5.42 0 0 1-5.419-5.419v-6.5a5.42 5.42 0 0 1 5.419-5.419h45.521a5.42 5.42 0 0 1 5.419 5.419Z"/><path d="m19.639 8.302-2.406-.466-1.188-2.168a1.084 1.084 0 0 0-1.9 0l-1.192 2.168c-2.558.5-2.97.434-3.252 1.192s.26 1.084 1.908 2.872c-.325 2.59-.52 2.97.141 3.436s1.084.087 3.317-.921c2.426 1.08 2.35 1.08 2.678 1.08a1.084 1.084 0 0 0 1.084-1.214l-.271-2.363 1.669-1.8a1.084 1.084 0 0 0-.585-1.821Zm-3.176 4.335c-1.539-.715-1.236-.7-2.731 0 .2-1.647.3-1.355-.845-2.6 1.658-.325 1.409-.163 2.168-1.615.8 1.452.542 1.29 2.168 1.615-1.04 1.225-.965.932-.759 2.623Zm16.194-6.134a3.25 3.25 0 0 0-2.309.954 3.252 3.252 0 1 0-4.606 4.585l3.87 3.868a1.084 1.084 0 0 0 1.528 0l3.837-3.826a3.252 3.252 0 0 0-2.319-5.582Zm.78 4.043-3.089 3.067-3.078-3.1a1.084 1.084 0 0 1 .748-1.843c.531 0 .672.217 1.561 1.084a1.084 1.084 0 0 0 1.528 0l.77-.77a1.104 1.104 0 0 1 1.561 1.561Zm16.549-1.16L47.58 8.92l-1.188-2.168a1.084 1.084 0 0 0-1.9 0L43.3 8.92c-2.558.5-2.97.434-3.252 1.192s.26 1.084 1.908 2.872c-.325 2.59-.52 2.97.141 3.436s1.138.087 3.317-.921c2.426 1.08 2.35 1.08 2.678 1.08a1.084 1.084 0 0 0 1.084-1.214l-.271-2.363 1.669-1.8a1.084 1.084 0 0 0-.585-1.821Zm-3.176 4.335c-1.539-.715-1.236-.7-2.731 0 .2-1.647.3-1.355-.845-2.6 1.658-.325 1.409-.163 2.168-1.615.8 1.452.542 1.29 2.168 1.615-1.04 1.225-.965.932-.759 2.623Z"/></g></g></svg>