<svg xmlns="http://www.w3.org/2000/svg" width="1328" height="440" viewBox="0 0 1328 440"><defs><path id="h" d="M216.955.163h9c0 6.491.694 12.963-.163 19.225-1.27 9.3-.225 18.558-.756 27.811-.19 3.29-1.4 6.483-.79 9.972h-9.868c.563-3.817-1.489-7.413-1.242-11.369-.957 1.844.168 4.208-.766 5.6-1.284 1.92-.123 3.773-1.139 5.9-1.838 0-4.027.021-6.216-.007-2.547-.033-2.541-.053-3.248-2.909-.059-.234-.307-.421-.48-.644-.934.981-.024 2.3-.6 3.445h-11.386v-28.45c-1.421.3-.936 1.185-.92 1.713a15.1 15.1 0 0 1-.866 5.013c-.45 1.453.449 3.23-.957 4.528.565 3.965-1.365 7.723-.938 11.7.2 1.822.511 3.812-2.07 5.483h-6.841c0-5.533-.179-11.151.061-16.752.171-3.973-.878-7.785-1.172-11.686-.271-3.59-1.227-7.249-1.512-10.9-.287-3.7-.068-7.445-.061-11.17 0-2.148 1.562-4.048.723-6.454h14.14a8.53 8.53 0 0 1 1.282 5.5c-.1 3.993-.029 7.991-.029 12.105 1.491-.384.849-1.413.858-2.041.061-4.071 1.485-8.021.98-12.151-.13-1.061 1.545-1.835.714-3.084.421-.233.658-.468.907-.485 4.921-.323 4.759.842 4.607 4.67-.048 1.189.087 2.392-.024 3.574-.6 6.331 1.487 12.528.911 18.853 1.188 2.454.911 5.086.882 7.675-.031 2.6 1.3 4.986.972 7.683a65 65 0 0 0-.06 7.592c1.37-.351.8-1.211.871-1.785a10.4 10.4 0 0 0 .016-2.231c-.629-7.366.62-14.662 1.076-21.971a58 58 0 0 1 .854-9c.65-2.892.194-5.858.929-8.555.579-2.122.481-4.226.853-6.4h9.674v11.354c1.274-1.737.887-2.856.933-3.861a31 31 0 0 1 .071-4.012c.191-1.066 1.211-1.945.794-3.479"/><path id="i" d="M58.524 57.196H46.073c-.313-1.669 1.287-3.039.889-4.826a8.06 8.06 0 0 1 .731-5.01c.656-1.49-.551-3.508.984-4.95-.2-4.08 1.749-8.061.833-12.119-.715-3.167-.775-6.464-1.784-9.526-1.065-3.232-1.993-6.443-1.7-10.049-1.552.666-.837 1.673-.889 2.395a32.7 32.7 0 0 0-.019 5.354c.592 6.476-1.252 12.826-.918 19.281.082 1.59-1.378 2.78-.969 4.559.306 1.332.433 2.923-.823 4.079.416 2.99-.91 6.138.861 9.029.251.41.035 1.107.035 1.783h-7.157c.6-3.746-.389-7.415-1.024-11.043-1.334-7.631-.563-15.255-.735-22.874-.172-7.588-.039-15.183-.039-23.079 6.462-.333 12.937-.049 19.7-.18 0 8.629.051 17.077-.024 25.522-.031 3.491.755 6.909 1.148 10.321.38 3.3.394 6.843 1.652 9.967 1.028 2.557.211 5.354 1.621 7.825.5.875.08 2.276.08 3.543"/><path id="j" d="M325.428 57.302c-2.77 0-5.14.045-7.507-.016-1.594-.041-2.46-.81-2.406-2.36.208-6.017-1.389-11.913-1-17.963.19-2.979-.874-5.935-.939-9.009-.067-3.11 1.342-5.914 1.079-9.024a65 65 0 0 1 0-9.379c.09-1.512 1.109-2.876.881-4.555a38 38 0 0 1-.041-4.772 40 40 0 0 1 6.484-.168c2.216-.051 4.434-.012 6.748-.012 2 8.849.7 17.7 1.128 26.475.086 1.787-1.244 3.142-1.008 5a8.3 8.3 0 0 1-.683 5.05c-.767 1.517.342 3.737-1.03 5.372-.071 5.032-2.283 9.805-1.7 15.356"/><path id="k" d="M279.369.203a8.32 8.32 0 0 1 1.208 5.1c-.349 3.65 1.294 7.1.96 10.809s.254 7.479-.158 11.158a85 85 0 0 1-2.273 13.319c-1.294 4.679-2.466 9.4-3.881 14.05a9 9 0 0 0-.029 2.383c-1.665.691-3.408 0-5.068.382-.715-4.568-1.728-8.775-2.708-13-.628-2.7-1.465-5.53-1.26-8.489.111-1.622.883-3.548-.774-5.025a1.41 1.41 0 0 1-.013-1.288c1.76-3.191.627-6.619.835-9.926.349-5.534 1.462-11.032.913-16.609-.111-1.131 1.312-1.572 1-2.86Z"/><path id="l" d="M240.99 57.302h-6.57c-.646-.933-.351-1.712.021-2.768a10.1 10.1 0 0 0-.083-7.183c-1.058-2.7-1.494-5.6-2.816-8.223-.3-.6-.075-1.441-.229-2.141-2.491-11.378.593-22.75.04-34.127-.1-2.16.633-2.768 2.864-2.8 3.111-.044 6.225-.011 9.642-.011v13.87c0 3.874.024 7.747-.009 11.622-.017 2 .1 3.934-.787 5.931-.782 1.751.529 3.98-.914 5.9-.5.668-.151 2.031-.068 3.068.445 5.572-.672 11.04-1.092 16.86"/><path id="m" d="M93.246.205a17.52 17.52 0 0 1 .482 11.553 13 13 0 0 0-.287 1.66c-.322 2.142.572 4.337-.555 6.48-.993 1.89.361 4.35-1.238 6.189.012 5.109-1.95 10.221-.779 15.246 1.125 4.834.484 9.614.771 14.408a12 12 0 0 1-.094 1.419H81.161a3.68 3.68 0 0 1 .267-3.508c.162-.219.4-.515.357-.732-.628-3.54 1.248-6.819.976-10.365s.552-7.286-.219-10.687c-.9-3.951-.806-8.12-2.5-11.9a3.5 3.5 0 0 1-.023-1.331V.205Z"/><path id="n" d="M252.814.159h5.177a32.7 32.7 0 0 0-.505 13.01 39 39 0 0 1 .62 7.681c-.127 1.711 1.108 2.891 1.045 4.547-.057 1.51-.751 3.264.756 4.571a.52.52 0 0 1 .063.41c-.676 3.388 1.481 6.547.867 9.888-.52 2.841 1.193 5.318.977 8.119s-.048 5.649-.048 8.7h-16.115c0-5.1-.595-10.357.184-15.406.654-4.241.837-8.609 2.335-12.81.857-2.4 1.025-5.157 1.764-7.745a45 45 0 0 0 1.805-7.69c.214-2.157 1.332-4.08 1.12-6.309-.208-2.205-.045-4.446-.045-6.963"/><path id="o" d="M65.687 57.305c0-5.658-.469-11.059.142-16.334.535-4.629.257-9.64 3.383-13.7a3.66 3.66 0 0 1-2.574-3.318c-.6-3.6-2.192-6.883-2.86-10.478a47.6 47.6 0 0 0-2.7-8.244A11.95 11.95 0 0 1 60.41.162h14.92c.936 2.559-1.41 4.915-.69 7.485-2.263 3.987-1.748 8.365-1.793 12.667-.019 1.711.123 3.389-.85 5.018-1.127 1.887-.511 3.938.234 5.823.834 2.113 1.874 4.18 1.49 6.519-.343 2.1 1.314 3.754.986 5.9a13.7 13.7 0 0 0 .06 6.2c.83 2.45.653 4.8.807 7.525h-9.887Z"/><path id="p" d="M305.974.123a6.8 6.8 0 0 1 3.273.223c-.486 5.18 1.546 10.268.87 15.549 1.66 6.065.712 12.259.808 18.393.024 1.542 1.21 2.638.965 4.092-.281 1.671.8 3.55-.806 5.041-.221.2-.138.772.182 1.192 1.3 1.7.576 3.7.557 5.536-.011 1.022-1.062 1.924-.851 3.211a24.5 24.5 0 0 1 .04 3.745h-10.744c0-3.864-.544-7.807.155-11.519.686-3.642.078-7.337.881-10.794.918-3.944.738-7.822.667-11.721-.031-1.693 1.149-2.88 1.053-4.549a8.65 8.65 0 0 1 .623-4.635c.871-1.792.413-4.131.937-6.275.559-2.288.23-4.837 1.391-7.491"/><path id="q" d="M296.016.048c-.629 7.564-1.531 14.706-1.121 21.9-1.473 3.04-.267 6.4-1 9.431-1.125 4.668-.4 9.654-2.582 14.1.4 3.941-1.965 7.615-.643 11.44a6.76 6.76 0 0 1-3.424.311c-1.675-4.345-.75-8.945-1.414-13.327-1.429-9.414-.4-18.833-.8-28.236-.035-.839.172-1.644-.605-2.45-1.23-1.271.972-2.673.5-3.443-1.207-1.975-.569-3.977-.781-5.951a6.4 6.4 0 0 1 0-.893c.095-2.221.651-2.834 2.822-2.871 2.82-.045 5.64-.011 9.048-.011"/><path id="r" d="M16.444.173h6.892c.728 1.246-.416 2.821 1 3.777a.83.83 0 0 1 .143.8c-1.768 3.182-.652 6.615-.8 9.919-.08 1.791-.611 3.64.662 5.525.968 1.434-.746 3.8 1.046 5.348.027 4.806 2.017 9.657.716 14.316-.768 2.756.179 5.709-1.516 8.3a3.77 3.77 0 0 0 .128 3.4c1.266 1.85.333 3.667.778 5.61h-8.938c-.053-1.278-.617-2.673.743-3.85.013-3.27.449-6.607-.051-9.8a48.4 48.4 0 0 1 .049-17.15 23.4 23.4 0 0 0 .043-4.458c0-3.276.416-6.626-.152-9.8a35 35 0 0 1-.74-5.911c-.015-1.926 0-3.852 0-6.03"/><path id="s" d="M7.44 57.175H0c1.653-2.424 1.271-4.886 1.184-7.278-.074-2.053 1.235-3.769.994-5.892-.306-2.7-.086-5.409-.857-8.138-.73-2.579.52-5.482-.938-8.122-.376-.686-.056-1.756-.056-2.649 0-6.557.037-13.105-.027-19.657C.287 3.539.386 1.73 1.568.153h10.48c-.462 2.337.762 4.675-.936 6.814-.29.366-.1 1.165-.032 1.753.4 3.66-1.592 7.118-.9 10.8-1.564 4.106-.819 8.7-2.686 12.738.641 2.1-1 3.85-.913 5.884a34 34 0 0 1-.024 5.8c-.573 4.41 1.247 8.628.887 13.232"/><path id="t" d="M342.348.048c0 3.774-.02 7.32.009 10.865.013 1.586-1.374 2.785-.977 4.56a4.13 4.13 0 0 1-.8 4.1.93.93 0 0 0 0 .863c1.479 2.432.518 5.139.925 7.674.409 2.553.392 5.256 1.03 7.628.942 3.5.7 7.278 2.479 10.566.187.346.02.881.025 1.327.033 2.587-.258 5.2.865 7.685a5.2 5.2 0 0 1 .031 1.847h-12.539c0-2.189-.073-4.522.021-6.849.087-2.129-.624-4.388.865-6.337.071-.095.024-.293.007-.44-.553-4.7 1.62-9.239.865-13.92-.481-2.983 1.245-5.609.989-8.575-.27-3.1-.061-6.249-.061-9.376 0-2.978-.031-5.956.012-8.934.027-1.931.683-2.591 2.561-2.674 1.157-.05 2.321-.01 3.693-.01"/><path id="u" d="M113.301 57.289h-11.742c.418-2.174-.869-4-1.037-6.168-.186-2.4 1.068-4.524.911-6.778-.17-2.468 1.646-4.1 2.122-6.336.584-2.745 1.819-5.394 1.485-8.263-.294-2.531 1.244-4.707.989-7.234a40.6 40.6 0 0 1-.012-7.139 16.5 16.5 0 0 0-1.35-7.059c-.988-2.614-.984-5.426-2.6-8.1h10.034c.67 2.055-1.469 3.586-.748 5.511-2.717 9-1.481 18.248-1.846 27.4-.083 2.092 1.545 3.779.98 5.874 1.664 2.178 1.185 4.926 1.923 7.261 1.16 3.666.258 7.2.9 11.034"/><path id="v" d="M147.107 57.22h-5.315V36.263c1.681-3.789.786-7.787.83-11.684.033-2.944-1.121-5.818-1.443-8.718-.408-3.677-1.918-7.082-2.128-10.782-.086-1.509-1.315-2.877-.591-4.9a42 42 0 0 1 6.226-.122c2.213-.049 4.432-.01 6.713-.01-.489 5.585-1.64 10.932-2.567 16.292-.549 3.174-1.447 6.323-1.626 9.552-.188 3.412-.646 6.986.118 10.229a26.2 26.2 0 0 1 .541 10.793c-.635 3.356-.476 6.629-.758 10.307"/><path id="w" d="M120.229 57.152c.37-2.4-.031-4.565.8-6.921.793-2.249.331-5.009.126-7.521-.2-2.416.64-4.847-.663-7.309-.678-1.282-.2-3.191-.18-4.818.036-4.146-.481-8.377 1.784-12.2-.377-2.061.838-3.948.788-5.874-.048-1.871-1.211-3.69-1.45-5.586a55 55 0 0 1-.064-6.718h5.072c-.154 3.09.609 6.244-.593 9.6-.573 1.6-1.074 4.081.668 5.84-.488 2.5 1.32 4.712.945 7.19-.271 1.779 1.209 3.165.952 4.992-.227 1.6.029 3.27-.069 4.9a16.2 16.2 0 0 1-.666 4.611 6.71 6.71 0 0 0 .424 5.927c.421.631.229 1.689.258 2.555.106 3.167-.416 6.384.873 9.458a5.6 5.6 0 0 1 .028 1.871Z"/><path id="x" d="M165.966 57.198h-10.582c1.491-1.99.635-4.343 1.425-6.5.833-2.265.75-4.942 1.935-7.257a3.4 3.4 0 0 0 .049-1.759c-.625-5.737 1.093-11.348.913-17.061a31.4 31.4 0 0 1 .039-4.911c.2-1.548-1.6-2.53-.942-4.1-1.922-4.691-.556-9.163.874-13.644a6.6 6.6 0 0 0 .021-1.806h4.494c-.683 2.458.686 4.627.942 7.042.517 4.862-1.374 9.31-1.958 13.971-1.409 1.163-.565 2.754-.793 4.142-.219 1.344 1.232 2.174.976 3.666-.2 1.175-.56 2.593.7 3.723.378.338.11 1.413.111 2.149.007 2.384.061 4.77-.009 7.151a33.4 33.4 0 0 0 1.769 12.68 8.5 8.5 0 0 1 .033 2.513"/><path id="y" d="M12.062 116.211H4.143c-.381-3.81-1.647-7.433-1.129-11.234-1.64-3.175-.874-6.6-.817-9.888.049-2.788-1.328-5.288-1.035-8.112.289-2.8.612-5.779-.047-8.441-1.588-6.415-.253-12.821-.87-19.344H15.47c-.482 3.638.978 7.2.976 10.936 0 4.015-.115 8.033.032 12.043.139 3.8-.833 7.468-1.123 11.214-.3 3.89.033 7.956-.9 11.638-.923 3.638.4 7.517-2.392 11.189"/><path id="z" d="M125.893 59.178H136.4c-.351 3.816.682 7.643-.768 11.548-.658 1.769-.3 3.885-.886 5.884-.683 2.333.509 4.649 1.466 6.912 1.933 4.565 4.919 8.681 5.824 13.706.1.577.666 1.176.663 1.947-.023 5.636-.012 11.271-.012 17.024h-17.905c0-1.681.094-3.432-.029-5.169-.1-1.389.7-3.007-.854-4.116-.071-.051 0-.286-.013-.433-.143-1.6 1.145-2.861.961-4.556a7.83 7.83 0 0 1 .287-4.319c1-2.136 1.012-4.556 2.144-6.724a20 20 0 0 0 1.8-6.351 23.56 23.56 0 0 0-1.033-11.99c-2.668-6.8-2.547-6.852-2.146-13.363"/><path id="A" d="M279.674 116.238h-14.868c-1.328-1.656-1.287-3.507-1.263-5.393.049-4.019-.1-8.041.062-12.053.087-2.113-.469-4.2.72-6.4.956-1.763-.676-4.346 1.024-6.257-.485-2.361.386-4.565.93-6.765 1.642-6.641.4-13.41 1-20.2h5.235c-.684 3.17.867 6.081 1 9.267.136 3.143 1.665 6.12 2.779 9.08a62 62 0 0 1 2.642 11c.829 4.536.607 9 .71 13.5.1 4.611.023 9.227.023 14.221"/><path id="B" d="M226.647 59.179h10.023c-.37 3.8.961 7.707-.837 11.5-.231.486-.023 1.179-.033 1.773a13.4 13.4 0 0 1-.771 5.493c-.458 1.045-1.14 2.69-.877 3.555.776 2.546.911 5.327 1.954 7.664a52.6 52.6 0 0 1 4.172 13.919c1.81 2 .051 4.692 1.157 6.661 1.228 2.186.219 4.254.727 6.462h-17.85c-.724-1.457 1.3-2.415.822-3.964-.379-1.223-.076-2.658-.076-4a23 23 0 0 1 .045-4.461 98 98 0 0 1 2.881-12.211c1.715-5.077 3.072-10.162 2.383-15.511-.39-3.016-1.459-5.943-2.133-8.929-.583-2.579-1.041-5.187-1.588-7.957"/><path id="C" d="M73.01 59.142h10.674c-.481 3.644.231 7.137-.8 10.8-.707 2.5-.38 5.383-1.025 8.069-.326 1.352-.537 2.785-.758 4.112-.382 2.293-.631 4.791.6 7.238a10.2 10.2 0 0 1 1.036 5.828c-.345 2.737 1.234 5.279.919 8.111-.294 2.645-.035 5.348-.074 8.027-.023 1.588 1.839 2.782.221 4.98-1.323 0-3.352.007-5.379.008h-6.47c0-7.709-.06-15.258.056-22.8a13.8 13.8 0 0 1 1.2-3.942c.448-1.3 1.417-2.615 1.328-3.865-.179-2.529 1.287-4.678 1.123-7.231-.106-1.642-1.23-2.849-1.1-4.536.115-1.5.755-3.265-.78-4.549.517-3.37-1.584-6.494-.776-10.246"/><path id="D" d="M301.222 116.159c.219-.807.933-1.132.863-1.971-.418-5.074 1.7-9.7 2.8-14.488.774-3.368 1.059-4.712-.017-7.856-1.8-5.263-2.859-10.817-1.744-16.162 1.139-5.461.12-10.83.889-16.413h6.758a2.2 2.2 0 0 1 .222.79c-.7 4.985 1.136 9.652 1.806 14.464 1.788 2.144.175 5.121 1.791 7.308-1.318 2.8-.738 6.073-2.443 8.838a7.26 7.26 0 0 0-.394 6.8c1.544 4.174 3.015 8.465 2.99 13.143-.009 1.693 1 3.5.577 5.544Z"/><path id="E" d="M196.409 116.224h-8.8c.179-1.009.786-1.733.779-2.745-.067-10.435-.114-20.871.025-31.306.025-1.949-1.358-3.44-1.04-5.457.233-1.478-1.191-2.82-.874-4.547.253-1.375-.444-2.776-.683-4.119-.509-2.857-.155-5.868-.155-8.9h12.631c-.482 3.011.722 6.065-.992 8.93.647 3.391-.347 6.73-1.1 9.866-.6 2.494-1.123 5.052-.541 7.243 1.125 4.239.561 8.434.708 12.64a17.2 17.2 0 0 1-.667 5.95 7.62 7.62 0 0 0 .533 5.923c.867 1.622.172 4.081.172 6.52"/><path id="F" d="M177.605 116.162h-13.816c1.59-2.148.911-4.385 1.355-6.412.851-3.892.213-7.918 1-11.671.77-3.664.564-7.229.688-10.836.124-3.571-.021-7.149.047-10.721.039-2.031-1.343-3.743-.981-5.9a12.05 12.05 0 0 0-.064-5.751c-.641-1.82-.331-3.878-1.64-5.66h9.564c.727.682-.8.838-.655 1.521a8.8 8.8 0 0 1 .024 1.781c0 3.873.154 7.753-.06 11.612-.116 2.1 1.25 3.757 1.059 5.9-.156 1.759-.793 3.7.7 5.506.585.71.25 2.328.068 3.491-.6 3.837 1.155 7.459.923 11.25 2.047 2.248.382 5.2 1.585 7.841 1.005 2.205.206 5.231.206 8.047"/><path id="G" d="M145.373 59.192h9.848c0 5.471.42 10.857-.167 16.133-.318 2.86-1.218 5.827-.609 8.561 1.107 4.962.648 9.906.754 14.856.107 5.064.023 10.132.023 15.2v2.26h-7.162a27 27 0 0 0-.025-3.834c-1.618-11.171-.6-22.405-.843-33.607-.037-1.741-1.367-3.121-.981-5.006.342-1.671-.438-3.348-.7-5-.481-3.042-.138-6.213-.138-9.558"/><path id="H" d="M293.845 116.206h-7.008c0-2.279-.167-4.627.037-6.941.35-3.963-1.59-7.71-.933-11.674-1.907-4.073-.361-8.4-.93-12.559-.212-1.552 1.391-2.472 1-4.11-.285-1.189-.4-2.641.827-3.627-.461-4.176.825-8.418-.8-12.6-.619-1.593.335-3.671-2.1-5.482h10.6c-.759 3.443-1.613 7-2.283 10.591-.164.886-.718 1.616-.841 2.315-.371 2.109-.4 4.432.936 6.224 1.295 1.733 1.3 3.623 1.739 5.56 1.6 7.147.29 14.355.846 21.5.286 3.675-.95 7.111-1.092 10.8"/><path id="I" d="M109.559 116.159a12.6 12.6 0 0 1 .028-2.78c1.161-4.731.678-5.677.159-10.92-.425-4.3-2.21-8.151-2.777-12.29-.425-3.111-.655-6.468.855-9.426a10.4 10.4 0 0 0 .835-5.025c.012-5.483 0-10.968 0-16.554h8.99c-.372 1.637.786 3.4-.915 4.863-.075.063-.009.286-.009.436 0 2.088.027 4.174-.008 6.261-.032 1.852-.9 3.512-1.018 5.435-.223 3.71 1.183 7.158 1.1 10.818a28.4 28.4 0 0 1-.97 4.994c-.33 1.667.057 3.285-.648 5.093-1.1 2.821.331 5.834 1.255 8.672.686 2.1 1.526 4.163 2.027 6.307a19 19 0 0 1 .052 4.115Z"/><path id="J" d="M324.441 116.317c0-3.771.023-7.317-.011-10.861-.015-1.589 1.381-2.784.978-4.56a4.12 4.12 0 0 1 .8-4.1.93.93 0 0 0 0-.862c-1.475-2.434-.521-5.137-.923-7.674-.4-2.554-.4-5.256-1.033-7.63-.94-3.5-.7-7.277-2.478-10.565-.187-.346-.02-.881-.025-1.327-.033-2.587.258-5.2-.865-7.685a5.2 5.2 0 0 1-.031-1.85h12.536c0 2.185.072 4.518-.023 6.844-.087 2.13.624 4.389-.865 6.339-.071.094-.024.293-.007.44.553 4.7-1.62 9.237-.865 13.919.482 2.983-1.246 5.609-.988 8.575.269 3.1.06 6.249.06 9.376 0 2.979.031 5.957-.012 8.934-.027 1.932-.683 2.6-2.558 2.678-1.159.051-2.323.009-3.7.009"/><path id="K" d="M32.644 59.215c-.372 2.146.549 4.254-.6 6.129-1.1 1.807.111 3.841-1.056 5.851-.906 1.562-.351 4.065-.179 6.129.151 1.82-.946 3.874.85 5.441-.278 2.625 1.577 5 .9 7.67 1.692 2.395 1.183 5.225.743 7.643a52 52 0 0 0-.738 9.037c-.021 2.962-.005 5.923-.005 9.042h-5.26a45 45 0 0 1-.08-6.789 27.6 27.6 0 0 1 .678-6.379c.751-2.935.449-6.236.1-9.323a29 29 0 0 0-2.039-6.725c-1.164-3.089-2.6-6.077-3.729-9.176-.711-1.947-1-4.045-1.629-6.029a97 97 0 0 1-2.351-10.637 11 11 0 0 1-.015-1.884Z"/><path id="L" d="M55.106 116.161c-.5-2.483.106-4.661.683-6.9.567-2.2-.8-4.7.911-6.782-.249-3.785.7-7.627-.563-11.361a2.7 2.7 0 0 1-.286-.771c-.019-5.065-.807-10.3.2-15.153a70.4 70.4 0 0 0 1.575-15.678c.723-.774 1.516-.3 2.209-.458.16.225.456.446.462.674a32 32 0 0 1-.024 4.911c-.241 1.82.656 3.332.954 5s-.25 3.286.651 5.105c.83 1.677.37 4.084.2 6.145-.392 4.674 1.1 9.086 2.023 13.515a79 79 0 0 1 1.474 8.26c.436 4.408.118 8.891.118 13.5Z"/><path id="M" d="M48.676 59.059c0 5.549.071 10.877-.039 16.2-.037 1.818-1.127 3.471-.925 5.441.17 1.653.633 3.526-.827 4.98.378 2.857-.481 5.727.66 8.653.706 1.807.408 4.112.17 6.148-.194 1.661-1.169 3.238-.815 4.992.393 1.949-1.211 3.481-.957 5.442a42 42 0 0 1 .047 5.318h-1.791c0-4.337.023-8.613-.009-12.89-.015-2 .1-3.929-.787-5.924-.778-1.748.187-3.845-.842-5.911-.807-1.621-.509-3.866-.849-5.838a55 55 0 0 0-1.225-5.806 45 45 0 0 1-1.666-14.03 40 40 0 0 0-.011-4.017c-.194-2.653-.235-2.7 1.693-2.745 2.65-.053 5.3-.013 8.172-.013"/><path id="N" d="M256.192 116.209h-9.479c-.739-2.962.965-5.362 2.023-7.861 2.383-5.624 3.163-6.454 1.454-13.895a2.6 2.6 0 0 1-.055-.869c.549-4.551-1.481-8.931-.891-13.477.2-1.529-.287-3.012.724-4.643.659-1.061.52-3.115-.179-4.675a14.04 14.04 0 0 1-1.485-6.549c.084-1.651-1.681-3.1-.609-5.048h7.735c-.152 3.5.695 7.123-.5 10.674-.327.978.715 1.239.644 2.177-.214 2.812.075 5.663-.128 8.477-.142 1.963-1.078 3.808-.889 5.891.18 1.983.393 4.061-.85 5.879.06 5.061-.361 10.129 1.286 15.1.919 2.776 2.007 5.646 1.2 8.819"/><path id="O" d="M101.308 116.217H90.667c.5-2.618-.77-5.252.968-7.652.14-.2.047-.584.013-.877-.652-5.86 1.2-11.594.894-17.434a7.02 7.02 0 0 1 2.255-5.316 2.226 2.226 0 0 1 2.728-.682 1.87 1.87 0 0 1 1.3 2.087c-.608 2.649 1.188 4.988.94 7.646-.233 2.5.191 5.07-.126 7.552-.255 2.006 1.155 3.512 1 5.429a32.4 32.4 0 0 0 .021 5.779c.107 1.052 1.294 1.908.647 3.469"/><path id="P" d="M205.984 59.14h7.918c1.725 4.575 1.183 9.247 1.34 13.87.063 1.822-.752 3.838.861 5.431-1 2.873-.386 6.229-2.618 8.734-.8.893-1.65 1.88-2.974 1.369a2.81 2.81 0 0 1-1.649-2.3c-.6-2.728-1.263-5.459-1.908-8.154-1.024-4.263-.318-8.433-.694-12.617-.04-.444-.2-1.112.025-1.3 1.838-1.6.293-3.11-.3-5.029"/><path id="Q" d="M216.929 116.225h-12.138c-.52-.672.3-.7.352-1.041.384-2.827.647-5.673 1.139-8.48.636-3.623.678-7.349 1.8-10.879a5.8 5.8 0 0 1 1.61-2.721c1.981-1.59 5.108-.184 5.471 2.5.266 1.971-.225 4.052.942 5.883-.736 4.859 1.279 9.547.823 14.74"/><path id="R" d="M97.664 68.021c-1.119-.069-2.062.265-2.673-.7-1.53-2.42-1.693-5.1-1.509-8.055h6.268c-.1 1.542-1.469 2.829-.952 4.456.484 1.522-.722 2.673-1.135 4.3"/><path id="T" d="M209.825.158h8.7c0 6.278.671 12.537-.158 18.593-1.228 8.992-.217 17.948-.732 26.9-.184 3.182-1.349 6.27-.764 9.645h-9.544c.544-3.691-1.44-7.17-1.2-11-.925 1.784.163 4.07-.741 5.42-1.242 1.857-.119 3.649-1.1 5.706-1.777 0-3.894.021-6.012-.006-2.464-.032-2.457-.052-3.141-2.814-.057-.226-.3-.407-.464-.623-.9.949-.023 2.223-.577 3.332H183.08V27.793c-1.374.287-.9 1.146-.889 1.657a14.6 14.6 0 0 1-.838 4.848c-.436 1.4.434 3.124-.925 4.379.547 3.835-1.32 7.469-.907 11.319.189 1.762.494 3.686-2 5.3h-6.619c0-5.351-.173-10.785.059-16.2.165-3.843-.849-7.529-1.134-11.3-.262-3.472-1.187-7.011-1.462-10.544-.278-3.58-.066-7.2-.059-10.8 0-2.077 1.511-3.915.7-6.242h13.675a8.25 8.25 0 0 1 1.24 5.324c-.1 3.862-.028 7.728-.028 11.708 1.442-.371.821-1.366.83-1.974.059-3.937 1.436-7.758.947-11.752-.125-1.026 1.494-1.775.69-2.983.407-.225.636-.452.878-.469 4.759-.313 4.6.814 4.455 4.516-.046 1.15.084 2.314-.023 3.456-.576 6.123 1.439 12.116.882 18.234 1.149 2.373.881 4.919.853 7.423-.03 2.519 1.254 4.822.94 7.431a62 62 0 0 0-.061 7.339c1.325-.34.769-1.171.843-1.727a10 10 0 0 0 .016-2.157c-.609-7.124.6-14.18 1.04-21.249a56 56 0 0 1 .826-8.7c.628-2.8.187-5.665.9-8.273.56-2.053.465-4.087.825-6.194h9.357v10.974c1.232-1.68.858-2.762.9-3.734a30 30 0 0 1 .068-3.88c.185-1.031 1.171-1.881.768-3.364"/><path id="U" d="M56.601 55.316H44.559c-.3-1.614 1.245-2.939.86-4.667a7.8 7.8 0 0 1 .707-4.846c.635-1.441-.533-3.393.951-4.787-.189-3.946 1.692-7.8.805-11.721-.692-3.063-.75-6.252-1.726-9.213-1.03-3.125-1.927-6.231-1.643-9.718-1.5.644-.809 1.618-.86 2.316a31.6 31.6 0 0 0-.018 5.178c.573 6.264-1.211 12.4-.888 18.647.079 1.538-1.333 2.688-.937 4.409.3 1.289.419 2.827-.8 3.945.4 2.891-.88 5.937.832 8.732.243.4.034 1.07.034 1.724h-6.917c.576-3.623-.376-7.171-.99-10.68-1.29-7.38-.544-14.754-.711-22.123-.167-7.339-.037-14.684-.037-22.32C39.47-.13 45.732.144 52.271.017c0 8.346.049 16.516-.023 24.683-.03 3.376.73 6.682 1.11 9.982.367 3.189.381 6.618 1.6 9.64.994 2.473.2 5.178 1.568 7.568.483.847.078 2.2.078 3.426"/><path id="V" d="M314.735 55.422c-2.679 0-4.971.044-7.26-.016-1.542-.04-2.38-.783-2.327-2.283.2-5.819-1.343-11.521-.971-17.373.184-2.881-.845-5.74-.909-8.713-.065-3.008 1.3-5.719 1.043-8.727a63 63 0 0 1 0-9.071c.087-1.462 1.073-2.781.852-4.4a37 37 0 0 1-.04-4.616 39 39 0 0 1 6.271-.163c2.143-.049 4.289-.012 6.526-.012 1.93 8.558.681 17.119 1.091 25.6.083 1.728-1.2 3.039-.975 4.84a8 8 0 0 1-.66 4.884c-.742 1.467.331 3.614-1 5.2-.069 4.866-2.208 9.483-1.643 14.851"/><path id="W" d="M270.19.197a8.05 8.05 0 0 1 1.168 4.928c-.337 3.53 1.251 6.866.928 10.454s.246 7.233-.153 10.791a82 82 0 0 1-2.2 12.881c-1.251 4.525-2.385 9.089-3.753 13.588a8.7 8.7 0 0 0-.028 2.3c-1.61.668-3.3 0-4.9.37-.692-4.418-1.671-8.487-2.619-12.572-.607-2.612-1.417-5.348-1.219-8.21.107-1.569.854-3.432-.748-4.86a1.37 1.37 0 0 1-.013-1.246c1.7-3.087.606-6.4.808-9.6.337-5.352 1.414-10.67.883-16.063-.107-1.093 1.269-1.52.971-2.766Z"/><path id="X" d="M233.07 55.419h-6.356c-.624-.9-.34-1.656.021-2.677a9.77 9.77 0 0 0-.08-6.947c-1.024-2.607-1.445-5.42-2.723-7.953-.292-.579-.072-1.393-.221-2.071-2.409-11 .574-22 .039-33.006-.1-2.089.613-2.677 2.77-2.709 3.009-.043 6.02-.01 9.325-.01V13.46c0 3.747.023 7.493-.009 11.24-.017 1.931.1 3.805-.761 5.736-.756 1.693.512 3.849-.884 5.709-.485.646-.146 1.965-.066 2.968.43 5.389-.65 10.677-1.056 16.306"/><path id="Y" d="M90.181.198a16.95 16.95 0 0 1 .469 11.174 12 12 0 0 0-.278 1.605c-.311 2.072.553 4.194-.536 6.267-.96 1.828.349 4.207-1.2 5.986.012 4.941-1.886 9.885-.754 14.745 1.088 4.675.468 9.3.746 13.935a12 12 0 0 1-.09 1.373H78.493a3.56 3.56 0 0 1 .256-3.4c.156-.212.383-.5.345-.708-.607-3.424 1.207-6.594.944-10.025s.534-7.047-.212-10.336c-.867-3.821-.779-7.853-2.421-11.506a3.4 3.4 0 0 1-.022-1.287V.198Z"/><path id="Z" d="M244.506.154h5.007a31.6 31.6 0 0 0-.492 12.581 37.7 37.7 0 0 1 .6 7.428c-.123 1.654 1.072 2.8 1.011 4.4-.056 1.461-.726 3.156.732 4.42a.5.5 0 0 1 .061.4c-.654 3.277 1.432 6.332.839 9.563-.5 2.748 1.154 5.143.945 7.852s-.047 5.463-.047 8.412h-15.584c0-4.93-.575-10.017.178-14.9.632-4.1.809-8.326 2.258-12.389.829-2.323.991-4.988 1.706-7.49a43.4 43.4 0 0 0 1.746-7.437c.207-2.086 1.289-3.946 1.083-6.1-.2-2.133-.044-4.3-.044-6.734"/><path id="aa" d="M63.528 55.422c0-5.473-.454-10.7.137-15.8.517-4.477.248-9.323 3.271-13.25a3.54 3.54 0 0 1-2.489-3.209c-.576-3.477-2.12-6.656-2.766-10.133a46 46 0 0 0-2.611-7.974 11.6 11.6 0 0 1-.646-4.9h14.43c.9 2.475-1.364 4.754-.667 7.239-2.188 3.856-1.691 8.09-1.735 12.25-.018 1.654.119 3.278-.822 4.853-1.09 1.825-.494 3.809.226 5.631.807 2.043 1.812 4.043 1.441 6.3-.332 2.028 1.271 3.631.954 5.708a13.3 13.3 0 0 0 .058 6c.8 2.369.632 4.638.781 7.278h-9.562Z"/><path id="ab" d="M295.919.119a6.6 6.6 0 0 1 3.165.216c-.47 5.01 1.5 9.93.841 15.038 1.605 5.865.689 11.856.782 17.789.023 1.492 1.17 2.551.933 3.958-.271 1.616.778 3.433-.779 4.875-.213.2-.133.747.176 1.153 1.254 1.647.557 3.575.539 5.354-.01.989-1.028 1.861-.823 3.106a24 24 0 0 1 .039 3.622H290.4c0-3.737-.526-7.551.15-11.14.663-3.522.075-7.1.852-10.44.888-3.814.714-7.565.645-11.335-.03-1.638 1.112-2.785 1.018-4.4a8.36 8.36 0 0 1 .6-4.482c.843-1.733.4-4 .906-6.068.54-2.213.222-4.678 1.346-7.245"/><path id="ac" d="M286.288.047c-.609 7.316-1.481 14.223-1.084 21.18-1.424 2.94-.259 6.19-.965 9.121-1.088 4.515-.388 9.337-2.5 13.639.389 3.812-1.9 7.365-.622 11.064a6.54 6.54 0 0 1-3.311.3c-1.62-4.2-.725-8.651-1.367-12.889-1.382-9.1-.385-18.214-.769-27.308-.034-.812.167-1.59-.586-2.369-1.189-1.229.94-2.585.486-3.33-1.167-1.91-.551-3.847-.755-5.756a6 6 0 0 1 0-.863c.085-2.151.623-2.744 2.723-2.78 2.727-.044 5.454-.01 8.75-.01"/><path id="ad" d="M15.903.167h6.665c.7 1.2-.4 2.729.969 3.653a.8.8 0 0 1 .138.772c-1.71 3.077-.631 6.4-.773 9.593-.078 1.732-.591 3.521.64 5.343.936 1.387-.721 3.675 1.012 5.173.026 4.648 1.95 9.34.693 13.845-.743 2.665.173 5.522-1.466 8.03a3.65 3.65 0 0 0 .124 3.291c1.224 1.789.322 3.547.752 5.426H16.01c-.052-1.236-.6-2.585.719-3.724.013-3.163.434-6.39-.049-9.475a46.8 46.8 0 0 1 .048-16.587 22.6 22.6 0 0 0 .041-4.312c0-3.168.4-6.408-.147-9.479a34 34 0 0 1-.716-5.717c-.014-1.863 0-3.725 0-5.832"/><path id="ae" d="M7.2 55.296H0c1.6-2.345 1.229-4.725 1.145-7.039-.071-1.985 1.194-3.645.962-5.7-.3-2.615-.083-5.231-.829-7.87-.706-2.495.5-5.3-.907-7.855-.364-.663-.054-1.7-.054-2.562 0-6.337.035-12.674-.022-19.01A7.9 7.9 0 0 1 1.516.148h10.136c-.447 2.261.737 4.521-.9 6.591-.28.354-.093 1.127-.031 1.7.385 3.54-1.539 6.884-.875 10.444-1.512 3.971-.792 8.41-2.6 12.319.62 2.034-.964 3.724-.883 5.691a33 33 0 0 1-.023 5.611c-.554 4.265 1.206 8.344.858 12.8"/><path id="af" d="M331.098.046c0 3.65-.019 7.079.009 10.508.013 1.534-1.329 2.694-.945 4.41a3.99 3.99 0 0 1-.777 3.965.9.9 0 0 0 0 .835c1.431 2.352.5 4.97.894 7.422.4 2.469.379 5.083 1 7.378.911 3.384.679 7.039 2.4 10.219.181.335.019.852.025 1.283.032 2.5-.25 5.03.836 7.432a5 5 0 0 1 .03 1.786h-12.131c0-2.117-.071-4.374.021-6.624.084-2.059-.6-4.243.836-6.129.068-.092.023-.283.007-.425-.535-4.543 1.566-8.935.836-13.463-.465-2.885 1.2-5.425.956-8.293-.261-3-.059-6.044-.059-9.068 0-2.88-.03-5.761.012-8.64.026-1.868.66-2.506 2.477-2.586 1.121-.049 2.245-.01 3.573-.01"/><path id="ag" d="M109.581 55.406h-11.36c.4-2.1-.84-3.872-1-5.965-.18-2.321 1.033-4.375.881-6.556-.164-2.387 1.592-3.965 2.052-6.128.565-2.655 1.759-5.217 1.436-7.992-.284-2.448 1.2-4.552.956-7a39 39 0 0 1-.012-6.9 16 16 0 0 0-1.305-6.827c-.955-2.528-.951-5.248-2.519-7.835h9.707c.648 1.988-1.42 3.468-.724 5.33-2.628 8.7-1.432 17.648-1.785 26.5-.08 2.023 1.494 3.655.947 5.681 1.609 2.107 1.146 4.764 1.86 7.022 1.122 3.545.249 6.968.867 10.671"/><path id="ah" d="M142.273 55.339h-5.14V35.071c1.626-3.664.76-7.532.8-11.3.032-2.847-1.084-5.626-1.4-8.431-.394-3.556-1.855-6.849-2.058-10.428-.083-1.459-1.272-2.783-.571-4.737a40.5 40.5 0 0 1 6.022-.118c2.142-.049 4.286-.012 6.492-.012-.473 5.4-1.586 10.573-2.483 15.757a81 81 0 0 0-1.573 9.238c-.182 3.3-.624 6.756.114 9.893a25.4 25.4 0 0 1 .523 10.438c-.614 3.246-.46 6.411-.733 9.968"/><path id="ai" d="M116.278 55.272c.358-2.32-.03-4.415.773-6.694.766-2.175.321-4.844.121-7.274-.193-2.337.619-4.688-.641-7.069-.655-1.24-.189-3.087-.174-4.66.035-4.009-.465-8.1 1.726-11.8-.364-1.993.81-3.818.763-5.681-.047-1.81-1.171-3.569-1.4-5.4a53 53 0 0 1-.061-6.5h4.9c-.149 2.988.589 6.039-.574 9.285-.554 1.546-1.039 3.947.646 5.648-.472 2.422 1.277 4.557.914 6.954-.262 1.72 1.17 3.061.92 4.828-.22 1.551.028 3.163-.067 4.74a15.7 15.7 0 0 1-.644 4.459 6.49 6.49 0 0 0 .41 5.732c.407.61.221 1.634.249 2.471.1 3.063-.4 6.174.844 9.147a5.4 5.4 0 0 1 .027 1.81Z"/><path id="aj" d="M160.511 55.319h-10.233c1.442-1.925.614-4.2 1.378-6.282.805-2.191.725-4.78 1.872-7.018a3.3 3.3 0 0 0 .048-1.7c-.6-5.549 1.057-10.975.883-16.5a30 30 0 0 1 .038-4.75c.191-1.5-1.543-2.447-.911-3.969-1.859-4.537-.538-8.862.845-13.2a6.4 6.4 0 0 0 .021-1.746h4.347c-.66 2.377.663 4.475.911 6.81.5 4.7-1.329 9-1.894 13.512-1.362 1.124-.547 2.664-.766 4.006-.212 1.3 1.192 2.1.944 3.545-.2 1.136-.542 2.507.679 3.6.366.327.106 1.366.107 2.078.006 2.306.059 4.613-.009 6.916a32.3 32.3 0 0 0 1.711 12.263 8.3 8.3 0 0 1 .032 2.43"/><path id="ak" d="M11.664 112.392H4.007c-.373-3.689-1.593-7.189-1.092-10.865-1.586-3.071-.845-6.379-.79-9.563.047-2.7-1.285-5.111-1-7.846.279-2.7.592-5.589-.045-8.164-1.534-6.2-.24-12.4-.84-18.708h14.721c-.467 3.518.946 6.963.944 10.577 0 3.883-.111 7.769.031 11.647.134 3.671-.805 7.223-1.086 10.846-.292 3.763.032 7.694-.872 11.255-.893 3.518.392 7.27-2.314 10.821"/><path id="al" d="M121.755 57.233h10.162c-.34 3.69.659 7.392-.743 11.169-.636 1.711-.292 3.757-.857 5.691-.66 2.257.492 4.5 1.418 6.685 1.869 4.415 4.758 8.4 5.633 13.256.1.558.644 1.137.641 1.883-.022 5.451-.012 10.9-.012 16.464h-17.319c0-1.626.09-3.319-.028-5-.1-1.343.676-2.908-.826-3.981-.068-.049 0-.277-.013-.419-.138-1.551 1.108-2.767.929-4.406a7.57 7.57 0 0 1 .278-4.177c.965-2.065.978-4.406 2.073-6.5a19.3 19.3 0 0 0 1.739-6.145 22.8 22.8 0 0 0-1-11.6c-2.58-6.58-2.464-6.627-2.076-12.924"/><path id="am" d="M270.481 112.418h-14.377c-1.285-1.6-1.245-3.392-1.221-5.215.048-3.887-.1-7.777.059-11.657.084-2.043-.454-4.064.7-6.189.924-1.7-.654-4.2.99-6.052-.469-2.284.374-4.415.9-6.543 1.589-6.423.384-12.969.969-19.535h5.063c-.662 3.066.839 5.881.972 8.962.132 3.04 1.611 5.918 2.687 8.781a60 60 0 0 1 2.555 10.635c.8 4.387.587 8.708.686 13.058.1 4.459.022 8.924.022 13.754"/><path id="an" d="M219.199 57.234h9.694c-.358 3.677.929 7.454-.809 11.126-.224.47-.022 1.14-.032 1.715a13 13 0 0 1-.746 5.312c-.443 1.011-1.1 2.6-.848 3.438.751 2.462.881 5.152 1.89 7.413a51 51 0 0 1 4.035 13.462c1.75 1.936.049 4.538 1.119 6.442 1.188 2.115.212 4.114.7 6.249h-17.261c-.7-1.409 1.26-2.336.795-3.834a13.6 13.6 0 0 1-.074-3.867 22.4 22.4 0 0 1 .044-4.314 95 95 0 0 1 2.787-11.81c1.658-4.91 2.971-9.828 2.3-15-.377-2.917-1.411-5.748-2.063-8.635-.564-2.495-1.007-5.016-1.536-7.7"/><path id="ao" d="M70.61 57.198h10.324c-.465 3.525.224 6.9-.778 10.447-.684 2.414-.367 5.206-.991 7.8-.315 1.308-.52 2.694-.733 3.977-.37 2.218-.61 4.634.58 7a9.9 9.9 0 0 1 1.007 5.637c-.333 2.647 1.193 5.105.889 7.844-.284 2.558-.034 5.173-.071 7.763-.022 1.536 1.778 2.691.213 4.816-1.28 0-3.242.006-5.2.008h-6.257c0-7.455-.058-14.757.054-22.056a13.3 13.3 0 0 1 1.163-3.813c.433-1.258 1.37-2.529 1.285-3.738-.173-2.445 1.245-4.524 1.086-6.994-.1-1.589-1.189-2.756-1.062-4.387.111-1.45.73-3.158-.755-4.4.5-3.26-1.532-6.28-.751-9.91"/><path id="ap" d="M291.323 112.342c.212-.781.9-1.095.835-1.906-.4-4.908 1.645-9.379 2.712-14.012.748-3.257 1.024-4.557-.017-7.6-1.741-5.09-2.765-10.462-1.687-15.63 1.1-5.281.116-10.475.859-15.873h6.536a2.1 2.1 0 0 1 .215.764c-.673 4.821 1.1 9.335 1.746 13.989 1.729 2.073.169 4.953 1.732 7.067-1.274 2.705-.713 5.873-2.363 8.547a7.02 7.02 0 0 0-.381 6.58c1.493 4.037 2.916 8.187 2.891 12.711-.009 1.638.963 3.385.558 5.361Z"/><path id="aq" d="M189.953 112.404h-8.507c.173-.976.76-1.676.754-2.655-.065-10.092-.11-20.185.025-30.277.025-1.884-1.313-3.327-1.006-5.277.225-1.43-1.152-2.727-.845-4.4.244-1.33-.429-2.685-.66-3.984-.492-2.763-.15-5.675-.15-8.607h12.216c-.467 2.912.7 5.865-.959 8.637.626 3.279-.336 6.509-1.065 9.541-.579 2.412-1.086 4.886-.523 7.005 1.088 4.1.543 8.157.685 12.225a16.6 16.6 0 0 1-.645 5.754 7.37 7.37 0 0 0 .516 5.728c.839 1.569.167 3.947.167 6.306"/><path id="ar" d="M171.768 112.344h-13.362c1.538-2.077.882-4.241 1.311-6.2.823-3.764.206-7.658.968-11.288.745-3.544.545-6.991.666-10.48.12-3.454-.021-6.914.045-10.369.038-1.965-1.3-3.62-.949-5.7a11.66 11.66 0 0 0-.062-5.562c-.62-1.76-.321-3.751-1.586-5.474h9.251c.7.659-.773.81-.633 1.471a8.5 8.5 0 0 1 .023 1.723c0 3.746.149 7.5-.058 11.231-.112 2.027 1.209 3.633 1.024 5.7-.151 1.7-.766 3.579.673 5.325.566.686.242 2.252.066 3.376-.576 3.711 1.117 7.214.893 10.88 1.98 2.174.37 5.032 1.533 7.583.972 2.133.2 5.059.2 7.782"/><path id="as" d="M140.593 57.247h9.525c0 5.292.406 10.5-.162 15.6-.308 2.766-1.178 5.635-.589 8.28 1.07 4.8.627 9.58.729 14.368.1 4.9.022 9.8.022 14.7v2.186h-6.925a26 26 0 0 0-.025-3.708c-1.565-10.8-.583-21.669-.816-32.5-.036-1.684-1.322-3.018-.949-4.842.331-1.616-.424-3.238-.676-4.838-.465-2.942-.133-6.009-.133-9.244"/><path id="at" d="M284.188 112.384h-6.778c0-2.2-.162-4.475.036-6.713.339-3.832-1.538-7.457-.9-11.29-1.844-3.94-.349-8.121-.9-12.146-.205-1.5 1.346-2.391.966-3.974a3.22 3.22 0 0 1 .8-3.508c-.446-4.039.8-8.142-.774-12.186-.6-1.541.324-3.551-2.028-5.3h10.252c-.734 3.33-1.56 6.77-2.208 10.243-.159.857-.694 1.563-.813 2.239-.359 2.04-.39 4.286.9 6.019 1.252 1.676 1.261 3.5 1.682 5.377 1.551 6.912.28 13.883.818 20.793.277 3.554-.919 6.877-1.056 10.449"/><path id="au" d="M105.958 112.342a12.2 12.2 0 0 1 .027-2.688c1.123-4.575.655-5.491.154-10.561-.411-4.158-2.138-7.883-2.686-11.886-.411-3.009-.633-6.256.827-9.116a10.06 10.06 0 0 0 .808-4.86c.012-5.3 0-10.608 0-16.01h8.688c-.359 1.583.76 3.292-.885 4.7-.072.061-.009.277-.009.421 0 2.019.026 4.037-.008 6.055-.031 1.791-.874 3.4-.985 5.257-.216 3.588 1.144 6.923 1.064 10.463a27.5 27.5 0 0 1-.934 4.833c-.319 1.612.056 3.177-.627 4.926-1.064 2.729.321 5.642 1.214 8.387.663 2.032 1.476 4.026 1.961 6.1a18.5 18.5 0 0 1 .05 3.98Z"/><path id="av" d="M313.779 112.494c0-3.647.022-7.077-.01-10.5-.014-1.537 1.335-2.692.946-4.41a3.98 3.98 0 0 1 .777-3.967.9.9 0 0 0 0-.834c-1.427-2.354-.5-4.968-.893-7.422-.39-2.47-.383-5.083-1-7.379-.909-3.384-.677-7.038-2.4-10.217-.181-.335-.019-.852-.025-1.283-.032-2.5.249-5.03-.836-7.432a5 5 0 0 1-.03-1.789h12.124c0 2.113.07 4.37-.022 6.619-.084 2.06.6 4.245-.836 6.13-.068.09-.023.283-.007.425.535 4.542-1.566 8.934-.836 13.462.467 2.885-1.2 5.425-.955 8.293.26 3 .058 6.044.058 9.068 0 2.881.03 5.761-.012 8.641-.026 1.869-.661 2.51-2.474 2.59-1.121.049-2.246.009-3.576.009"/><path id="aw" d="M31.571 57.269c-.359 2.076.531 4.114-.576 5.927-1.066 1.747.107 3.715-1.021 5.659-.876 1.511-.34 3.932-.173 5.927.146 1.76-.915 3.747.822 5.262-.269 2.539 1.525 4.835.867 7.418 1.636 2.316 1.144 5.054.719 7.392a50 50 0 0 0-.713 8.74c-.021 2.864-.005 5.728-.005 8.745h-5.089a43.5 43.5 0 0 1-.078-6.566 26.7 26.7 0 0 1 .659-6.169c.726-2.838.434-6.031.1-9.017a28 28 0 0 0-1.972-6.5c-1.126-2.987-2.51-5.877-3.606-8.874-.688-1.883-.969-3.912-1.576-5.831a94 94 0 0 1-2.28-10.291 10.4 10.4 0 0 1-.014-1.822Z"/><path id="ax" d="M53.295 112.343c-.481-2.4.1-4.508.66-6.671.548-2.129-.776-4.545.881-6.56-.24-3.66.673-7.376-.544-10.988a2.6 2.6 0 0 1-.271-.745c-.018-4.9-.781-9.958.193-14.655a68 68 0 0 0 1.52-15.165c.7-.748 1.466-.291 2.137-.443.155.217.441.432.447.651a31 31 0 0 1-.023 4.75c-.233 1.76.635 3.222.923 4.831s-.242 3.178.629 4.937c.8 1.622.358 3.95.19 5.943-.379 4.52 1.066 8.788 1.957 13.071a77 77 0 0 1 1.426 7.989c.421 4.263.114 8.6.114 13.053Z"/><path id="ay" d="M47.075 57.118c0 5.367.068 10.52-.037 15.67-.036 1.758-1.09 3.357-.894 5.262.164 1.6.613 3.41-.8 4.816.366 2.763-.465 5.538.639 8.369.682 1.747.394 3.977.164 5.946-.187 1.607-1.131 3.132-.788 4.828.38 1.885-1.171 3.367-.925 5.263a41 41 0 0 1 .041 5.143h-1.729c0-4.194.022-8.33-.009-12.466-.014-1.93.1-3.8-.761-5.73-.752-1.691.181-3.719-.814-5.717-.781-1.568-.492-3.739-.821-5.646a53 53 0 0 0-1.184-5.617 43.5 43.5 0 0 1-1.612-13.568 39 39 0 0 0-.01-3.885c-.187-2.566-.227-2.616 1.638-2.655 2.563-.052 5.129-.013 7.9-.013"/><path id="az" d="M247.772 112.389h-9.168c-.715-2.864.933-5.186 1.957-7.6 2.3-5.439 3.059-6.242 1.406-13.438a2.5 2.5 0 0 1-.053-.84c.531-4.4-1.432-8.638-.862-13.034.191-1.479-.278-2.913.7-4.49.637-1.026.5-3.013-.173-4.521a13.6 13.6 0 0 1-1.436-6.333c.081-1.6-1.626-2.993-.589-4.882h7.481c-.147 3.388.672 6.889-.481 10.323-.317.946.691 1.2.623 2.106-.207 2.719.072 5.476-.124 8.2-.137 1.9-1.043 3.682-.859 5.7.174 1.918.38 3.928-.822 5.686.058 4.895-.349 9.8 1.243 14.6.889 2.685 1.941 5.461 1.157 8.529"/><path id="aA" d="M97.978 112.394H87.687c.481-2.532-.744-5.08.936-7.4.136-.189.045-.565.013-.848-.631-5.668 1.162-11.213.865-16.861a6.8 6.8 0 0 1 2.18-5.142 2.15 2.15 0 0 1 2.637-.657 1.81 1.81 0 0 1 1.255 2.015c-.588 2.562 1.149 4.824.909 7.395-.225 2.418.185 4.9-.122 7.3-.247 1.94 1.117 3.4.972 5.25a31.3 31.3 0 0 0 .021 5.589c.1 1.017 1.251 1.846.626 3.355"/><path id="aB" d="M199.215 57.197h7.658c1.669 4.424 1.144 8.943 1.3 13.414.061 1.762-.728 3.712.832 5.253-.969 2.779-.373 6.024-2.532 8.447-.77.863-1.6 1.819-2.876 1.324a2.72 2.72 0 0 1-1.6-2.223c-.582-2.638-1.221-5.28-1.846-7.886-.99-4.123-.308-8.156-.671-12.2-.039-.429-.19-1.075.025-1.261 1.777-1.546.283-3.008-.292-4.864"/><path id="aC" d="M209.799 112.405H198.06c-.5-.65.295-.68.34-1.007.371-2.734.626-5.487 1.1-8.2.615-3.5.655-7.108 1.741-10.521a5.6 5.6 0 0 1 1.558-2.632c1.915-1.538 4.94-.178 5.292 2.416.257 1.906-.217 3.919.911 5.69-.712 4.7 1.237 9.234.8 14.255"/><path id="aD" d="M94.455 65.787c-1.082-.067-1.994.256-2.585-.676-1.48-2.341-1.638-4.931-1.459-7.79h6.062c-.1 1.492-1.42 2.736-.92 4.309.468 1.472-.7 2.585-1.1 4.157"/><path id="aG" d="M219.044 7.445c-1.645 4.444-3.244 8.907-4.717 13.41-.933 2.855-1.6 5.8-2.386 8.7-.1.363-.242.714-.364 1.07l-.33-.023c-.1-1.542-.277-3.083-.277-4.625 0-6.973-.057-13.949.125-20.918q.066-2.534.311-5.06h-29.6c-.3 2.917-.49 5.847-.713 8.773-.074.984-.086 1.973-.114 2.96-.1 3.6-.163 7.205-.315 10.8-.147 3.447-.388 6.891-.6 10.335a3.8 3.8 0 0 1-.313.788c-.3-.9-.525-1.532-.715-2.173-1.354-4.539-2.615-9.108-4.074-13.613-1.656-5.114-3.324-10.235-5.3-15.228A44 44 0 0 0 168.477 0h-22.5c.771 2.875 1.542 5.75 2.217 8.648a30 30 0 0 1 .422 3.814c.236 2.352.549 4.7.683 7.058.167 2.953.334 5.919.232 8.871-.123 3.541-.563 7.069-.8 10.608-.1 1.468-.016 2.947-.016 4.791-1.091-2.607-2.063-4.92-3.025-7.237a165 165 0 0 1-5.408-16.3 39 39 0 0 0-1.358-3.757 24.3 24.3 0 0 1-1.836-8.032c-.117-2.16-.528-4.3-.734-6.458a46 46 0 0 1-.151-2.011H73.319c-.223 1.556-.382 3.125-.62 4.68-.122.8-.385 1.58-.583 2.369l-.359-.028c-.34-1.784-.7-3.566-1.016-5.354a46 46 0 0 0-.334-1.667H41.082a2 2 0 0 1 .043.16c.521 2.557.956 5.133 1.548 7.673a187 187 0 0 1 3.483 19.2c.605 4.835.924 9.706 1.317 14.566.243 3 .49 6 .544 9a63 63 0 0 1-.361 6.936c-.151 1.606-.515 3.193-.807 4.785a3.3 3.3 0 0 1-.325.825 2.883 2.883 0 0 1-3.456 1.894 5.02 5.02 0 0 1-4-2.7 29 29 0 0 1-2.614-8.743 98 98 0 0 1-.957-14.9c.049-5.487-.029-10.976.144-16.458.089-2.794.63-5.572.929-8.362.513-4.792 2.1-9.309 3.513-13.871H0v74.862c6.824-3.192 12.952-5.9 14.943-6.488.14.291.3.586.426.9a54.7 54.7 0 0 0 11.069 17.585A23.5 23.5 0 0 0 44 94.553a28.4 28.4 0 0 0 6.633-.49 20.7 20.7 0 0 0 12.188-8.124 36.6 36.6 0 0 0 4.151-7.51 56 56 0 0 0 3.773-10.9c.048-.235.143-.461.271-.863l53.433 16.489-.033.266c-.558.046-1.115.11-1.675.137-4.288.2-8.581.323-12.862.62-3.241.225-6.471.64-9.7 1.028-3.18.382-6.375.712-9.523 1.282a68 68 0 0 0-22.215 7.934 16.93 16.93 0 0 0-8.094 9.475 27.5 27.5 0 0 0-.88 11.729c.571 4.871 2.513 9.319 4.347 13.795a48 48 0 0 0 5.982 11.05 24.8 24.8 0 0 0 8.795 7.562 22.2 22.2 0 0 0 8.1 2.208c2.8.218 5.616.339 8.427.4 3.156.066 6.315.015 9.472.015H106v.215c-1.858.126-3.717.228-5.572.384-7.861.66-15.751 1.115-23.362 3.469a52 52 0 0 0-9.684 4.07 15.4 15.4 0 0 0-5.7 4.717c-.116-1.941-.247-3.881-.343-5.822a99.2 99.2 0 0 0-3.073-21.782 77.6 77.6 0 0 0-11.7-24.321 75 75 0 0 0-6.683-8.682 48.06 48.06 0 0 0-20.248-12.443A74.7 74.7 0 0 0 .953 86.785c-.318-.02-.635-.033-.953-.05v36.558h.017a24.4 24.4 0 0 1 11.977 5.838 22 22 0 0 1 2.99 3.468A45.7 45.7 0 0 1 20.593 144a105 105 0 0 1 4.231 19.946c.96 7.18 1.707 14.39 2.463 21.6.478 4.557.88 9.126 1.177 13.7.295 4.531.477 9.07.6 13.608.16 6.026.229 12.054.3 18.083.038 3.064-.058 6.131.027 9.193.067 2.413.331 4.819.48 7.229s.185 4.833.407 7.237c.441 4.779 1.143 9.522 3.2 13.922a30.25 30.25 0 0 0 7.592 10.302c.786.677 1.52 1.413 2.287 2.111a21.2 21.2 0 0 0 5.009 3.4c2.176 1.06 4.309 2.207 6.479 3.278a20 20 0 0 0 2.043.753l.125-.286-3.987-1.9.07-.2c1.139.211 2.273.458 3.418.626a28.85 28.85 0 0 0 13.3-1.152 40.4 40.4 0 0 0 9.4-4.312 18 18 0 0 1 2.4-1.164 32.5 32.5 0 0 0 10.147-7.591c1.33-1.388 2.52-2.913 3.738-4.405a30.7 30.7 0 0 0 3.99-6.739 18.5 18.5 0 0 1 1.878-3.351c2.5-3.353 6.394-2.461 8.892-.412a2.7 2.7 0 0 1 .638.988c.82 1.8 1.654 3.589 2.413 5.412 1.729 4.149 3.284 8.375 5.159 12.455a32.8 32.8 0 0 0 7.069 10.177 27.4 27.4 0 0 0 7.182 5.18 19.5 19.5 0 0 0 5.941 1.745 4.6 4.6 0 0 1 .8.249h6.531c.119-.074.234-.2.36-.217 6.728-.681 11.684-4.2 15.395-9.662a68 68 0 0 0 5.163-9.5c1.652-3.532 3.4-7.019 5.167-10.5a9.6 9.6 0 0 1 4.163-4.3 6.4 6.4 0 0 1 2.225-.737 2.9 2.9 0 0 1 2.835 1.555 47 47 0 0 1 2.329 4.457c1.551 3.418 2.95 6.906 4.559 10.3a46 46 0 0 0 4.738 7.859 18.82 18.82 0 0 0 11.6 7.388 37.6 37.6 0 0 0 9.1 1 23.78 23.78 0 0 0 15.636-6.2 43.1 43.1 0 0 0 9.288-12.568c1.984-3.922 4.1-7.78 6.239-11.62a21 21 0 0 1 8.616-8.34 9.72 9.72 0 0 1 11.349 1.672 83.4 83.4 0 0 1 8.511 9.865 58.55 58.55 0 0 0 19.672 16.587 30.5 30.5 0 0 0 7.888 2.945c.963.2 1.953.271 2.914.48 1.44.316 2.884.64 4.292 1.075a2.445 2.445 0 0 0 3.317-1.244c1.809-2.98 2.841-6.293 4.133-9.493 1.9-4.715 3.753-9.454 5.632-14.179a2.5 2.5 0 0 1 .322-.463v-.891c-5.139.249-9.473-2.111-13.791-4.387a56 56 0 0 1-11.319-8.324c-4.48-4.055-8.446-8.593-12.513-13.045a68.4 68.4 0 0 0-12.369-10.581c-2.583-1.738-5.183-3.449-7.772-5.178-.065-.043-.079-.163-.169-.363 1.856.252 3.647.508 5.44.734 4.6.579 9.19 1.195 13.795 1.7 3.966.434 7.946.761 11.924 1.074a13 13 0 0 0 2.791-.182 1.034 1.034 0 0 0 .958-1.364c-.593-3.545-1.014-7.125-1.751-10.639-1.142-5.456-2.486-10.872-3.76-16.3a10 10 0 0 0-.579-1.672 3.82 3.82 0 0 0-2.733-2.2c-7.849-2.275-15.905-3.445-23.946-4.725a122 122 0 0 0-13.376-1.4 6 6 0 0 1-.842-.227c.829-.486 1.4-.835 1.981-1.157a69 69 0 0 0 12.117-7.976c2.424-2.1 4.717-4.367 6.945-6.679 2.845-2.953 5.589-6 8.328-9.057a21.8 21.8 0 0 0 4.354-7.525 40 40 0 0 0 2.3-8.107c.566-4.6.36-9.123-2.2-13.174a19.3 19.3 0 0 0-8.548-7.497 35 35 0 0 0-11.749-2.778c-3.735-.284-7.484-.386-11.223-.621a62 62 0 0 1-6.447-.743c.691-.217 1.371-.479 2.074-.645 4.972-1.175 8.983-4.015 12.684-7.358 5.181-4.68 7.657-10.83 9.146-17.434a67.7 67.7 0 0 0 1.515-19.578 72 72 0 0 0-1.757-11.1c-2.453-10.73-4.854-21.471-7.411-32.176-1.319-5.519-2.944-10.965-4.391-16.455a30 30 0 0 1-.857-4.348 3.84 3.84 0 0 1 .49-2.1Q260.2 2.72 261.428 0H221.85q-1.43 3.713-2.806 7.445M12.591 42.075a8.4 8.4 0 0 1-.7-3.827c-.19-4.981-.306-9.967-.3-14.951 0-2.358.348-4.714.5-7.075.117-1.821.149-3.647.269-5.468.073-1.109.242-2.212.369-3.317l.309.026c-.2 5.759-.5 11.516-.557 17.277s.13 11.55.11 17.335M98.83 217.786a27.86 27.86 0 0 0-12.712 10.938c-1.268 2-2.513 4.022-3.8 6.015a34.2 34.2 0 0 1-7.19 7.808 6.19 6.19 0 0 1-7.741-.341 13.65 13.65 0 0 1-3.578-5.537 45 45 0 0 1-2.041-8.927c-.7-4.825-1.4-9.657-1.829-14.51-.318-3.581-.274-7.2-.268-10.8 0-3.206.109-6.414.292-9.614.3-5.31.705-10.616 1.063-15.923a37 37 0 0 1 .486-4.556c1.029 2.169 2.052 4.343 3.088 6.509 2.578 5.387 5.043 10.833 7.786 16.135a58.4 58.4 0 0 0 5.916 9.563 38.4 38.4 0 0 0 10.632 9.107 15.3 15.3 0 0 0 5.507 1.627c2.372.389 4.75.743 7.126 1.113l.076.2c-.937.4-1.878.789-2.813 1.194m52.5-153.2.267-.058.723 2.347q1.841 6 3.681 12.01c.419 1.365.825 2.734 1.25 4.1.182.582.032 1.044-.578 1.112a48 48 0 0 1-4.258.3c-.236 0-.492-.474-.718-.746-.05-.06-.015-.192-.017-.29q-.2-9.093-.395-18.187a6 6 0 0 1 .045-.583m-29.508-17.76c-1.6-.509-3.212-.963-4.8-1.51-3.871-1.336-7.719-2.744-11.6-4.057-1.631-.553-3.325-.921-4.981-1.4-.895-.262-1.769-.59-2.8-.939l6.989-34.305.3.034c.076.61.164 1.219.227 1.831.461 4.534 2.264 8.664 3.8 12.883 1.705 4.68 4.344 8.869 6.8 13.145 2.268 3.938 4.737 7.761 7.155 11.611.78 1.241 1.68 2.407 2.525 3.607l-.15.243c-1.157-.381-2.31-.769-3.47-1.139m-26.686 78.93a11.6 11.6 0 0 1-3.805-.136c-1.195-.182-1.618-.849-1.689-2.084a5.18 5.18 0 0 1 4.045-5.619 44.4 44.4 0 0 1 7.137-1.178c4.616-.406 9.247-.649 13.874-.923 3.841-.227 7.687-.369 11.527-.607 1.769-.11 3.526-.4 5.294-.528 1.152-.082 2.313-.016 3.47-.016l.043.245c-.388.154-.769.338-1.168.458-3.967 1.2-7.932 2.417-11.91 3.585-4.784 1.406-9.554 2.877-14.381 4.119-4.1 1.057-8.269 1.9-12.435 2.683m75.067 82.622a18.84 18.84 0 0 0-6.6 8.023c-1.181 2.609-2.3 5.245-3.42 7.882a69 69 0 0 1-6.007 11.386 21 21 0 0 1-4.791 5.216c-2.971 2.243-6.207 2.049-8.8-.651a18 18 0 0 1-3.31-4.333c-1.849-3.77-4.436-7-6.911-10.326a54.8 54.8 0 0 0-8.749-8.812c-.226-.192-.454-.382-.667-.587a1.5 1.5 0 0 1-.173-.367c8.671-2.689 40.059-7.758 50.2-7.828a7 7 0 0 0-.769.4m17.483-29.6c-1.082.054-2.17.006-3.255.04-3.109.1-6.217.294-9.326.306-3.808.014-7.579.4-11.358.772-2.993.3-6 .424-8.991.75-3.835.417-7.687.377-11.525.61a172 172 0 0 1-17.929.114c-3.138-.138-6.255-.763-9.378-1.2-2-.278-3.982-.61-5.973-.918l.061-.065c3.057.084 6.112.213 9.17.239 2.966.026 5.936 0 8.9-.1 4.488-.15 8.98-.295 13.458-.607 5.752-.4 11.5-.886 17.235-1.486 5-.523 9.971-1.283 14.961-1.886 3.23-.39 6.468-.707 9.706-1.017 3.488-.334 6.979-.567 10.492-.552a52.5 52.5 0 0 1 16.871 2.74 35 35 0 0 1 5.1 2.668c.1.055.135.234.253.452-3.3-.513-6.5-1.1-9.719-1.477a52 52 0 0 0-6.058-.166c-1.031 0-2.061.186-3.093.247-3.2.191-6.4.374-9.6.532m50.11 38.855c-3.25 1.853-6.277 3.981-8.153 7.345-.889 1.595-1.674 3.25-2.461 4.9-1.32 2.762-2.578 5.555-3.913 8.31a10.34 10.34 0 0 1-3.085 3.925c-1.847 1.369-3.38 1.165-4.9-.583a16.8 16.8 0 0 1-2.594-4.964c-2.341-5.767-4.63-11.57-7.833-16.927-2.2-3.686-4.637-7.233-6.969-10.841-.153-.237-.312-.47-.651-.982a160.7 160.7 0 0 1 44.659 7.643c-1.514.8-2.829 1.449-4.1 2.174m13.639-70.382a9.2 9.2 0 0 1 2.646 1.852 3.02 3.02 0 0 1-.832 4.867 1.9 1.9 0 0 1-1.133.116c-1.447-.3-2.892-.618-4.316-1.006-7.091-1.934-14.151-3.992-21.274-5.805-4.344-1.105-8.79-1.8-13.174-2.759-6.023-1.311-12.015-2.775-18.053-4.013-4.582-.941-9.219-1.615-13.823-2.452-.777-.141-1.691-.051-2.415-1.035.437-.058.673-.114.911-.116a95 95 0 0 1 11.674.537c2.1.243 4.234.23 6.348.4 6.188.49 12.377.979 18.56 1.532a134.2 134.2 0 0 1 26.744 4.713 76 76 0 0 1 8.131 3.171m-17.473-63.2c.65-5.47 1.409-10.929 2.195-16.382.448-3.117.942-6.232 1.57-9.316.53-2.605 1.273-5.167 1.944-7.741a1.98 1.98 0 0 1 1.273-1.675c.423 2.391.946 4.6 1.179 6.835.343 3.278.5 6.576.695 9.868.14 2.41.253 4.824.291 7.237a32.6 32.6 0 0 1-1.231 10.23 26 26 0 0 0-.581 2.746 5.87 5.87 0 0 1-3.132 4.091 2.484 2.484 0 0 1-3.937-1.783 13.6 13.6 0 0 1-.265-4.109m-3.993 30.207a2.3 2.3 0 0 1 .3.37c-.35 0-.6.022-.843 0-2.791-.29-5.577-.613-8.37-.876-4.021-.379-8.045-.715-12.069-1.065-.295-.026-.593-.027-.889-.029-5.043-.034-10.086-.041-15.128-.106q-7.632-.1-15.262-.3c-3.2-.081-6.406-.239-9.879-.372a4.6 4.6 0 0 1 .958-.4c7.147-.8 14.293-1.614 21.445-2.365 2.694-.283 5.408-.361 8.1-.635 2.584-.262 5.154-.654 7.852-1l2.169-47.739.2.033c.516 3.309.952 6.632 1.564 9.924 1.218 6.543 2.42 13.094 3.84 19.6a54.4 54.4 0 0 0 6.953 16.437 21.25 21.25 0 0 0 7.925 7.822c.388.215.756.467 1.127.712M8.346 281.968a18.19 18.19 0 0 0 14.345-12.934 22 22 0 0 0 .728-4.515c.481-4.548-.619-8.928-1.678-13.274a89.7 89.7 0 0 0-6.187-17.424c-2.128-4.453-3.916-9.079-6.21-13.443Q4.772 211.677 0 203.091v79.687a38 38 0 0 0 8.346-.81"/><path id="aH" d="M343.418 86.554c-4.4.031-8.792.168-13.187.288-1.129.03-2.255.163-3.478.257.794-1 13.263-7.212 24-12.236V0h-13.679a119 119 0 0 1-.1 3.038c-.055 1.216-.192 2.429-.29 3.644l-.3.122c-.528-.759-1.1-1.493-1.574-2.284A43 43 0 0 0 331.622 0h-78.051a29.2 29.2 0 0 0-1.613 6.692 30.1 30.1 0 0 0 1.511 14.891c1.472 3.729 2.738 7.528 5.089 10.822a58.3 58.3 0 0 0 8.577 9.795c1.584 1.412 3.17 2.829 4.824 4.156A33.76 33.76 0 0 0 286.72 52.9a56 56 0 0 0 10.261 1.33 54 54 0 0 1 6.745.841 69 69 0 0 0 10.339.594h1.37c-.53.311-.793.47-1.061.622-4.008 2.268-8.3 3.93-12.482 5.82-3.827 1.728-7.595 3.588-11.361 5.448-2.7 1.334-5.358 2.756-8.025 4.155-1.293.679-1.35 1.291-.5 2.438 1.2 1.626 2.362 3.288 3.425 5 2.573 4.157 5.08 8.356 7.613 12.539.435.719.9 1.425 1.283 2.169.487.935.34 1.219-.584 1.761a59 59 0 0 0-6.315 3.839 25.16 25.16 0 0 0-8.481 11.555 40.95 40.95 0 0 0-2.4 16.006 63.4 63.4 0 0 0 1.8 11.085c1.43 6.194 3.9 12 6.35 17.834 3.054 7.27 7.405 13.727 11.937 20.089 7.86 11.034 15.855 21.975 23.624 33.063 4.537 6.477 8.824 13.131 13.076 19.8a35.7 35.7 0 0 1 5.28 12.647 19.8 19.8 0 0 1 .208 4.277 3.95 3.95 0 0 1-2.42 3.32 12.9 12.9 0 0 1-9.345 1.1 31 31 0 0 1-5.008-1.785c-4.575-1.984-9.1-4.084-13.679-6.063-3.117-1.348-6.287-2.572-9.478-3.868a3.8 3.8 0 0 0-.434.715 22.1 22.1 0 0 1-2.875 5.484 96.3 96.3 0 0 0-7.542 14.933c-.743 1.77-1.539 3.517-2.3 5.242.642.942 1.6.946 2.426 1.153 5.269 1.322 10.552 2.585 15.817 3.919a186 186 0 0 1 17.756 5.751 161.5 161.5 0 0 0 21.62 6.235 38 38 0 0 0 7.391.829v-79.686c-6.086-10.944-12.442-21.734-19.192-32.3-3.8-5.951-7.2-12.159-10.753-18.269-1.638-2.819-3.25-5.656-4.771-8.54a22.9 22.9 0 0 1-2.242-6.257 15.26 15.26 0 0 1 .916-8.854 7.2 7.2 0 0 1 3.592-3.592 27.4 27.4 0 0 1 8.009-2.568 58.5 58.5 0 0 1 10.033-.688 65 65 0 0 1 14.415 1.27V86.734c-2.443-.132-4.893-.2-7.339-.18m-19.594-52.748c-8.315-3.039-16.5-6.422-23.8-11.5a134 134 0 0 1-10.975-9 66 66 0 0 1-4.605-4.794 4.5 4.5 0 0 1-.613-.832 1.833 1.833 0 0 1 1.054-2.844 4.4 4.4 0 0 1 1.45-.221A28.77 28.77 0 0 1 301.38 8.9c5.734 3.69 11.278 7.628 15.596 13.054 2.394 3.009 4.973 5.871 7.461 8.806a13 13 0 0 1 1.258 1.64 18 18 0 0 1 .88 2.024 24 24 0 0 1-2.749-.622M40.086 350.757v-.009a4.8 4.8 0 0 1 .623-.914c.169.437.3.692.369.923h29.329a59.4 59.4 0 0 0-6.438-16.25c-1.225-2.2-2.476-4.388-3.814-6.518a16.2 16.2 0 0 0-2.463-3.117 5.25 5.25 0 0 1-.733-7.338 25.4 25.4 0 0 1 4.14-4.816 56 56 0 0 1 17.6-10.446c1.063-.383 2.183-.6 3.265-.937 1.344-.416 1.765-.085 1.5 1.26-.275 1.4-.547 2.808-.87 4.2-1.45 6.242-2.987 12.466-4.354 18.727-.882 4.041-1.484 8.142-2.283 12.2-.742 3.77-1.633 7.511-2.354 11.285-.111.579-.2 1.163-.287 1.748h62.886a27 27 0 0 1-.033-2.274 4.93 4.93 0 0 1 2.691-4.18 2.92 2.92 0 0 1 3.995.711 12.2 12.2 0 0 1 2.94 5.082l.177.661h22.5c-1.089-2.229-2.349-4.39-3.526-6.577-1-1.866-2.108-3.683-3.242-5.474a30 30 0 0 0-9.136-9.367c-.479-.308-.915-.683-1.371-1.026l.132-.262 33.055 4.974c-.376 2.142-.773 4.112-1.06 6.1-.521 3.605-1.041 7.214-1.442 10.834-.029.266-.052.533-.079.8h29.6a76 76 0 0 1 1.2-8c.8-3.913 1.587-7.838 2.613-11.7a19.82 19.82 0 0 1 8.648-11.627 11.7 11.7 0 0 1 2.836-1.258c1.79-.578 4.131 1.058 4.491 3.01a18.3 18.3 0 0 1-1.382 10.705c-1.71 3.994-3.58 7.922-5.224 11.942q-1.408 3.447-2.74 6.924h39.578a114.5 114.5 0 0 0 7.578-24.2 35.55 35.55 0 0 0 .083-14.265 21 21 0 0 0-4.759-9.427 28.6 28.6 0 0 0-9.779-7.3 91 91 0 0 0-15.3-5.959 41.2 41.2 0 0 0-29.711 3.541 39.4 39.4 0 0 0-6.424 4.991 61.2 61.2 0 0 0-14.39 18.856c-.133.264-.262.533-.414.787-.043.071-.162.1-.313.182l1.868-16.218c-1.014-.285-2.032-.658-3.083-.854-6.044-1.12-11.823-3.17-17.666-4.989-3.925-1.222-7.96-1.911-11.957-2.8-8.961-1.993-17.893-4.118-26.84-6.172-9.909-2.274-19.86-4.347-29.889-6.027-1.75-.293-3.519-.478-5.276-.73a1.98 1.98 0 0 0-2.228 1.25 150 150 0 0 0-7 14.058 6 6 0 0 1-.418.659 6 6 0 0 1-.318-1.039 22.7 22.7 0 0 0-1.462-6.325c-1.035-2.666-1.783-5.443-2.787-8.122a41 41 0 0 0-1.989-3.959 2.13 2.13 0 0 0-2.334-1.2 14 14 0 0 0-2.766.459c-3.9 1.257-7.779 2.574-11.655 3.9-1.308.446-2.6.949-3.88 1.468a61.2 61.2 0 0 0-19.1 12.514 96.3 96.3 0 0 0-11.166 12.44 69.7 69.7 0 0 0-8.182 14.236c-1.424 3.311-2.83 6.632-4.127 9.993-.834 2.161-1.452 4.405-2.176 6.609-.182.556-.4 1.1-.7 1.916a5.3 5.3 0 0 1-.519-1.013c-.429-1.973-.809-3.956-1.241-5.928-.644-2.938-1.353-5.862-1.969-8.806-.737-3.524-1.4-7.063-2.1-10.594a14 14 0 0 0-.341-1.439c-1.108-3.584-2.154-7.19-3.377-10.736a62 62 0 0 0-2.49-5.69q-.427-.917-.827-1.842v57.779Zm71.291-28.908 14.831 3.293.1.311c-7.592 1.865-13.339 6.306-18.108 12.462 1.049-5.3 2.1-10.6 3.179-16.066"/><path id="aI" d="M327.441 345.829a32.2 32.2 0 0 0-7.128-5.757 79 79 0 0 0-8.615-4.9c-2.8-1.324-5.8-2.228-8.713-3.295-.926-.338-1.881-.6-2.818-.905a39.4 39.4 0 0 0-7.371-1.54 14 14 0 0 1-1.657-.407l-.057-.343a13 13 0 0 1 1.47-.744c4.914-1.79 9.826-3.592 14.761-5.322 2.093-.734 4.246-1.294 6.365-1.957 4.989-1.564 9.97-3.152 14.965-4.7a13 13 0 0 1 2.031-.275c.541 1.131 1.113 2.213 1.586 3.336a56.8 56.8 0 0 1 3.879 14.392 109 109 0 0 1 .932 17.345h13.686v-57.779c-1.929-4.4-3.627-8.918-6.049-13.087a16 16 0 0 0-2.793-3.213 2.27 2.27 0 0 0-1.506-.3 24.3 24.3 0 0 0-6.451 1.557 185 185 0 0 0-17.706 6.759c-4.2 1.856-8.258 4.021-12.375 6.059q-4.641 2.3-9.268 4.626c-1.19.6-2.355 1.25-3.545 1.851q-6.47 3.273-12.948 6.529-2.774 1.4-5.534 2.829a3.7 3.7 0 0 0-.5.391c3.315 7.012 6.875 13.865 10.2 21.034-.895.338-1.608.624-2.332.877-2.328.814-4.7 1.526-6.984 2.444a33.4 33.4 0 0 0-10.532 6.522 33.84 33.84 0 0 0-8.863 12.901h78.051c-1.34-1.686-2.765-3.305-4.181-4.928"/><clipPath id="c"><rect width="1328" height="440" fill="#fff" stroke="#707070" rx="25" transform="translate(-14241.999 -12594)"/></clipPath><clipPath id="e"><path fill="#ebf2f9" d="M0 0h1006.633v1096.834H0z"/></clipPath><clipPath id="f"><path fill="url(#a)" d="M0 0h346.003v116.333H0z"/></clipPath><clipPath id="S"><path fill="url(#b)" d="M0 0h334.632v112.51H0z"/></clipPath><clipPath id="aE"><rect width="345.317" height="89.877" fill="none" stroke="#707070" rx="44.939"/></clipPath><clipPath id="aF"><path fill="#feba30" d="M0 0h350.757v350.757H0z"/></clipPath><clipPath id="aJ"><path fill="#5aa6ff" d="M0 0h350.757v350.757H0z"/></clipPath><linearGradient id="a" x1=".5" x2=".5" y2="1" gradientUnits="objectBoundingBox"><stop offset="0" stop-color="#268afe"/><stop offset="1" stop-color="#bddcff"/></linearGradient><linearGradient id="b" x1=".5" x2=".5" y2="1" gradientUnits="objectBoundingBox"><stop offset="0" stop-color="#feba30"/><stop offset="1" stop-color="#fff8ea"/></linearGradient><linearGradient id="d" x1=".82" x2=".169" y1=".304" y2=".773" gradientUnits="objectBoundingBox"><stop offset="0" stop-color="#fff8ea"/><stop offset="1" stop-color="#ffe3ac"/></linearGradient></defs><g clip-path="url(#c)" transform="translate(14241.999 12594)"><path fill="url(#d)" d="M0 0h1378.557v480.684H0Z" transform="translate(-14269.223 -12622.15)"/><g clip-path="url(#e)" style="isolation:isolate" transform="translate(-14323.979 -13187.567)"><path fill="#ebf2f9" d="M934.471 0H458.216a72.16 72.16 0 0 0-72.162 72.159v274.21a72.16 72.16 0 0 1-72.159 72.159H72.159A72.157 72.157 0 0 0 0 490.688v533.984a72.16 72.16 0 0 0 72.159 72.162h443.783a72.16 72.16 0 0 0 72.159-72.162v-339.15a72.163 72.163 0 0 1 72.162-72.162h274.208a72.157 72.157 0 0 0 72.159-72.16V72.159A72.16 72.16 0 0 0 934.471 0"/></g><path fill="#eef6ff" d="M278.719 0c153.932 0 278.718 124.787 278.718 278.719S432.651 557.437 278.719 557.437 0 432.651 0 278.719 124.787 0 278.719 0" opacity=".23" style="mix-blend-mode:multiply;isolation:isolate" transform="translate(-14491.727 -12273.774)"/><path fill="#5aa6ff" d="M278.719 0c153.932 0 278.718 124.787 278.718 278.719S432.651 557.437 278.719 557.437 0 432.651 0 278.719 124.787 0 278.719 0" opacity=".23" style="mix-blend-mode:multiply;isolation:isolate" transform="translate(-14160.058 -13093.978)"/><path fill="#f9fbe8" d="M278.719 0c153.932 0 278.718 124.787 278.718 278.719S432.651 557.437 278.719 557.437 0 432.651 0 278.719 124.787 0 278.719 0" opacity=".23" style="mix-blend-mode:multiply;isolation:isolate" transform="translate(-14703.335 -12508.441)"/><g fill="url(#a)" opacity=".19" style="mix-blend-mode:multiply;isolation:isolate" transform="translate(-14529.66 -12606.798)"><g clip-path="url(#f)" transform="translate(0 232.666)"><use href="#h"/><use href="#i"/><use href="#j"/><use href="#k"/><use href="#l"/><use href="#m"/><use href="#n"/><use href="#o"/><use href="#p"/><use href="#q"/><use href="#r"/><use href="#s"/><use href="#t"/><use href="#u"/><use href="#v"/><use href="#w"/><use href="#x"/><use href="#y"/><use href="#z"/><use href="#A"/><use href="#B"/><use href="#C"/><use href="#D"/><use href="#E"/><use href="#F"/><use href="#G"/><use href="#H"/><use href="#I"/><use href="#J"/><use href="#K"/><use href="#L"/><use href="#M"/><use href="#N"/><use href="#O"/><use href="#P"/><use href="#Q"/><use href="#R"/></g><g clip-path="url(#f)" transform="translate(0 116.333)"><use href="#h"/><use href="#i"/><use href="#j"/><use href="#k"/><use href="#l"/><use href="#m"/><use href="#n"/><use href="#o"/><use href="#p"/><use href="#q"/><use href="#r"/><use href="#s"/><use href="#t"/><use href="#u"/><use href="#v"/><use href="#w"/><use href="#x"/><use href="#y"/><use href="#z"/><use href="#A"/><use href="#B"/><use href="#C"/><use href="#D"/><use href="#E"/><use href="#F"/><use href="#G"/><use href="#H"/><use href="#I"/><use href="#J"/><use href="#K"/><use href="#L"/><use href="#M"/><use href="#N"/><use href="#O"/><use href="#P"/><use href="#Q"/><use href="#R"/></g><g clip-path="url(#f)"><use href="#h"/><use href="#i"/><use href="#j"/><use href="#k"/><use href="#l"/><use href="#m"/><use href="#n"/><use href="#o"/><use href="#p"/><use href="#q"/><use href="#r"/><use href="#s"/><use href="#t"/><use href="#u"/><use href="#v"/><use href="#w"/><use href="#x"/><use href="#y"/><use href="#z"/><use href="#A"/><use href="#B"/><use href="#C"/><use href="#D"/><use href="#E"/><use href="#F"/><use href="#G"/><use href="#H"/><use href="#I"/><use href="#J"/><use href="#K"/><use href="#L"/><use href="#M"/><use href="#N"/><use href="#O"/><use href="#P"/><use href="#Q"/><use href="#R"/></g><g clip-path="url(#f)" transform="translate(0 348.999)"><use href="#h"/><use href="#i"/><use href="#j"/><use href="#k"/><use href="#l"/><use href="#m"/><use href="#n"/><use href="#o"/><use href="#p"/><use href="#q"/><use href="#r"/><use href="#s"/><use href="#t"/><use href="#u"/><use href="#v"/><use href="#w"/><use href="#x"/><use href="#y"/><use href="#z"/><use href="#A"/><use href="#B"/><use href="#C"/><use href="#D"/><use href="#E"/><use href="#F"/><use href="#G"/><use href="#H"/><use href="#I"/><use href="#J"/><use href="#K"/><use href="#L"/><use href="#M"/><use href="#N"/><use href="#O"/><use href="#P"/><use href="#Q"/><use href="#R"/></g></g><g fill="url(#b)" opacity=".19" style="mix-blend-mode:multiply;isolation:isolate" transform="translate(-13277.347 -12606.828)"><g clip-path="url(#S)" transform="translate(0 225.019)"><use href="#T"/><use href="#U"/><use href="#V"/><use href="#W"/><use href="#X"/><use href="#Y"/><use href="#Z"/><use href="#aa"/><use href="#ab"/><use href="#ac"/><use href="#ad"/><use href="#ae"/><use href="#af"/><use href="#ag"/><use href="#ah"/><use href="#ai"/><use href="#aj"/><use href="#ak"/><use href="#al"/><use href="#am"/><use href="#an"/><use href="#ao"/><use href="#ap"/><use href="#aq"/><use href="#ar"/><use href="#as"/><use href="#at"/><use href="#au"/><use href="#av"/><use href="#aw"/><use href="#ax"/><use href="#ay"/><use href="#az"/><use href="#aA"/><use href="#aB"/><use href="#aC"/><use href="#aD"/></g><g clip-path="url(#S)" transform="translate(0 112.51)"><use href="#T"/><use href="#U"/><use href="#V"/><use href="#W"/><use href="#X"/><use href="#Y"/><use href="#Z"/><use href="#aa"/><use href="#ab"/><use href="#ac"/><use href="#ad"/><use href="#ae"/><use href="#af"/><use href="#ag"/><use href="#ah"/><use href="#ai"/><use href="#aj"/><use href="#ak"/><use href="#al"/><use href="#am"/><use href="#an"/><use href="#ao"/><use href="#ap"/><use href="#aq"/><use href="#ar"/><use href="#as"/><use href="#at"/><use href="#au"/><use href="#av"/><use href="#aw"/><use href="#ax"/><use href="#ay"/><use href="#az"/><use href="#aA"/><use href="#aB"/><use href="#aC"/><use href="#aD"/></g><g clip-path="url(#S)"><use href="#T"/><use href="#U"/><use href="#V"/><use href="#W"/><use href="#X"/><use href="#Y"/><use href="#Z"/><use href="#aa"/><use href="#ab"/><use href="#ac"/><use href="#ad"/><use href="#ae"/><use href="#af"/><use href="#ag"/><use href="#ah"/><use href="#ai"/><use href="#aj"/><use href="#ak"/><use href="#al"/><use href="#am"/><use href="#an"/><use href="#ao"/><use href="#ap"/><use href="#aq"/><use href="#ar"/><use href="#as"/><use href="#at"/><use href="#au"/><use href="#av"/><use href="#aw"/><use href="#ax"/><use href="#ay"/><use href="#az"/><use href="#aA"/><use href="#aB"/><use href="#aC"/><use href="#aD"/></g><g clip-path="url(#S)" transform="translate(0 337.53)"><use href="#T"/><use href="#U"/><use href="#V"/><use href="#W"/><use href="#X"/><use href="#Y"/><use href="#Z"/><use href="#aa"/><use href="#ab"/><use href="#ac"/><use href="#ad"/><use href="#ae"/><use href="#af"/><use href="#ag"/><use href="#ah"/><use href="#ai"/><use href="#aj"/><use href="#ak"/><use href="#al"/><use href="#am"/><use href="#an"/><use href="#ao"/><use href="#ap"/><use href="#aq"/><use href="#ar"/><use href="#as"/><use href="#at"/><use href="#au"/><use href="#av"/><use href="#aw"/><use href="#ax"/><use href="#ay"/><use href="#az"/><use href="#aA"/><use href="#aB"/><use href="#aC"/><use href="#aD"/></g></g><g clip-path="url(#aE)" transform="translate(-13414.664 -12215.61)"><g transform="rotate(-90 86.33 89.049)"><path fill="#fff8ea" d="M0 .001h350.756v350.756H0Z"/><g fill="#feba30" clip-path="url(#aF)"><use href="#aG"/><use href="#aH"/><use href="#aI"/></g></g></g><g clip-path="url(#aE)" transform="translate(-14109.347 -12651.767)"><g transform="rotate(-90 86.33 89.049)"><path fill="#eef6ff" d="M0 .001h350.756v350.756H0Z"/><g fill="#5aa6ff" clip-path="url(#aJ)"><use href="#aG"/><use href="#aH"/><use href="#aI"/></g></g></g></g></svg>