<svg xmlns="http://www.w3.org/2000/svg" width="53.636" height="53.648" viewBox="0 0 53.636 53.648"><path fill="#986f1c" d="M44.068 28.646a.9.9 0 0 0-.266-.04H22.348a.894.894 0 0 0-.856 1.149l3.731 12.515a.89.89 0 0 0 .856.639h13.82a.9.9 0 0 0 .854-.628l3.9-12.515a.894.894 0 0 0-.585-1.12m-4.824 12.475h-12.5l-3.2-10.727h19.04Z"/><path fill="#986f1c" d="M49.166 27.712a.89.89 0 0 0-.839.585l-6.042 16.4H24.136v1.788h4.47v1.953a2.682 2.682 0 1 0 1.788 0v-1.953h8.045v1.953a2.682 2.682 0 1 0 1.788 0v-1.953h2.682a.89.89 0 0 0 .839-.585l6.042-16.4h3.846v-1.788ZM29.5 51.848a.894.894 0 1 1 .894-.894.894.894 0 0 1-.894.894m9.833 0a.894.894 0 1 1 .894-.894.894.894 0 0 1-.894.894"/><path fill="#986f1c" d="M27.493 32.695h10.626v2.452H27.493zm.818 4.086h8.991v1.635h-8.991zm-1.755-20.428L10.465.262a.894.894 0 0 0-1.264 0L.262 9.2a.894.894 0 0 0 0 1.264l16.091 16.092a.9.9 0 0 0 .632.262h8.939a.894.894 0 0 0 .894-.893v-8.94a.9.9 0 0 0-.262-.632M25.03 25.03h-7.675l-15.2-15.2 7.678-7.672 15.2 15.2ZM45.776 7.874a2.465 2.465 0 0 0-3.486-.014l-.014.014c-1.231 1.23-.56 2.508-.16 3.271.442.842.4.931.16 1.172a.677.677 0 1 1-.958-.957l-1.264-1.264a2.465 2.465 0 0 0 3.486 3.486c1.228-1.229.559-2.505.159-3.268-.443-.843-.4-.933-.159-1.176a.677.677 0 0 1 .958.957l1.264 1.264a2.465 2.465 0 0 0 .014-3.485M11.052 43.171l1.264 1.264a2.202 2.202 0 0 0-3.1-3.128l-.013.013a2.234 2.234 0 0 0-.16 2.9c.331.631.3.657.16.8a.415.415 0 0 1-.589-.585L7.35 43.171a2.2 2.2 0 0 0 1.557 3.76 2.2 2.2 0 0 0 1.558-.644 2.23 2.23 0 0 0 .159-2.9c-.332-.632-.306-.659-.159-.805a.415.415 0 0 1 .589.585Z"/><path fill="#986f1c" d="M53.374 6.52 47.115.262a.893.893 0 0 0-1.264 0l-11.62 11.621a.9.9 0 0 0-.262.632v6.258a.894.894 0 0 0 .893.894h6.258a.9.9 0 0 0 .632-.262L53.374 7.784a.894.894 0 0 0 0-1.264M40.75 17.879h-4.993v-4.993L46.484 2.158l4.993 4.993ZM16.985 35.757h-6.258a.9.9 0 0 0-.632.262L.262 45.857a.894.894 0 0 0 0 1.264l6.258 6.257a.894.894 0 0 0 1.264 0l9.833-9.833a.9.9 0 0 0 .262-.632v-6.257a.894.894 0 0 0-.894-.899m-.894 6.781-8.939 8.939-4.993-4.993 8.939-8.939h4.993zm4.916-22.871a1.341 1.341 0 1 0 1.341 1.341 1.34 1.34 0 0 0-1.341-1.341m-2.956-2.88a2.98 2.98 0 0 0-.525-3.487c-1.483-1.484-3-.687-4.008-.159-1.086.57-1.415.659-1.916.159a1.202 1.202 0 0 1 1.7-1.7l1.264-1.264a2.98 2.98 0 0 0-3.487-.525L9.573 8.305 8.309 9.571l1.5 1.507a2.98 2.98 0 0 0 .525 3.487c1.485 1.486 3.006.688 4.011.16 1.083-.57 1.412-.66 1.913-.16a1.202 1.202 0 0 1-1.7 1.7l-1.264 1.264a2.95 2.95 0 0 0 3.487.525l1.353 1.353 1.275-1.267Zm15.164 4.465h1.635v1.635h-1.635zm0 4.086h1.635v1.635h-1.635zm-15.53 3.27h1.635v1.635h-1.635zm0 3.269h1.635v2.452h-1.635z"/></svg>