<svg xmlns="http://www.w3.org/2000/svg" width="104" height="104" viewBox="0 0 104 104"><g fill="#9bac1c" transform="translate(-1205 -2680.285)"><path d="M1257 2682.285a50.014 50.014 0 0 0-19.462 96.072 50.014 50.014 0 0 0 38.924-92.144 49.7 49.7 0 0 0-19.462-3.928m0-2a52 52 0 1 1-52 52 52 52 0 0 1 52-52"/><path d="M1288.051 2740.834a3.3 3.3 0 0 0-1.658-.97 3.35 3.35 0 0 0-3.059-4.391h-.081a3.346 3.346 0 0 0-3.188-3.5 3.35 3.35 0 0 0-5.617-2.748l-.448.403a4.04 4.04 0 0 0-2.239-.758 4.2 4.2 0 0 0-1.192.134l-1.817-2.172a1.826 1.826 0 0 0-2.567-.23l-.473.4-19.012-22.674a.936.936 0 0 0-1.435 1.2l.034.04-19.806 16.549a1.373 1.373 0 0 0 .112 2.192l7.523 5.077 3.977 8.714a1.36 1.36 0 0 0 .945.769 1.4 1.4 0 0 0 .307.035 1.36 1.36 0 0 0 .877-.321l19.829-16.6 5.213 6.215-.657.548a1.823 1.823 0 0 0-.23 2.569l1.847 2.213a5.4 5.4 0 0 0-.6 1.215l-3.681 9.055-17.701 13.61a1.765 1.765 0 0 0 1.076 3.165h19.461a1.78 1.78 0 0 0 1.265-.534l5.284-5.425 5.563-.4a1 1 0 0 0 .1-.013 6.7 6.7 0 0 0 3.319-1.658l2.337-2.121q.028-.02.054-.042l1.5-1.26a3.3 3.3 0 0 0 1.684-.837l2.977-2.766a3.32 3.32 0 0 0 .177-4.683m-49.514-4.106-3.763-8.247a1.37 1.37 0 0 0-.481-.568l-7.093-4.785 19.3-16.117 11.361 13.541Zm40.706-.255a2.94 2.94 0 0 0-.623-1.977l.28-.268a1.478 1.478 0 0 1 2.121 2.052l-.095.084-2.926 2.719q-.065.06-.125.123a1.46 1.46 0 0 1-.754.294 3 3 0 0 0 .593-.429l.542-.5a3.06 3.06 0 0 0 .987-2.101Zm-3.519-5.879a1.48 1.48 0 0 1 2.089.077 1.48 1.48 0 0 1-.077 2.088l-.384.357-2.014-2.163Zm-10.864-.437 2.492-2.081 1.526 1.825q-.07.06-.138.124l-2.233 2.1Zm13.2 21a4.8 4.8 0 0 1-2.346 1.189l-5.864.421a.94.94 0 0 0-.6.281l-5.5 5.648h-19.1l17.65-13.568.037-.031.025-.021a1 1 0 0 0 .083-.087l.014-.018a1 1 0 0 0 .064-.091l.011-.017a1 1 0 0 0 .058-.116v-.007l3.787-9.315.02-.054a3.54 3.54 0 0 1 .929-1.446l2.69-2.531a2.33 2.33 0 0 1 1.681-.642 2.16 2.16 0 0 1 1.523.686l.1.108 3.289 3.533.466.5a1.1 1.1 0 0 1 .287.8 1.2 1.2 0 0 1-.386.819l-.542.5a1.17 1.17 0 0 1-1.323.2l-.031-.015a1 1 0 0 1-.264-.207l-1.366-1.469a2.67 2.67 0 0 0-1.877-.852 2.76 2.76 0 0 0-2 .757.94.94 0 0 0-.293.742 5.3 5.3 0 0 1-.028 1.005c0 .017-.005.033-.006.05a4.5 4.5 0 0 1-.927 2.181.936.936 0 1 0 1.483 1.143 6.6 6.6 0 0 0 .785-1.3l8.542 10.213.012.013Zm2.483-2.254-9.381-11.211q.014-.202.016-.4a.9.9 0 0 1 .341-.056.8.8 0 0 1 .568.255l1.366 1.469a3 3 0 0 0 .453.4 3.34 3.34 0 0 0 2.953 2.027h.08a3.35 3.35 0 0 0 2.561 3.411 3.32 3.32 0 0 0 1.337 3.84Zm-.312-5.892a1.478 1.478 0 0 1-1.061-2.446q.048-.04.095-.084l2.925-2.717q.065-.06.125-.123a1.478 1.478 0 0 1 1.9 2.259l-.539.5a3 3 0 0 0-.311.255l-2.287 2.124a1.46 1.46 0 0 1-.847.236Zm6.372 1.13-2.977 2.766a1.43 1.43 0 0 1-.866.38h-.169a1.442 1.442 0 0 1-.928-2.5l.591-.549a3 3 0 0 0 .312-.256l2.285-2.123a1.442 1.442 0 0 1 1.749 2.286Z"/></g></svg>