<svg xmlns="http://www.w3.org/2000/svg" width="47" height="47" viewBox="0 0 47 47"><path fill="#986f1c" fill-rule="evenodd" d="M8.1 34.791v7.347A4.864 4.864 0 0 0 12.965 47c.008 0 3.985 0 6.546-.011a3.23 3.23 0 0 0 3.206-3.564l-.028-.476a4.052 4.052 0 1 1 8.1 0 2.3 2.3 0 0 1-.026.381l-.011.094A3.24 3.24 0 0 0 33.978 47h8.16A4.864 4.864 0 0 0 47 42.138c0-.01 0-4.569-.011-7.356a3.23 3.23 0 0 0-3.564-3.206l-.477.028a4.052 4.052 0 1 1 0-8.1 2.3 2.3 0 0 1 .381.026c.032 0 .063.008.094.011A3.24 3.24 0 0 0 47 20.315v-7.35a4.864 4.864 0 0 0-4.862-4.862h-8.149a7 7 0 0 0 .045-.81 7.293 7.293 0 0 0-14.586 0 7 7 0 0 0 .045.81h-6.528a4.864 4.864 0 0 0-4.862 4.862s0 4.551-.011 7.337a7 7 0 0 0-.8-.044 7.293 7.293 0 1 0 0 14.586 6 6 0 0 0 .808-.053m35.655-14.479a6 6 0 0 0-.81-.053 7.293 7.293 0 0 0 0 14.586 7 7 0 0 0 .8-.044c.011 2.786.011 7.337.011 7.337a1.62 1.62 0 0 1-1.621 1.621h-8.157a6 6 0 0 0 .053-.81 7.293 7.293 0 1 0-14.586 0 7 7 0 0 0 .044.8c-2.557.011-6.527.011-6.527.011a1.62 1.62 0 0 1-1.621-1.621v-7.35a3.24 3.24 0 0 0-3.577-3.222q-.046.002-.094.011a2.3 2.3 0 0 1-.381.026 4.052 4.052 0 1 1 0-8.1l.476.028a3.23 3.23 0 0 0 3.564-3.212c.011-2.784.011-7.35.011-7.35a1.62 1.62 0 0 1 1.621-1.621h8.65a1.62 1.62 0 0 0 1.464-2.316 4.052 4.052 0 1 1 7.326 0 1.62 1.62 0 0 0 1.463 2.316h10.27a1.62 1.62 0 0 1 1.621 1.621Z"/></svg>