<svg xmlns="http://www.w3.org/2000/svg" width="85" height="85" viewBox="0 0 85 85"><g transform="translate(-297.345 -776.142)"><path fill="#fff8ea" d="M339.678 776.479a42.332 42.332 0 1 1-42.328 42.332 42.33 42.33 0 0 1 42.333-42.332"/><g fill="#481d1d" transform="translate(364.002 776.479)"><path d="m.848 8.46-.74-.673 7.17-7.884.74.673Z"/><path d="M7.548 8.255-.336 1.087l.672-.74 7.885 7.17ZM.869 19.56l-.74-.673 7.17-7.884.74.673Z"/><path d="m7.569 19.355-7.884-7.168.672-.74 7.885 7.17Zm3.38-11.134-.74-.673 7.17-7.884.74.673Z"/><path d="M17.649 8.016 9.765.848l.672-.74 7.885 7.17ZM10.97 19.321l-.74-.673 7.17-7.884.74.673Z"/><path d="m17.67 19.116-7.884-7.168.672-.74 7.885 7.17Z"/></g><g fill="#feba30" transform="translate(234.959 714.083)"><path d="M94.743 105.526a10.774 10.774 0 1 1 7.618-3.156 10.77 10.77 0 0 1-7.618 3.156m0-19.951a9.178 9.178 0 1 0 9.178 9.178 9.19 9.19 0 0 0-9.178-9.178"/><path d="M114.694 105.526a10.774 10.774 0 1 1 7.618-3.156 10.77 10.77 0 0 1-7.618 3.156m0-19.951a9.178 9.178 0 1 0 9.178 9.178 9.19 9.19 0 0 0-9.178-9.178"/><path d="M114.694 125.477a10.774 10.774 0 1 1 7.618-3.156 10.77 10.77 0 0 1-7.618 3.156m0-19.951a9.178 9.178 0 1 0 9.178 9.178 9.19 9.19 0 0 0-9.178-9.178"/><path d="M94.743 125.477a10.774 10.774 0 1 1 7.618-3.156 10.77 10.77 0 0 1-7.618 3.156m0-19.951a9.178 9.178 0 1 0 9.178 9.178 9.19 9.19 0 0 0-9.178-9.178m25.174 15.08h-10.445a2.153 2.153 0 0 1-1.865-3.23l5.223-9.046a2.154 2.154 0 0 1 3.73 0l5.223 9.046a2.153 2.153 0 0 1-1.865 3.23Zm-5.223-11.756a.55.55 0 0 0-.483.278l-5.222 9.046a.557.557 0 0 0 .482.836h10.445a.557.557 0 0 0 .482-.836l-5.222-9.046a.55.55 0 0 0-.482-.278m-1.174-.121"/><path d="M114.696 116.385a.8.8 0 0 1-.8-.8v-3.8a.8.8 0 1 1 1.6 0v3.8a.8.8 0 0 1-.8.8m0 2.142h-.078q-.037-.002-.078-.011l-.076-.019-.073-.026-.071-.033-.067-.04q-.033-.021-.063-.047l-.058-.05-.053-.058q-.024-.03-.046-.063l-.04-.067-.033-.071-.026-.073-.019-.076-.012-.077v-.157c0-.028.007-.05.012-.077l.019-.076.026-.074q.015-.036.033-.07a.7.7 0 0 1 .086-.13l.053-.058.058-.053.063-.046.067-.04.071-.033.073-.026.076-.019c.026 0 .05-.009.078-.012a1 1 0 0 1 .157 0c.026 0 .05.007.078.012s.05.011.076.019l.073.026.071.033.067.04a.8.8 0 0 1 .174.158q.024.03.046.063l.04.067a1 1 0 0 1 .059.144q.011.037.02.076l.011.077v.157q-.002.038-.011.077l-.02.076-.026.073-.033.071-.04.067-.046.063-.053.058a1 1 0 0 1-.121.1l-.067.04-.071.033-.073.026-.076.019-.078.011zm-19.954 2.229a2.045 2.045 0 0 1-2.045-2.045v-1.962h-1.962a2.045 2.045 0 1 1 0-4.09h1.962v-1.967a2.045 2.045 0 1 1 4.09 0v1.962h1.962a2.045 2.045 0 1 1 0 4.09h-1.962v1.962a2.045 2.045 0 0 1-2.045 2.05m-4.007-6.5a.45.45 0 0 0 0 .9h2.76a.8.8 0 0 1 .8.8v2.76a.45.45 0 1 0 .9 0v-2.76a.8.8 0 0 1 .8-.8h2.76a.45.45 0 0 0 0-.9h-2.76a.8.8 0 0 1-.8-.8v-2.764a.45.45 0 1 0-.9 0v2.76a.8.8 0 0 1-.8.8Zm1.339-13.593h-3.541a.8.8 0 0 1-.8-.8v-7.389a.8.8 0 0 1 .8-.8h3.541a.8.8 0 0 1 .8.8v7.389a.8.8 0 0 1-.8.8m-2.743-1.6h1.945V93.27h-1.945Z"/><path d="M98.708 100.663h-6.634a.8.8 0 0 1 0-1.6h6.634a.4.4 0 0 0 .405-.405.2.2 0 0 0-.069-.15.8.8 0 0 1 .368-1.39.28.28 0 0 0 .226-.277v-.224a.1.1 0 0 0-.039-.076.8.8 0 0 1 .182-1.394.3.3 0 0 0 .14-.108.3.3 0 0 0 .053-.169v-.253a.1.1 0 0 0-.047-.086.8.8 0 0 1 .034-1.355.4.4 0 0 0 .078-.06.4.4 0 0 0 .114-.276.5.5 0 0 0-.5-.5h-3.967a.8.8 0 0 1-.72-1.143 6.5 6.5 0 0 0 .228-1.546 2.17 2.17 0 0 0-.324-1.522 1 1 0 0 0-.262-.181.08.08 0 0 0-.086.008.1.1 0 0 0-.046.085v1.258a2.9 2.9 0 0 1-.438 1.529l-1.286 2.064a.8.8 0 1 1-1.355-.844l1.289-2.059a1.3 1.3 0 0 0 .2-.684v-1.261a1.7 1.7 0 0 1 2.351-1.564 2.5 2.5 0 0 1 .714.47 3.52 3.52 0 0 1 .841 2.864 9 9 0 0 1-.092.932h2.961a2.1 2.1 0 0 1 2.095 2.095 1.97 1.97 0 0 1-.324 1.089 1.7 1.7 0 0 1 .145.688v.253a1.9 1.9 0 0 1-.344 1.091 1 1 0 0 1-.084.109 1.7 1.7 0 0 1 .092.549v.225a1.88 1.88 0 0 1-.584 1.361 1.8 1.8 0 0 1 .059.455 2 2 0 0 1-2 2Zm-3.722-9.494-.011.023Z"/><path d="M100.064 96.702a.8.8 0 1 1 .564-.233.8.8 0 0 1-.564.233m11.961 1.023h-3.541a.8.8 0 0 1-.8-.8v-7.389a.8.8 0 0 1 .8-.8h3.541a.8.8 0 0 1 .8.8v7.389a.8.8 0 0 1-.8.8m-2.743-1.6h1.945v-5.793h-1.945Z"/><path d="M114.525 103.055a1.7 1.7 0 0 1-1.7-1.7v-1.26a1.3 1.3 0 0 0-.2-.684l-1.287-2.065a.8.8 0 1 1 1.355-.844l1.287 2.065a2.9 2.9 0 0 1 .437 1.528v1.266a.1.1 0 0 0 .046.085.08.08 0 0 0 .085.009 1 1 0 0 0 .263-.181 2.18 2.18 0 0 0 .324-1.522 6.4 6.4 0 0 0-.227-1.546.8.8 0 0 1 .72-1.142h3.968a.5.5 0 0 0 .5-.5.4.4 0 0 0-.114-.276.4.4 0 0 0-.078-.06.8.8 0 0 1-.033-1.356.1.1 0 0 0 .046-.085v-.253a.3.3 0 0 0-.053-.169.3.3 0 0 0-.138-.109.8.8 0 0 1-.184-1.4.1.1 0 0 0 .039-.076v-.219a.28.28 0 0 0-.226-.276.8.8 0 0 1-.369-1.39.2.2 0 0 0 .07-.15.4.4 0 0 0-.405-.405h-6.634a.8.8 0 0 1 0-1.6h6.634a2 2 0 0 1 2 2 1.8 1.8 0 0 1-.059.454 1.88 1.88 0 0 1 .586 1.361v.225a1.7 1.7 0 0 1-.092.549q.044.053.083.109a1.9 1.9 0 0 1 .346 1.09v.253a1.7 1.7 0 0 1-.145.686 1.97 1.97 0 0 1 .324 1.089 2.1 2.1 0 0 1-2.095 2.095h-2.954a9 9 0 0 1 .094.933 3.52 3.52 0 0 1-.841 2.864 2.5 2.5 0 0 1-.716.471 1.7 1.7 0 0 1-.657.136m.4-4.845.012.023Z"/><path d="M120.015 94.308a.8.8 0 1 1 .564-.233.8.8 0 0 1-.564.233"/></g></g></svg>