<svg xmlns="http://www.w3.org/2000/svg" width="85" height="85" viewBox="0 0 85 85"><g transform="translate(-297.345 -776.142)"><path fill="#eef6ff" d="M339.678 776.479a42.332 42.332 0 1 1-42.328 42.332 42.33 42.33 0 0 1 42.333-42.332"/><g fill="#481d1d" transform="translate(364.002 776.479)"><path d="m.848 8.46-.74-.673 7.17-7.884.74.673Z"/><path d="M7.548 8.255-.336 1.087l.672-.74 7.885 7.17ZM.869 19.56l-.74-.673 7.17-7.884.74.673Z"/><path d="m7.569 19.355-7.884-7.168.672-.74 7.885 7.17Zm3.38-11.134-.74-.673 7.17-7.884.74.673Z"/><path d="M17.649 8.016 9.765.848l.672-.74 7.885 7.17ZM10.97 19.321l-.74-.673 7.17-7.884.74.673Z"/><path d="m17.67 19.116-7.884-7.168.672-.74 7.885 7.17Z"/></g><g fill="#5aa6ff" transform="translate(318.677 797.778)"><path d="M41.991 25.174c0-5.575-2.3-12.864-8.688-15.481V6.9l1.9-1.52a.72.72 0 0 0 .271-.565V.76a.724.724 0 0 0-.724-.724h-2.171a.72.72 0 0 0-.512.212l-.936.936L30.2.248a.72.72 0 0 0-.512-.212h-2.9a.72.72 0 0 0-.512.212l-.936.936-.94-.936a.72.72 0 0 0-.512-.212h-2.169A.724.724 0 0 0 21 .76v4.054a.72.72 0 0 0 .271.565l1.9 1.52v2.794C16.776 12.31 14.48 19.6 14.48 25.174a11.8 11.8 0 0 0 .6 3.849 17 17 0 0 0-.938-.028h-1.834a.724.724 0 0 0-.724-.724H5.792a.724.724 0 0 0-.724.729H0v1.448h5.068v7.24H0v1.448h5.068a.724.724 0 0 0 .724.724h5.792a.724.724 0 0 0 .724-.724v-.276l5.405 2.24a12.53 12.53 0 0 0 9.213.1l11.184-4.263a2.64 2.64 0 0 0 1.479-1.41 2.66 2.66 0 0 0-.469-2.889 10.04 10.04 0 0 0 2.871-7.464M10.86 38.407H6.516v-8.688h4.344Zm11.583-33.94V1.484h1.148l1.237 1.236a.724.724 0 0 0 1.024 0l1.236-1.236h2.3l1.231 1.236a.724.724 0 0 0 1.024 0l1.236-1.236h1.148v2.983l-1.7 1.361h-8.183Zm9.412 2.809v2.172h-7.24V7.276Zm6.407 27.668a1.2 1.2 0 0 1-.67.642L26.407 39.85a11.08 11.08 0 0 1-8.146-.088l-5.953-2.475v-6.844h1.835a15.54 15.54 0 0 1 6.916 1.633 5.1 5.1 0 0 0 2.284.539h5.616a1.086 1.086 0 0 1 .239 2.144c-.095.009-.188.028-.284.028h-8.642v1.448h8.731a4.5 4.5 0 0 0 1.671-.354l6.053-2.569a1.15 1.15 0 0 1 .9 0 1.2 1.2 0 0 1 .652.674 1.24 1.24 0 0 1-.017.958m-.431-3.084a2.58 2.58 0 0 0-1.67.115l-4.694 1.993a3 3 0 0 0 .027-.266 2.534 2.534 0 0 0-2.534-2.534h-5.617a3.7 3.7 0 0 1-1.637-.387 17 17 0 0 0-4.989-1.58 9.9 9.9 0 0 1-.79-4.027c0-5.213 2.129-12.055 8.109-14.278h8.4c5.979 2.223 8.109 9.066 8.109 14.278a8.58 8.58 0 0 1-2.715 6.685Z"/><path d="M8 35.036h1v2H8zm21.773-14.255-2.617-.872a.538.538 0 0 1 .169-1.049h1.82a.54.54 0 0 1 .538.539v.475h1.448v-.475a1.99 1.99 0 0 0-1.986-1.987h-.186v-1.448h-1.448v1.448h-.186a1.986 1.986 0 0 0-.628 3.87l2.617.872a.538.538 0 0 1-.169 1.049h-1.82a.54.54 0 0 1-.538-.539v-.475h-1.448v.475a1.99 1.99 0 0 0 1.986 1.987h.186v1.448h1.448v-1.448h.186a1.986 1.986 0 0 0 .628-3.87"/><path d="M28.236 13.068a7.964 7.964 0 1 0 7.964 7.964 7.964 7.964 0 0 0-7.964-7.964m0 14.48a6.516 6.516 0 1 1 6.516-6.516 6.516 6.516 0 0 1-6.516 6.516"/></g></g></svg>