<svg xmlns="http://www.w3.org/2000/svg" width="54.667" height="54.668" viewBox="0 0 54.667 54.668"><g fill="#5aa6ff"><path d="M14.97 35.995a1.07 1.07 0 0 0-.143 1.577l.644.7a7.255 7.255 0 0 0 10.672 0l.644-.7a1.07 1.07 0 0 0-.143-1.577l-1.7-1.277a4.17 4.17 0 0 0-4.139-.519 4.17 4.17 0 0 0-4.139.519Zm2.981.43a2.05 2.05 0 0 1 2.3-.117 1.07 1.07 0 0 0 1.1 0 2.05 2.05 0 0 1 2.3.116l.751.565a5.12 5.12 0 0 1-7.213 0ZM7.385 20.622a1.07 1.07 0 0 0 0 1.51 5.433 5.433 0 0 0 7.674 0 1.068 1.068 0 1 0-1.51-1.51 3.29 3.29 0 0 1-4.655 0 1.07 1.07 0 0 0-1.509 0m26.845 1.51a1.068 1.068 0 1 0-1.51-1.51 3.29 3.29 0 0 1-4.655 0 1.068 1.068 0 1 0-1.51 1.51 5.433 5.433 0 0 0 7.675 0m-14.527-.014a1.07 1.07 0 0 0-1.068 1.068V28.9a2.174 2.174 0 0 0 2.172 2.172 1.068 1.068 0 0 0 0-2.135.036.036 0 0 1-.036-.036v-5.714a1.07 1.07 0 0 0-1.068-1.069"/><path d="M41.937 29.209c-.2 0-.405.005-.606.015a23.5 23.5 0 0 0 .241-3.347v-7.583A17.9 17.9 0 0 0 28.565 1.061 29 29 0 0 0 17.911.144a1.068 1.068 0 0 0 .211 2.125 26.8 26.8 0 0 1 9.871.849 15.754 15.754 0 0 1 11.443 15.176v7.583a21.4 21.4 0 0 1-.314 3.646 12.735 12.735 0 0 0-9.758 14.407 21 21 0 0 1-8.578 3A21.207 21.207 0 0 1 2.135 25.877v-7.583a15.9 15.9 0 0 1 1.983-7.682 15.7 15.7 0 0 1 5.342-5.67 1.068 1.068 0 1 0-1.14-1.806A17.93 17.93 0 0 0 0 18.294v7.583a23.34 23.34 0 0 0 20.663 23.191 1 1 0 0 0 .245 0 23.5 23.5 0 0 0 9-2.974 12.73 12.73 0 1 0 12.029-16.885m0 23.324a10.594 10.594 0 1 1 10.594-10.594 10.606 10.606 0 0 1-10.594 10.594"/><path d="M44.754 35.545a9.184 9.184 0 0 0-8.539 10.6l-.364.364a1.068 1.068 0 1 0 1.51 1.51l.365-.365a9 9 0 0 0 1.453.116 9.19 9.19 0 0 0 9.151-8.654 3.384 3.384 0 0 0-3.576-3.576Zm1.444 3.453a7.05 7.05 0 0 1-6.424 6.613l1.117-1.117a1.068 1.068 0 1 0-1.51-1.51l-1.117 1.117a7.05 7.05 0 0 1 6.613-6.421 1.248 1.248 0 0 1 1.321 1.321ZM5.863 47.737H4.778v-1.086a1.068 1.068 0 1 0-2.135 0v1.086H1.557a1.068 1.068 0 1 0 0 2.135h1.085v1.086a1.068 1.068 0 1 0 2.135 0v-1.086h1.086a1.068 1.068 0 1 0 0-2.135m38.948-30.113h1.086v1.086a1.068 1.068 0 1 0 2.135 0v-1.086h1.086a1.068 1.068 0 1 0 0-2.135h-1.086v-1.086a1.068 1.068 0 1 0-2.135 0v1.086h-1.086a1.068 1.068 0 1 0 0 2.135"/><circle cx="1.068" cy="1.068" r="1.068" transform="translate(12.225 1.022)"/></g></svg>