<svg xmlns="http://www.w3.org/2000/svg" width="85" height="85" viewBox="0 0 85 85"><g transform="translate(-297.345 -776.142)"><path fill="#eef6ff" d="M339.678 776.479a42.332 42.332 0 1 1-42.328 42.332 42.33 42.33 0 0 1 42.333-42.332"/><g fill="#481d1d" transform="translate(364.002 776.479)"><path d="m.848 8.46-.74-.673 7.17-7.884.74.673Z"/><path d="M7.548 8.255-.336 1.087l.672-.74 7.885 7.17ZM.869 19.56l-.74-.673 7.17-7.884.74.673Z"/><path d="m7.569 19.355-7.884-7.168.672-.74 7.885 7.17Zm3.38-11.134-.74-.673 7.17-7.884.74.673Z"/><path d="M17.649 8.016 9.765.848l.672-.74 7.885 7.17ZM10.97 19.321l-.74-.673 7.17-7.884.74.673Z"/><path d="m17.67 19.116-7.884-7.168.672-.74 7.885 7.17Z"/></g><g fill="#5aa6ff" transform="translate(317.723 797.13)"><path d="m.369 3.975 2.893 5.052a.72.72 0 0 0 .451.342l2.7.674 9.246 9.246 1.022-1.021-9.399-9.386a.7.7 0 0 0-.335-.19l-2.59-.65-2.46-4.308 2.109-2.107 4.309 2.46.647 2.591a.7.7 0 0 0 .19.336l9.391 9.391 1.021-1.022-9.243-9.247-.674-2.694a.72.72 0 0 0-.342-.452L4.248.101a.72.72 0 0 0-.867.116L.492 3.106a.72.72 0 0 0-.124.868Zm30.032 10.262L14.507 30.128l-1.022-1.022 15.892-15.891ZM11.732 30.69a.72.72 0 0 0-.619-.35H6.775a.72.72 0 0 0-.619.35l-2.168 3.614a.72.72 0 0 0 0 .744l2.167 3.612a.72.72 0 0 0 .619.35h4.334a.72.72 0 0 0 .619-.35l2.167-3.612a.72.72 0 0 0 0-.744Zm-1.028 6.873H7.183l-1.734-2.889 1.734-2.89H10.7l1.734 2.89Zm0 0"/><path d="M34.946 17.338a8.638 8.638 0 0 0 8.4-10.763.722.722 0 0 0-1.211-.337l-4.5 4.494-3.562-1.189-1.19-3.567 4.5-4.5a.722.722 0 0 0-.342-1.21 8.642 8.642 0 0 0-10.763 8.4 8.5 8.5 0 0 0 .176 1.693l-15.82 15.822a8.5 8.5 0 0 0-1.692-.176 8.668 8.668 0 1 0 8.668 8.668 8.5 8.5 0 0 0-.176-1.693l3.787-3.787 1.656 1.656a.723.723 0 0 0 1.022 0l.361-.361a.81.81 0 0 1 1.147 1.144l-.362.368a.72.72 0 0 0 0 1.021l8.617 8.617a5.83 5.83 0 1 0 8.282-8.207l-.037-.037-8.617-8.621a.72.72 0 0 0-1.021 0l-.361.361a.81.81 0 0 1-1.148-1.144l.361-.361a.72.72 0 0 0 0-1.021l-1.656-1.656 3.787-3.787a8.5 8.5 0 0 0 1.692.176ZM37.784 41.9a4.4 4.4 0 0 1-1.536-.28l5.641-5.642a4.38 4.38 0 0 1-4.105 5.922M29.6 23.124a2.254 2.254 0 0 0 3.179 3.176l8.106 8.113q.131.133.25.276l-6.176 6.176a4 4 0 0 1-.276-.25L26.571 32.5a2.255 2.255 0 0 0-3.178-3.174l-1.156-1.156 6.208-6.2Zm2.917-7.265L16.131 32.242a.72.72 0 0 0-.191.686 7.272 7.272 0 1 1-5.253-5.253.73.73 0 0 0 .686-.19L27.757 11.1a.72.72 0 0 0 .19-.686 7.188 7.188 0 0 1 7.41-8.957L31.546 5.27a.72.72 0 0 0-.175.739l1.444 4.334a.72.72 0 0 0 .457.456l4.334 1.445a.72.72 0 0 0 .739-.174l3.81-3.81q.013.206.013.41a7.186 7.186 0 0 1-8.969 7 .72.72 0 0 0-.686.19Zm0 0"/><path d="m37.625 36.33-1.022 1.022-7.223-7.223 1.021-1.022Zm0 0"/></g></g></svg>