<svg xmlns="http://www.w3.org/2000/svg" width="54.667" height="54.667" viewBox="0 0 54.667 54.667"><path fill="#feba30" d="M52.8 13.162a1.87 1.87 0 0 0 1.868-1.871v-1.07A1.87 1.87 0 0 0 52.8 8.35H37.818A10.763 10.763 0 0 0 23.017.9a.8.8 0 0 0 .643 1.467 9.166 9.166 0 1 1-2.806 1.921.8.8 0 0 0-1.134-1.13 10.7 10.7 0 0 0-2.873 5.192H1.868A1.87 1.87 0 0 0 0 10.221v1.07a1.87 1.87 0 0 0 1.869 1.871H3.2v11.606l-3.077 4.8A.84.84 0 0 0 0 30v4.064a1.55 1.55 0 0 0 1.548 1.548H3.2v14.244H1.868A1.87 1.87 0 0 0 0 51.726V52.8a1.87 1.87 0 0 0 1.869 1.871H52.8a1.87 1.87 0 0 0 1.867-1.871v-1.07a1.87 1.87 0 0 0-1.867-1.874h-1.336V35.611h1.655a1.55 1.55 0 0 0 1.548-1.548V30a.76.76 0 0 0-.127-.432l-3.077-4.8V13.162Zm-24.664 8.32a10.78 10.78 0 0 0 9.683-8.32h1.528V24.2H28.134Zm-11.285-8.32a10.78 10.78 0 0 0 9.683 8.32V24.2H15.322V13.162ZM1.868 11.56a.27.27 0 0 1-.267-.269v-1.07a.27.27 0 0 1 .267-.27h14.739q-.029.4-.029.8t.03.8H1.868Zm11.852 1.6V24.2H4.8V13.162ZM52.8 51.457a.27.27 0 0 1 .267.269V52.8a.27.27 0 0 1-.267.269H1.868A.27.27 0 0 1 1.6 52.8v-1.07a.27.27 0 0 1 .267-.269Zm-48-1.601V35.611h14.48v14.245zm16.077 0V35.611h5.651v14.245h-5.647Zm13.7-9.524a.8.8 0 0 0 .8-.8v-3.921h14.485v14.245H35.387v-6.588a.8.8 0 1 0-1.6 0v6.588h-5.653V35.611h5.651v3.919a.8.8 0 0 0 .8.8Zm18.488-6.322H1.6V30.8h51.465ZM52.4 29.2H2.265l2.177-3.4h45.783Zm-11.455-5V13.162h8.915V24.2h-8.913Zm-2.886-12.64q.03-.4.03-.8t-.03-.8H52.8a.27.27 0 0 1 .267.27v1.07a.27.27 0 0 1-.267.269H38.059ZM16.13 38.5H7.954a1.55 1.55 0 0 0-1.548 1.548v5.369a1.55 1.55 0 0 0 1.548 1.548h8.176a1.55 1.55 0 0 0 1.548-1.548v-5.368A1.55 1.55 0 0 0 16.13 38.5m-.053 6.864H8.008V40.1h8.069Zm7.617-28.553h7.28a1.76 1.76 0 0 0 1.338-.619 1.81 1.81 0 0 0 .415-1.447l-.859-6.985a1.4 1.4 0 0 0-1.385-1.22h-.675V5.522a2.474 2.474 0 0 0-4.948 0V6.54h-.675A1.4 1.4 0 0 0 22.8 7.761l-.859 6.985a1.81 1.81 0 0 0 .415 1.447 1.76 1.76 0 0 0 1.337.619Zm2.768-11.29a.872.872 0 0 1 1.745 0V6.54h-1.746Zm-2.936 9.456c0-.015.839-6.816.841-6.836h.494v.925a.8.8 0 1 0 1.6 0v-.924h1.745v.925a.8.8 0 1 0 1.6 0v-.925h.494c0 .021.838 6.816.841 6.836a.18.18 0 0 1-.168.232h-7.28a.18.18 0 0 1-.168-.232Zm15.011 31.989h8.176a1.55 1.55 0 0 0 1.548-1.548v-5.369a1.55 1.55 0 0 0-1.548-1.549h-8.176a1.55 1.55 0 0 0-1.548 1.548v5.369a1.55 1.55 0 0 0 1.548 1.549m.053-6.866h8.069v5.262H38.59Z"/></svg>