<svg xmlns="http://www.w3.org/2000/svg" width="59.667" height="55.455" viewBox="0 0 59.667 55.455"><path fill="#986f1c" d="M26.846 36.869a1.166 1.166 0 1 0-1.649 0 1.167 1.167 0 0 0 1.649 0M27.27 9.44v2.331a6.993 6.993 0 0 0 13.985 0V9.44a1.166 1.166 0 0 0 0-2.331h-2.331a1.166 1.166 0 1 0 0 2.331v2.331a4.662 4.662 0 0 1-9.323 0V9.44a1.166 1.166 0 0 0 0-2.331H27.27a1.166 1.166 0 1 0 0 2.331m0 0"/><path fill="#986f1c" d="M13.544 55.114a1.166 1.166 0 0 0 1.647 0l3.578-3.578a5.4 5.4 0 0 0 1.565-4.373l1.283-1.239a5.4 5.4 0 0 1 3.77-1.524h15.344a10.43 10.43 0 0 0 7.315-2.973 1 1 0 0 0 .082-.089L58.568 28.8a4.664 4.664 0 0 0-7.1-6.049l-1.123 1.169V1.165A1.166 1.166 0 0 0 49.18 0H19.229a1.166 1.166 0 0 0-1.165 1.165v26.11a14.02 14.02 0 0 0-10.02 7.844A5.38 5.38 0 0 0 3.94 36.7L.343 40.28a1.165 1.165 0 0 0 0 1.651ZM48.015 2.33v24l-3.373 3.487a4.68 4.68 0 0 0-3.62-1.731H27.51a.6.6 0 0 1-.237-.05 15.1 15.1 0 0 0-5.713-1.116q-.586 0-1.165.04V2.33ZM19.4 29.4a13.24 13.24 0 0 1 7 .791 3 3 0 0 0 1.113.221h13.509a2.331 2.331 0 1 1 0 4.661H30.883a1.166 1.166 0 1 0 0 2.331h10.139a4.667 4.667 0 0 0 4.661-4.661 5 5 0 0 0-.041-.612c.243-.249 7.287-7.534 7.531-7.787l.052-.057a2.331 2.331 0 1 1 3.557 3.013L46.377 39.8a8.1 8.1 0 0 1-5.647 2.271H25.387A7.73 7.73 0 0 0 20 44.246l-.514.5a5.4 5.4 0 0 0-.716-.882L11.612 36.7a5.4 5.4 0 0 0-1.286-.951A11.67 11.67 0 0 1 19.4 29.4M5.586 38.35a3.09 3.09 0 0 1 4.377 0l7.159 7.158a3.09 3.09 0 0 1 0 4.377l-2.756 2.755-11.55-11.533Zm0 0"/></svg>