<svg xmlns="http://www.w3.org/2000/svg" width="82.521" height="136.003" viewBox="0 0 82.521 136.003"><g fill="#feba30" transform="translate(-184.664 -3585.988)"><path d="m186.353 3603.368-.74-.673 14.743-16.216.74.673Z"/><path d="m200.881 3602.911-16.217-14.743.672-.74 16.218 14.743Zm-14.486 24.288-.74-.673 14.743-16.216.74.673Z"/><path d="m200.924 3626.742-16.217-14.743.672-.74 16.218 14.743Zm6.205-23.865-.74-.673 14.743-16.216.74.673Z"/><path d="m221.657 3602.42-16.217-14.743.672-.74 16.218 14.743Zm-14.484 24.287-.74-.673 14.743-16.216.74.673Z"/><path d="m221.7 3626.25-16.217-14.743.672-.74 16.218 14.743Zm-35.347 23.93-.74-.673 14.743-16.216.74.673Z"/><path d="m200.881 3649.722-16.217-14.743.672-.74 16.218 14.743Zm-14.486 24.288-.74-.673 14.743-16.216.74.673Zm-.043 23.98-.74-.673 14.743-16.216.74.673Zm0 24-.74-.673 14.743-16.216.74.673Z"/><path d="m200.924 3673.552-16.217-14.743.672-.74 16.218 14.743Zm-.043 23.981-16.217-14.743.672-.74 16.218 14.743Zm0 24-16.217-14.743.672-.74 16.218 14.743Zm6.248-71.845-.74-.673 14.743-16.216.74.673Z"/><path d="m221.657 3649.231-16.217-14.743.672-.74 16.218 14.743Zm-14.484 24.287-.74-.673 14.743-16.216.74.673Zm-.043 23.981-.74-.673 14.743-16.216.74.673Zm0 24-.74-.673 14.743-16.216.74.673Z"/><path d="m221.7 3673.061-16.217-14.743.672-.74 16.218 14.743Zm-.043 23.981-16.217-14.743.672-.74 16.218 14.743Zm0 24-16.217-14.743.672-.74 16.218 14.743Zm9.507-117.674-.74-.673 14.743-16.216.74.673Z"/><path d="m245.693 3602.911-16.217-14.743.672-.74 16.218 14.743Zm-14.486 24.288-.74-.673 14.743-16.216.74.673Z"/><path d="m245.735 3626.742-16.217-14.743.672-.74 16.218 14.743Zm6.205-23.865-.74-.673 14.743-16.216.74.673Z"/><path d="m266.469 3602.42-16.217-14.743.672-.74 16.218 14.743Zm-14.486 24.287-.74-.673 14.743-16.216.74.673Z"/><path d="m266.512 3626.25-16.217-14.743.672-.74 16.218 14.743Zm-35.348 23.93-.74-.673 14.743-16.216.74.673Z"/><path d="m245.693 3649.722-16.217-14.743.672-.74 16.218 14.743Zm-14.486 24.288-.74-.673 14.743-16.216.74.673Zm-.043 23.98-.74-.673 14.743-16.216.74.673Zm0 24-.74-.673 14.743-16.216.74.673Z"/><path d="m245.735 3673.552-16.217-14.743.672-.74 16.218 14.743Zm-.043 23.981-16.217-14.743.672-.74 16.218 14.743Zm0 24-16.217-14.743.672-.74 16.218 14.743Zm6.248-71.845-.74-.673 14.743-16.216.74.673Z"/><path d="m266.469 3649.231-16.217-14.743.672-.74 16.218 14.743Zm-14.486 24.287-.74-.673 14.743-16.216.74.673Zm-.043 23.981-.74-.673 14.743-16.216.74.673Zm0 24-.74-.673 14.743-16.216.74.673Z"/><path d="m266.512 3673.061-16.217-14.743.672-.74 16.218 14.743Zm-.043 23.981-16.217-14.743.672-.74 16.218 14.743Zm0 24-16.217-14.743.672-.74 16.218 14.743Z"/></g></svg>