<svg xmlns="http://www.w3.org/2000/svg" width="61.942" height="61.945" viewBox="0 0 61.942 61.945"><path fill="#feba30" d="m23.062 20.924-2.364 2.364-.3-.3a1.031 1.031 0 0 0-1.458 1.458l1.031 1.031a1.03 1.03 0 0 0 1.458 0l3.093-3.093a1.031 1.031 0 0 0-1.458-1.458Zm15.164 1.759H27.915a1.031 1.031 0 1 0 0 2.062h10.311a1.031 1.031 0 1 0 0-2.062M23.062 27.11l-2.364 2.364-.3-.3a1.031 1.031 0 0 0-1.458 1.458l1.031 1.031a1.03 1.03 0 0 0 1.458 0l3.093-3.093a1.031 1.031 0 0 0-1.458-1.458Zm15.164 1.76H27.915a1.031 1.031 0 0 0 0 2.062h10.311a1.031 1.031 0 1 0 0-2.062m-15.164 4.426-2.364 2.364-.3-.3a1.031 1.031 0 0 0-1.458 1.458l1.031 1.031a1.03 1.03 0 0 0 1.458 0l3.093-3.093a1.031 1.031 0 0 0-1.458-1.458Zm15.164 1.76H27.915a1.031 1.031 0 1 0 0 2.062h10.311a1.031 1.031 0 1 0 0-2.062m-15.164 4.426-2.364 2.364-.3-.3a1.031 1.031 0 0 0-1.458 1.458l1.031 1.031a1.03 1.03 0 0 0 1.458 0l3.093-3.093a1.031 1.031 0 0 0-1.458-1.458Zm15.164 1.76H27.915a1.031 1.031 0 1 0 0 2.062h10.311a1.031 1.031 0 1 0 0-2.062"/><path fill="#feba30" d="m60.18.3-1.471 1.474L57.574.64a2.172 2.172 0 0 0-3.342.331l-3.269 4.9a2.18 2.18 0 0 0 .27 2.739l.32.32-2.947 2.95a28.907 28.907 0 1 0 1.459 1.459l2.947-2.951.319.319a2.175 2.175 0 0 0 2.739.269l4.9-3.268a2.17 2.17 0 0 0 .33-3.341l-1.131-1.134 1.471-1.471A1.033 1.033 0 1 0 60.18.3m-4.426 32.694a26.848 26.848 0 1 1-8.6-19.656l-1.323 1.325-1.8-1.8a2.19 2.19 0 0 0-2.238-.543 2.1 2.1 0 0 0-.634.352 23.733 23.733 0 1 0 8.106 8.106 2.1 2.1 0 0 0 .352-.634 2.19 2.19 0 0 0-.543-2.238l-1.789-1.784 1.324-1.322a26.7 26.7 0 0 1 7.145 18.194m-15.68-11.128a2.22 2.22 0 0 0 1.566.652h.019a16.555 16.555 0 1 1-2.221-2.223 2.2 2.2 0 0 0 .636 1.571m-.315-3.944a18.583 18.583 0 1 0 4.259 4.259l3.376-.516a21.669 21.669 0 1 1-7.123-7.123Zm7.836 1.632-5.943.9a.16.16 0 0 1-.122-.046.14.14 0 0 1-.046-.122l.951-6a.1.1 0 0 1 .037-.006.14.14 0 0 1 .1.048l2.5 2.5c.007.008.009.02.018.028s.019.01.027.018l2.493 2.493c.015.017.065.065-.02.187Zm12.234-13.56-4.9 3.267a.11.11 0 0 1-.138-.013l-2.1-2.1a.1.1 0 0 1-.013-.138l3.268-4.9.167-.017 3.731 3.731Z"/></svg>